%TF.GenerationSoftware,KiCad,Pcbnew,4.0.7*%
%TF.CreationDate,2020-08-23T22:37:38+12:00*%
%TF.ProjectId,jar-of-dirt,6A61722D6F662D646972742E6B696361,rev?*%
%TF.FileFunction,Legend,Bot*%
%FSLAX46Y46*%
G04 Gerber Fmt 4.6, Leading zero omitted, Abs format (unit mm)*
G04 Created by KiCad (PCBNEW 4.0.7) date 2020 August 23, Sunday 22:37:38*
%MOMM*%
%LPD*%
G01*
G04 APERTURE LIST*
%ADD10C,0.150000*%
%ADD11C,0.200000*%
%ADD12C,0.010000*%
G04 APERTURE END LIST*
D10*
X146578940Y-74930000D02*
G75*
G03X146578940Y-74930000I-24658940J0D01*
G01*
D11*
X117030000Y-83412381D02*
X117601429Y-83412381D01*
X117315715Y-83412381D02*
X117315715Y-82412381D01*
X117410953Y-82555238D01*
X117506191Y-82650476D01*
X117601429Y-82698095D01*
X116696667Y-82412381D02*
X116458572Y-83412381D01*
X116268095Y-82698095D01*
X116077619Y-83412381D01*
X115839524Y-82412381D01*
X114125238Y-83317143D02*
X114172857Y-83364762D01*
X114315714Y-83412381D01*
X114410952Y-83412381D01*
X114553810Y-83364762D01*
X114649048Y-83269524D01*
X114696667Y-83174286D01*
X114744286Y-82983810D01*
X114744286Y-82840952D01*
X114696667Y-82650476D01*
X114649048Y-82555238D01*
X114553810Y-82460000D01*
X114410952Y-82412381D01*
X114315714Y-82412381D01*
X114172857Y-82460000D01*
X114125238Y-82507619D01*
X113553810Y-83412381D02*
X113649048Y-83364762D01*
X113696667Y-83269524D01*
X113696667Y-82412381D01*
X112744285Y-83412381D02*
X112744285Y-82888571D01*
X112791904Y-82793333D01*
X112887142Y-82745714D01*
X113077619Y-82745714D01*
X113172857Y-82793333D01*
X112744285Y-83364762D02*
X112839523Y-83412381D01*
X113077619Y-83412381D01*
X113172857Y-83364762D01*
X113220476Y-83269524D01*
X113220476Y-83174286D01*
X113172857Y-83079048D01*
X113077619Y-83031429D01*
X112839523Y-83031429D01*
X112744285Y-82983810D01*
X112315714Y-83364762D02*
X112220476Y-83412381D01*
X112030000Y-83412381D01*
X111934761Y-83364762D01*
X111887142Y-83269524D01*
X111887142Y-83221905D01*
X111934761Y-83126667D01*
X112030000Y-83079048D01*
X112172857Y-83079048D01*
X112268095Y-83031429D01*
X112315714Y-82936190D01*
X112315714Y-82888571D01*
X112268095Y-82793333D01*
X112172857Y-82745714D01*
X112030000Y-82745714D01*
X111934761Y-82793333D01*
X111506190Y-83364762D02*
X111410952Y-83412381D01*
X111220476Y-83412381D01*
X111125237Y-83364762D01*
X111077618Y-83269524D01*
X111077618Y-83221905D01*
X111125237Y-83126667D01*
X111220476Y-83079048D01*
X111363333Y-83079048D01*
X111458571Y-83031429D01*
X111506190Y-82936190D01*
X111506190Y-82888571D01*
X111458571Y-82793333D01*
X111363333Y-82745714D01*
X111220476Y-82745714D01*
X111125237Y-82793333D01*
X109934761Y-83126667D02*
X109458570Y-83126667D01*
X110029999Y-83412381D02*
X109696666Y-82412381D01*
X109363332Y-83412381D01*
X108696665Y-82888571D02*
X108553808Y-82936190D01*
X108506189Y-82983810D01*
X108458570Y-83079048D01*
X108458570Y-83221905D01*
X108506189Y-83317143D01*
X108553808Y-83364762D01*
X108649046Y-83412381D01*
X109029999Y-83412381D01*
X109029999Y-82412381D01*
X108696665Y-82412381D01*
X108601427Y-82460000D01*
X108553808Y-82507619D01*
X108506189Y-82602857D01*
X108506189Y-82698095D01*
X108553808Y-82793333D01*
X108601427Y-82840952D01*
X108696665Y-82888571D01*
X109029999Y-82888571D01*
X118553810Y-84826667D02*
X118077619Y-84826667D01*
X118649048Y-85112381D02*
X118315715Y-84112381D01*
X117982381Y-85112381D01*
X117220476Y-84445714D02*
X117220476Y-85112381D01*
X117649048Y-84445714D02*
X117649048Y-84969524D01*
X117601429Y-85064762D01*
X117506191Y-85112381D01*
X117363333Y-85112381D01*
X117268095Y-85064762D01*
X117220476Y-85017143D01*
X116315714Y-85112381D02*
X116315714Y-84112381D01*
X116315714Y-85064762D02*
X116410952Y-85112381D01*
X116601429Y-85112381D01*
X116696667Y-85064762D01*
X116744286Y-85017143D01*
X116791905Y-84921905D01*
X116791905Y-84636190D01*
X116744286Y-84540952D01*
X116696667Y-84493333D01*
X116601429Y-84445714D01*
X116410952Y-84445714D01*
X116315714Y-84493333D01*
X115839524Y-85112381D02*
X115839524Y-84445714D01*
X115839524Y-84112381D02*
X115887143Y-84160000D01*
X115839524Y-84207619D01*
X115791905Y-84160000D01*
X115839524Y-84112381D01*
X115839524Y-84207619D01*
X115220477Y-85112381D02*
X115315715Y-85064762D01*
X115363334Y-85017143D01*
X115410953Y-84921905D01*
X115410953Y-84636190D01*
X115363334Y-84540952D01*
X115315715Y-84493333D01*
X115220477Y-84445714D01*
X115077619Y-84445714D01*
X114982381Y-84493333D01*
X114934762Y-84540952D01*
X114887143Y-84636190D01*
X114887143Y-84921905D01*
X114934762Y-85017143D01*
X114982381Y-85064762D01*
X115077619Y-85112381D01*
X115220477Y-85112381D01*
X113744286Y-84826667D02*
X113268095Y-84826667D01*
X113839524Y-85112381D02*
X113506191Y-84112381D01*
X113172857Y-85112381D01*
X112839524Y-85112381D02*
X112839524Y-84445714D01*
X112839524Y-84540952D02*
X112791905Y-84493333D01*
X112696667Y-84445714D01*
X112553809Y-84445714D01*
X112458571Y-84493333D01*
X112410952Y-84588571D01*
X112410952Y-85112381D01*
X112410952Y-84588571D02*
X112363333Y-84493333D01*
X112268095Y-84445714D01*
X112125238Y-84445714D01*
X112030000Y-84493333D01*
X111982381Y-84588571D01*
X111982381Y-85112381D01*
X111506191Y-84445714D02*
X111506191Y-85445714D01*
X111506191Y-84493333D02*
X111410953Y-84445714D01*
X111220476Y-84445714D01*
X111125238Y-84493333D01*
X111077619Y-84540952D01*
X111030000Y-84636190D01*
X111030000Y-84921905D01*
X111077619Y-85017143D01*
X111125238Y-85064762D01*
X111220476Y-85112381D01*
X111410953Y-85112381D01*
X111506191Y-85064762D01*
X110458572Y-85112381D02*
X110553810Y-85064762D01*
X110601429Y-84969524D01*
X110601429Y-84112381D01*
X110077619Y-85112381D02*
X110077619Y-84445714D01*
X110077619Y-84112381D02*
X110125238Y-84160000D01*
X110077619Y-84207619D01*
X110030000Y-84160000D01*
X110077619Y-84112381D01*
X110077619Y-84207619D01*
X109744286Y-84445714D02*
X109363334Y-84445714D01*
X109601429Y-85112381D02*
X109601429Y-84255238D01*
X109553810Y-84160000D01*
X109458572Y-84112381D01*
X109363334Y-84112381D01*
X109030000Y-85112381D02*
X109030000Y-84445714D01*
X109030000Y-84112381D02*
X109077619Y-84160000D01*
X109030000Y-84207619D01*
X108982381Y-84160000D01*
X109030000Y-84112381D01*
X109030000Y-84207619D01*
X108172857Y-85064762D02*
X108268095Y-85112381D01*
X108458572Y-85112381D01*
X108553810Y-85064762D01*
X108601429Y-84969524D01*
X108601429Y-84588571D01*
X108553810Y-84493333D01*
X108458572Y-84445714D01*
X108268095Y-84445714D01*
X108172857Y-84493333D01*
X108125238Y-84588571D01*
X108125238Y-84683810D01*
X108601429Y-84779048D01*
X107696667Y-85112381D02*
X107696667Y-84445714D01*
X107696667Y-84636190D02*
X107649048Y-84540952D01*
X107601429Y-84493333D01*
X107506191Y-84445714D01*
X107410952Y-84445714D01*
X116982381Y-86717143D02*
X117030000Y-86764762D01*
X117172857Y-86812381D01*
X117268095Y-86812381D01*
X117410953Y-86764762D01*
X117506191Y-86669524D01*
X117553810Y-86574286D01*
X117601429Y-86383810D01*
X117601429Y-86240952D01*
X117553810Y-86050476D01*
X117506191Y-85955238D01*
X117410953Y-85860000D01*
X117268095Y-85812381D01*
X117172857Y-85812381D01*
X117030000Y-85860000D01*
X116982381Y-85907619D01*
X116410953Y-86812381D02*
X116506191Y-86764762D01*
X116553810Y-86717143D01*
X116601429Y-86621905D01*
X116601429Y-86336190D01*
X116553810Y-86240952D01*
X116506191Y-86193333D01*
X116410953Y-86145714D01*
X116268095Y-86145714D01*
X116172857Y-86193333D01*
X116125238Y-86240952D01*
X116077619Y-86336190D01*
X116077619Y-86621905D01*
X116125238Y-86717143D01*
X116172857Y-86764762D01*
X116268095Y-86812381D01*
X116410953Y-86812381D01*
X115649048Y-86145714D02*
X115649048Y-86812381D01*
X115649048Y-86240952D02*
X115601429Y-86193333D01*
X115506191Y-86145714D01*
X115363333Y-86145714D01*
X115268095Y-86193333D01*
X115220476Y-86288571D01*
X115220476Y-86812381D01*
X114315714Y-86812381D02*
X114315714Y-86288571D01*
X114363333Y-86193333D01*
X114458571Y-86145714D01*
X114649048Y-86145714D01*
X114744286Y-86193333D01*
X114315714Y-86764762D02*
X114410952Y-86812381D01*
X114649048Y-86812381D01*
X114744286Y-86764762D01*
X114791905Y-86669524D01*
X114791905Y-86574286D01*
X114744286Y-86479048D01*
X114649048Y-86431429D01*
X114410952Y-86431429D01*
X114315714Y-86383810D01*
X113410952Y-86145714D02*
X113410952Y-86955238D01*
X113458571Y-87050476D01*
X113506190Y-87098095D01*
X113601429Y-87145714D01*
X113744286Y-87145714D01*
X113839524Y-87098095D01*
X113410952Y-86764762D02*
X113506190Y-86812381D01*
X113696667Y-86812381D01*
X113791905Y-86764762D01*
X113839524Y-86717143D01*
X113887143Y-86621905D01*
X113887143Y-86336190D01*
X113839524Y-86240952D01*
X113791905Y-86193333D01*
X113696667Y-86145714D01*
X113506190Y-86145714D01*
X113410952Y-86193333D01*
X112934762Y-86812381D02*
X112934762Y-85812381D01*
X112506190Y-86812381D02*
X112506190Y-86288571D01*
X112553809Y-86193333D01*
X112649047Y-86145714D01*
X112791905Y-86145714D01*
X112887143Y-86193333D01*
X112934762Y-86240952D01*
X110934761Y-86288571D02*
X111268095Y-86288571D01*
X111268095Y-86812381D02*
X111268095Y-85812381D01*
X110791904Y-85812381D01*
X110410952Y-86431429D02*
X109649047Y-86431429D01*
X109172857Y-86812381D02*
X109172857Y-85812381D01*
X108839523Y-86526667D01*
X108506190Y-85812381D01*
X108506190Y-86812381D01*
X116696667Y-88226667D02*
X116220476Y-88226667D01*
X116791905Y-88512381D02*
X116458572Y-87512381D01*
X116125238Y-88512381D01*
X115363333Y-87845714D02*
X115363333Y-88512381D01*
X115791905Y-87845714D02*
X115791905Y-88369524D01*
X115744286Y-88464762D01*
X115649048Y-88512381D01*
X115506190Y-88512381D01*
X115410952Y-88464762D01*
X115363333Y-88417143D01*
X114458571Y-87845714D02*
X114458571Y-88655238D01*
X114506190Y-88750476D01*
X114553809Y-88798095D01*
X114649048Y-88845714D01*
X114791905Y-88845714D01*
X114887143Y-88798095D01*
X114458571Y-88464762D02*
X114553809Y-88512381D01*
X114744286Y-88512381D01*
X114839524Y-88464762D01*
X114887143Y-88417143D01*
X114934762Y-88321905D01*
X114934762Y-88036190D01*
X114887143Y-87940952D01*
X114839524Y-87893333D01*
X114744286Y-87845714D01*
X114553809Y-87845714D01*
X114458571Y-87893333D01*
X113982381Y-88417143D02*
X113934762Y-88464762D01*
X113982381Y-88512381D01*
X114030000Y-88464762D01*
X113982381Y-88417143D01*
X113982381Y-88512381D01*
X112791905Y-87607619D02*
X112744286Y-87560000D01*
X112649048Y-87512381D01*
X112410952Y-87512381D01*
X112315714Y-87560000D01*
X112268095Y-87607619D01*
X112220476Y-87702857D01*
X112220476Y-87798095D01*
X112268095Y-87940952D01*
X112839524Y-88512381D01*
X112220476Y-88512381D01*
X111601429Y-87512381D02*
X111506190Y-87512381D01*
X111410952Y-87560000D01*
X111363333Y-87607619D01*
X111315714Y-87702857D01*
X111268095Y-87893333D01*
X111268095Y-88131429D01*
X111315714Y-88321905D01*
X111363333Y-88417143D01*
X111410952Y-88464762D01*
X111506190Y-88512381D01*
X111601429Y-88512381D01*
X111696667Y-88464762D01*
X111744286Y-88417143D01*
X111791905Y-88321905D01*
X111839524Y-88131429D01*
X111839524Y-87893333D01*
X111791905Y-87702857D01*
X111744286Y-87607619D01*
X111696667Y-87560000D01*
X111601429Y-87512381D01*
X110887143Y-87607619D02*
X110839524Y-87560000D01*
X110744286Y-87512381D01*
X110506190Y-87512381D01*
X110410952Y-87560000D01*
X110363333Y-87607619D01*
X110315714Y-87702857D01*
X110315714Y-87798095D01*
X110363333Y-87940952D01*
X110934762Y-88512381D01*
X110315714Y-88512381D01*
X109696667Y-87512381D02*
X109601428Y-87512381D01*
X109506190Y-87560000D01*
X109458571Y-87607619D01*
X109410952Y-87702857D01*
X109363333Y-87893333D01*
X109363333Y-88131429D01*
X109410952Y-88321905D01*
X109458571Y-88417143D01*
X109506190Y-88464762D01*
X109601428Y-88512381D01*
X109696667Y-88512381D01*
X109791905Y-88464762D01*
X109839524Y-88417143D01*
X109887143Y-88321905D01*
X109934762Y-88131429D01*
X109934762Y-87893333D01*
X109887143Y-87702857D01*
X109839524Y-87607619D01*
X109791905Y-87560000D01*
X109696667Y-87512381D01*
X116744286Y-89212381D02*
X116506191Y-90212381D01*
X116315714Y-89498095D01*
X116125238Y-90212381D01*
X115887143Y-89212381D01*
X115125238Y-90164762D02*
X115220476Y-90212381D01*
X115410953Y-90212381D01*
X115506191Y-90164762D01*
X115553810Y-90069524D01*
X115553810Y-89688571D01*
X115506191Y-89593333D01*
X115410953Y-89545714D01*
X115220476Y-89545714D01*
X115125238Y-89593333D01*
X115077619Y-89688571D01*
X115077619Y-89783810D01*
X115553810Y-89879048D01*
X114506191Y-90212381D02*
X114601429Y-90164762D01*
X114649048Y-90069524D01*
X114649048Y-89212381D01*
X113982381Y-90212381D02*
X114077619Y-90164762D01*
X114125238Y-90069524D01*
X114125238Y-89212381D01*
X113601428Y-90212381D02*
X113601428Y-89545714D01*
X113601428Y-89212381D02*
X113649047Y-89260000D01*
X113601428Y-89307619D01*
X113553809Y-89260000D01*
X113601428Y-89212381D01*
X113601428Y-89307619D01*
X113125238Y-89545714D02*
X113125238Y-90212381D01*
X113125238Y-89640952D02*
X113077619Y-89593333D01*
X112982381Y-89545714D01*
X112839523Y-89545714D01*
X112744285Y-89593333D01*
X112696666Y-89688571D01*
X112696666Y-90212381D01*
X111791904Y-89545714D02*
X111791904Y-90355238D01*
X111839523Y-90450476D01*
X111887142Y-90498095D01*
X111982381Y-90545714D01*
X112125238Y-90545714D01*
X112220476Y-90498095D01*
X111791904Y-90164762D02*
X111887142Y-90212381D01*
X112077619Y-90212381D01*
X112172857Y-90164762D01*
X112220476Y-90117143D01*
X112268095Y-90021905D01*
X112268095Y-89736190D01*
X112220476Y-89640952D01*
X112172857Y-89593333D01*
X112077619Y-89545714D01*
X111887142Y-89545714D01*
X111791904Y-89593333D01*
X111458571Y-89545714D02*
X111077619Y-89545714D01*
X111315714Y-89212381D02*
X111315714Y-90069524D01*
X111268095Y-90164762D01*
X111172857Y-90212381D01*
X111077619Y-90212381D01*
X110601428Y-90212381D02*
X110696666Y-90164762D01*
X110744285Y-90117143D01*
X110791904Y-90021905D01*
X110791904Y-89736190D01*
X110744285Y-89640952D01*
X110696666Y-89593333D01*
X110601428Y-89545714D01*
X110458570Y-89545714D01*
X110363332Y-89593333D01*
X110315713Y-89640952D01*
X110268094Y-89736190D01*
X110268094Y-90021905D01*
X110315713Y-90117143D01*
X110363332Y-90164762D01*
X110458570Y-90212381D01*
X110601428Y-90212381D01*
X109839523Y-89545714D02*
X109839523Y-90212381D01*
X109839523Y-89640952D02*
X109791904Y-89593333D01*
X109696666Y-89545714D01*
X109553808Y-89545714D01*
X109458570Y-89593333D01*
X109410951Y-89688571D01*
X109410951Y-90212381D01*
D12*
G36*
X101049662Y-77315458D02*
X101045818Y-77321415D01*
X101061843Y-77344883D01*
X101104785Y-77391454D01*
X101166948Y-77453660D01*
X101240634Y-77524035D01*
X101318146Y-77595110D01*
X101391787Y-77659419D01*
X101409500Y-77674234D01*
X101470524Y-77727790D01*
X101514070Y-77771905D01*
X101530727Y-77797046D01*
X101530727Y-77797073D01*
X101532631Y-77810290D01*
X101541898Y-77826202D01*
X101563865Y-77849893D01*
X101603868Y-77886448D01*
X101667243Y-77940950D01*
X101759324Y-78018485D01*
X101790500Y-78044614D01*
X101870732Y-78113534D01*
X101935877Y-78172738D01*
X101978803Y-78215524D01*
X101992545Y-78234487D01*
X102010454Y-78254201D01*
X102017775Y-78255091D01*
X102048826Y-78268783D01*
X102105613Y-78305247D01*
X102178495Y-78357568D01*
X102257833Y-78418830D01*
X102332899Y-78481173D01*
X102392149Y-78530842D01*
X102460845Y-78586156D01*
X102474207Y-78596627D01*
X102533231Y-78645429D01*
X102581288Y-78689923D01*
X102590402Y-78699591D01*
X102641170Y-78732276D01*
X102678859Y-78740000D01*
X102734904Y-78755903D01*
X102776166Y-78784712D01*
X102816673Y-78814795D01*
X102889206Y-78859163D01*
X102983916Y-78912630D01*
X103090952Y-78970010D01*
X103200467Y-79026114D01*
X103302609Y-79075757D01*
X103387529Y-79113752D01*
X103435727Y-79132045D01*
X103499170Y-79154603D01*
X103544145Y-79174554D01*
X103551182Y-79178907D01*
X103583867Y-79192696D01*
X103648069Y-79212701D01*
X103730308Y-79234745D01*
X103735909Y-79236137D01*
X103830408Y-79260914D01*
X103918858Y-79286459D01*
X103978363Y-79305942D01*
X104052588Y-79330697D01*
X104140682Y-79356610D01*
X104168444Y-79364041D01*
X104229185Y-79383313D01*
X104263873Y-79401371D01*
X104267288Y-79409170D01*
X104279094Y-79421923D01*
X104319662Y-79428045D01*
X104437589Y-79433354D01*
X104513182Y-79440574D01*
X104550265Y-79450171D01*
X104555636Y-79456866D01*
X104575465Y-79477030D01*
X104624405Y-79501276D01*
X104686639Y-79523004D01*
X104743613Y-79535296D01*
X104877665Y-79552485D01*
X104972769Y-79566679D01*
X105035953Y-79579259D01*
X105074245Y-79591605D01*
X105093655Y-79604069D01*
X105130450Y-79618709D01*
X105197191Y-79628628D01*
X105259909Y-79631376D01*
X105363819Y-79638350D01*
X105473621Y-79655972D01*
X105524077Y-79668416D01*
X105631666Y-79691037D01*
X105703021Y-79685060D01*
X105771557Y-79674296D01*
X105848326Y-79683135D01*
X105912157Y-79707849D01*
X105933101Y-79725599D01*
X105961152Y-79744833D01*
X105975566Y-79733170D01*
X105999580Y-79719928D01*
X106022977Y-79733796D01*
X106061708Y-79748529D01*
X106130461Y-79760344D01*
X106199876Y-79765880D01*
X106282029Y-79771094D01*
X106348415Y-79778706D01*
X106379818Y-79785599D01*
X106422223Y-79796277D01*
X106490804Y-79807743D01*
X106529909Y-79812789D01*
X106672352Y-79829697D01*
X106782221Y-79843891D01*
X106872909Y-79857117D01*
X106887818Y-79859464D01*
X106951644Y-79866884D01*
X107042368Y-79874133D01*
X107140725Y-79879680D01*
X107143944Y-79879819D01*
X107231958Y-79885521D01*
X107303066Y-79893681D01*
X107343634Y-79902674D01*
X107346196Y-79903965D01*
X107388790Y-79911360D01*
X107418757Y-79906139D01*
X107506592Y-79891465D01*
X107602299Y-79895072D01*
X107684387Y-79915340D01*
X107709029Y-79928031D01*
X107759945Y-79946748D01*
X107839891Y-79961075D01*
X107933976Y-79970075D01*
X108027314Y-79972812D01*
X108105016Y-79968348D01*
X108151956Y-79955896D01*
X108193618Y-79951222D01*
X108220841Y-79960312D01*
X108267845Y-79971901D01*
X108338728Y-79975801D01*
X108371192Y-79974587D01*
X108453021Y-79975751D01*
X108494796Y-79993647D01*
X108498198Y-79998489D01*
X108524103Y-80017766D01*
X108558783Y-80005748D01*
X108609849Y-79993609D01*
X108686310Y-79993640D01*
X108714639Y-79996626D01*
X108791817Y-80002044D01*
X108825695Y-79992042D01*
X108827454Y-79986342D01*
X108841267Y-79971275D01*
X108848842Y-79974312D01*
X108880467Y-79980513D01*
X108947075Y-79985591D01*
X109038959Y-79989464D01*
X109146414Y-79992050D01*
X109259732Y-79993266D01*
X109369206Y-79993030D01*
X109465131Y-79991259D01*
X109537798Y-79987871D01*
X109577502Y-79982784D01*
X109581849Y-79980534D01*
X109610148Y-79971304D01*
X109637505Y-79975957D01*
X109686466Y-79983207D01*
X109773521Y-79987795D01*
X109890673Y-79989926D01*
X110029923Y-79989803D01*
X110183273Y-79987632D01*
X110342726Y-79983616D01*
X110500281Y-79977958D01*
X110647943Y-79970863D01*
X110777712Y-79962535D01*
X110881590Y-79953178D01*
X110951578Y-79942997D01*
X110954530Y-79942363D01*
X111018260Y-79934545D01*
X111065601Y-79939433D01*
X111069985Y-79941377D01*
X111110484Y-79946893D01*
X111179369Y-79942171D01*
X111260634Y-79929709D01*
X111338273Y-79912005D01*
X111396279Y-79891556D01*
X111399413Y-79889971D01*
X111443019Y-79880060D01*
X111458635Y-79892631D01*
X111483776Y-79905575D01*
X111539047Y-79903255D01*
X111599858Y-79892557D01*
X111676159Y-79878307D01*
X111737070Y-79869154D01*
X111760000Y-79867282D01*
X111801832Y-79863525D01*
X111875059Y-79853401D01*
X111965687Y-79839065D01*
X112059721Y-79822670D01*
X112102947Y-79814508D01*
X112158491Y-79796115D01*
X112186611Y-79779565D01*
X112231664Y-79765705D01*
X112253528Y-79769618D01*
X112284937Y-79768380D01*
X112291091Y-79745563D01*
X112301842Y-79719903D01*
X112314530Y-79721579D01*
X112348135Y-79725196D01*
X112406794Y-79718490D01*
X112475350Y-79704835D01*
X112538644Y-79687606D01*
X112581517Y-79670179D01*
X112591272Y-79659962D01*
X112611766Y-79647801D01*
X112662960Y-79641040D01*
X112683636Y-79640546D01*
X112741474Y-79635425D01*
X112773645Y-79622631D01*
X112776000Y-79617455D01*
X112794702Y-79596969D01*
X112810636Y-79594364D01*
X112840403Y-79585360D01*
X112835120Y-79555503D01*
X112800394Y-79507773D01*
X112753119Y-79469553D01*
X112709611Y-79455819D01*
X112661579Y-79437149D01*
X112637454Y-79409637D01*
X112608568Y-79373068D01*
X112588919Y-79363455D01*
X112556865Y-79350458D01*
X112506120Y-79318049D01*
X112489416Y-79305728D01*
X112433241Y-79269022D01*
X112387169Y-79249157D01*
X112378677Y-79248000D01*
X112337238Y-79232645D01*
X112268781Y-79189318D01*
X112179507Y-79122130D01*
X112138481Y-79088769D01*
X112102954Y-79065591D01*
X112044593Y-79032947D01*
X112021482Y-79020908D01*
X111957810Y-78983841D01*
X111909422Y-78947695D01*
X111900157Y-78938215D01*
X111866734Y-78914521D01*
X111848522Y-78915557D01*
X111819463Y-78910106D01*
X111785294Y-78881086D01*
X111750221Y-78851358D01*
X111727859Y-78849111D01*
X111704731Y-78843041D01*
X111663637Y-78809795D01*
X111637840Y-78783299D01*
X111585088Y-78731176D01*
X111551932Y-78705364D01*
X102708363Y-78705364D01*
X102696818Y-78716910D01*
X102685272Y-78705364D01*
X102696818Y-78693819D01*
X102708363Y-78705364D01*
X111551932Y-78705364D01*
X111538016Y-78694531D01*
X111523318Y-78686879D01*
X111489249Y-78663436D01*
X111482909Y-78648361D01*
X111463442Y-78604348D01*
X111417900Y-78565795D01*
X111365567Y-78546829D01*
X111346077Y-78548134D01*
X111310735Y-78549329D01*
X111298789Y-78519432D01*
X111298182Y-78500239D01*
X111287036Y-78452131D01*
X111257772Y-78439708D01*
X111214935Y-78423611D01*
X111158923Y-78383614D01*
X111102974Y-78331898D01*
X111060325Y-78280642D01*
X111044182Y-78243167D01*
X111031701Y-78217010D01*
X110997886Y-78220491D01*
X110953007Y-78219136D01*
X110937688Y-78198956D01*
X110910383Y-78167315D01*
X110894313Y-78162728D01*
X110865322Y-78143405D01*
X110852764Y-78116546D01*
X110821745Y-78077517D01*
X110790062Y-78070364D01*
X110742589Y-78054180D01*
X110687695Y-78013982D01*
X110674382Y-78000722D01*
X110609001Y-77944853D01*
X110535099Y-77900274D01*
X110526572Y-77896503D01*
X110473442Y-77866243D01*
X110445212Y-77834453D01*
X110443818Y-77827600D01*
X110425328Y-77797257D01*
X110409182Y-77793273D01*
X110378568Y-77774790D01*
X110374545Y-77758637D01*
X110355146Y-77730464D01*
X110326823Y-77724000D01*
X110278399Y-77710439D01*
X110218020Y-77676801D01*
X110203416Y-77666273D01*
X110147588Y-77629602D01*
X110102240Y-77609721D01*
X110093915Y-77608546D01*
X110049765Y-77595362D01*
X110015277Y-77574644D01*
X109978422Y-77553875D01*
X109931650Y-77543836D01*
X109867735Y-77545086D01*
X109779452Y-77558187D01*
X109659575Y-77583698D01*
X109545525Y-77611081D01*
X109423484Y-77640411D01*
X109306198Y-77667194D01*
X109206997Y-77688472D01*
X109139206Y-77701285D01*
X109139182Y-77701288D01*
X109047999Y-77716212D01*
X108942080Y-77734093D01*
X108885182Y-77743931D01*
X108794761Y-77757252D01*
X108680024Y-77770703D01*
X108562764Y-77781785D01*
X108538818Y-77783654D01*
X108349340Y-77798335D01*
X108168236Y-77813428D01*
X108005675Y-77828031D01*
X107871827Y-77841241D01*
X107799909Y-77849266D01*
X107746430Y-77848342D01*
X107716255Y-77834603D01*
X107685296Y-77824553D01*
X107656755Y-77835742D01*
X107615866Y-77846759D01*
X107540508Y-77857702D01*
X107442377Y-77867130D01*
X107358895Y-77872438D01*
X107239431Y-77879268D01*
X107122233Y-77887502D01*
X107024015Y-77895897D01*
X106979667Y-77900677D01*
X106903735Y-77906564D01*
X106787995Y-77910898D01*
X106638792Y-77913749D01*
X106462472Y-77915187D01*
X106265379Y-77915282D01*
X106053860Y-77914103D01*
X105834259Y-77911722D01*
X105612922Y-77908207D01*
X105396194Y-77903628D01*
X105190420Y-77898056D01*
X105001946Y-77891560D01*
X104837117Y-77884211D01*
X104702278Y-77876079D01*
X104694182Y-77875486D01*
X104612087Y-77868610D01*
X104508204Y-77858797D01*
X104393867Y-77847252D01*
X104280414Y-77835180D01*
X104179179Y-77823787D01*
X104101499Y-77814278D01*
X104059182Y-77807957D01*
X104018016Y-77801763D01*
X103942536Y-77792271D01*
X103844370Y-77780889D01*
X103759000Y-77771551D01*
X103623996Y-77756011D01*
X103476253Y-77737173D01*
X103339525Y-77718129D01*
X103285636Y-77709957D01*
X103177878Y-77693586D01*
X103076314Y-77679182D01*
X102997136Y-77669004D01*
X102973909Y-77666480D01*
X102930962Y-77661473D01*
X102878130Y-77653388D01*
X102808452Y-77640914D01*
X102714964Y-77622739D01*
X102590703Y-77597553D01*
X102428707Y-77564043D01*
X102416797Y-77561565D01*
X102351178Y-77546098D01*
X102257607Y-77521794D01*
X102152409Y-77492944D01*
X102110400Y-77480997D01*
X102015862Y-77455592D01*
X101936659Y-77437617D01*
X101884136Y-77429485D01*
X101870876Y-77430033D01*
X101829862Y-77430840D01*
X101773182Y-77419287D01*
X101716826Y-77408436D01*
X101631237Y-77398521D01*
X101533351Y-77391435D01*
X101517010Y-77390661D01*
X101396395Y-77380024D01*
X101300327Y-77360796D01*
X101255579Y-77344005D01*
X101198243Y-77320502D01*
X101161010Y-77324103D01*
X101148068Y-77332832D01*
X101120714Y-77347631D01*
X101115091Y-77334282D01*
X101096434Y-77311306D01*
X101080454Y-77308364D01*
X101049662Y-77315458D01*
X101049662Y-77315458D01*
G37*
X101049662Y-77315458D02*
X101045818Y-77321415D01*
X101061843Y-77344883D01*
X101104785Y-77391454D01*
X101166948Y-77453660D01*
X101240634Y-77524035D01*
X101318146Y-77595110D01*
X101391787Y-77659419D01*
X101409500Y-77674234D01*
X101470524Y-77727790D01*
X101514070Y-77771905D01*
X101530727Y-77797046D01*
X101530727Y-77797073D01*
X101532631Y-77810290D01*
X101541898Y-77826202D01*
X101563865Y-77849893D01*
X101603868Y-77886448D01*
X101667243Y-77940950D01*
X101759324Y-78018485D01*
X101790500Y-78044614D01*
X101870732Y-78113534D01*
X101935877Y-78172738D01*
X101978803Y-78215524D01*
X101992545Y-78234487D01*
X102010454Y-78254201D01*
X102017775Y-78255091D01*
X102048826Y-78268783D01*
X102105613Y-78305247D01*
X102178495Y-78357568D01*
X102257833Y-78418830D01*
X102332899Y-78481173D01*
X102392149Y-78530842D01*
X102460845Y-78586156D01*
X102474207Y-78596627D01*
X102533231Y-78645429D01*
X102581288Y-78689923D01*
X102590402Y-78699591D01*
X102641170Y-78732276D01*
X102678859Y-78740000D01*
X102734904Y-78755903D01*
X102776166Y-78784712D01*
X102816673Y-78814795D01*
X102889206Y-78859163D01*
X102983916Y-78912630D01*
X103090952Y-78970010D01*
X103200467Y-79026114D01*
X103302609Y-79075757D01*
X103387529Y-79113752D01*
X103435727Y-79132045D01*
X103499170Y-79154603D01*
X103544145Y-79174554D01*
X103551182Y-79178907D01*
X103583867Y-79192696D01*
X103648069Y-79212701D01*
X103730308Y-79234745D01*
X103735909Y-79236137D01*
X103830408Y-79260914D01*
X103918858Y-79286459D01*
X103978363Y-79305942D01*
X104052588Y-79330697D01*
X104140682Y-79356610D01*
X104168444Y-79364041D01*
X104229185Y-79383313D01*
X104263873Y-79401371D01*
X104267288Y-79409170D01*
X104279094Y-79421923D01*
X104319662Y-79428045D01*
X104437589Y-79433354D01*
X104513182Y-79440574D01*
X104550265Y-79450171D01*
X104555636Y-79456866D01*
X104575465Y-79477030D01*
X104624405Y-79501276D01*
X104686639Y-79523004D01*
X104743613Y-79535296D01*
X104877665Y-79552485D01*
X104972769Y-79566679D01*
X105035953Y-79579259D01*
X105074245Y-79591605D01*
X105093655Y-79604069D01*
X105130450Y-79618709D01*
X105197191Y-79628628D01*
X105259909Y-79631376D01*
X105363819Y-79638350D01*
X105473621Y-79655972D01*
X105524077Y-79668416D01*
X105631666Y-79691037D01*
X105703021Y-79685060D01*
X105771557Y-79674296D01*
X105848326Y-79683135D01*
X105912157Y-79707849D01*
X105933101Y-79725599D01*
X105961152Y-79744833D01*
X105975566Y-79733170D01*
X105999580Y-79719928D01*
X106022977Y-79733796D01*
X106061708Y-79748529D01*
X106130461Y-79760344D01*
X106199876Y-79765880D01*
X106282029Y-79771094D01*
X106348415Y-79778706D01*
X106379818Y-79785599D01*
X106422223Y-79796277D01*
X106490804Y-79807743D01*
X106529909Y-79812789D01*
X106672352Y-79829697D01*
X106782221Y-79843891D01*
X106872909Y-79857117D01*
X106887818Y-79859464D01*
X106951644Y-79866884D01*
X107042368Y-79874133D01*
X107140725Y-79879680D01*
X107143944Y-79879819D01*
X107231958Y-79885521D01*
X107303066Y-79893681D01*
X107343634Y-79902674D01*
X107346196Y-79903965D01*
X107388790Y-79911360D01*
X107418757Y-79906139D01*
X107506592Y-79891465D01*
X107602299Y-79895072D01*
X107684387Y-79915340D01*
X107709029Y-79928031D01*
X107759945Y-79946748D01*
X107839891Y-79961075D01*
X107933976Y-79970075D01*
X108027314Y-79972812D01*
X108105016Y-79968348D01*
X108151956Y-79955896D01*
X108193618Y-79951222D01*
X108220841Y-79960312D01*
X108267845Y-79971901D01*
X108338728Y-79975801D01*
X108371192Y-79974587D01*
X108453021Y-79975751D01*
X108494796Y-79993647D01*
X108498198Y-79998489D01*
X108524103Y-80017766D01*
X108558783Y-80005748D01*
X108609849Y-79993609D01*
X108686310Y-79993640D01*
X108714639Y-79996626D01*
X108791817Y-80002044D01*
X108825695Y-79992042D01*
X108827454Y-79986342D01*
X108841267Y-79971275D01*
X108848842Y-79974312D01*
X108880467Y-79980513D01*
X108947075Y-79985591D01*
X109038959Y-79989464D01*
X109146414Y-79992050D01*
X109259732Y-79993266D01*
X109369206Y-79993030D01*
X109465131Y-79991259D01*
X109537798Y-79987871D01*
X109577502Y-79982784D01*
X109581849Y-79980534D01*
X109610148Y-79971304D01*
X109637505Y-79975957D01*
X109686466Y-79983207D01*
X109773521Y-79987795D01*
X109890673Y-79989926D01*
X110029923Y-79989803D01*
X110183273Y-79987632D01*
X110342726Y-79983616D01*
X110500281Y-79977958D01*
X110647943Y-79970863D01*
X110777712Y-79962535D01*
X110881590Y-79953178D01*
X110951578Y-79942997D01*
X110954530Y-79942363D01*
X111018260Y-79934545D01*
X111065601Y-79939433D01*
X111069985Y-79941377D01*
X111110484Y-79946893D01*
X111179369Y-79942171D01*
X111260634Y-79929709D01*
X111338273Y-79912005D01*
X111396279Y-79891556D01*
X111399413Y-79889971D01*
X111443019Y-79880060D01*
X111458635Y-79892631D01*
X111483776Y-79905575D01*
X111539047Y-79903255D01*
X111599858Y-79892557D01*
X111676159Y-79878307D01*
X111737070Y-79869154D01*
X111760000Y-79867282D01*
X111801832Y-79863525D01*
X111875059Y-79853401D01*
X111965687Y-79839065D01*
X112059721Y-79822670D01*
X112102947Y-79814508D01*
X112158491Y-79796115D01*
X112186611Y-79779565D01*
X112231664Y-79765705D01*
X112253528Y-79769618D01*
X112284937Y-79768380D01*
X112291091Y-79745563D01*
X112301842Y-79719903D01*
X112314530Y-79721579D01*
X112348135Y-79725196D01*
X112406794Y-79718490D01*
X112475350Y-79704835D01*
X112538644Y-79687606D01*
X112581517Y-79670179D01*
X112591272Y-79659962D01*
X112611766Y-79647801D01*
X112662960Y-79641040D01*
X112683636Y-79640546D01*
X112741474Y-79635425D01*
X112773645Y-79622631D01*
X112776000Y-79617455D01*
X112794702Y-79596969D01*
X112810636Y-79594364D01*
X112840403Y-79585360D01*
X112835120Y-79555503D01*
X112800394Y-79507773D01*
X112753119Y-79469553D01*
X112709611Y-79455819D01*
X112661579Y-79437149D01*
X112637454Y-79409637D01*
X112608568Y-79373068D01*
X112588919Y-79363455D01*
X112556865Y-79350458D01*
X112506120Y-79318049D01*
X112489416Y-79305728D01*
X112433241Y-79269022D01*
X112387169Y-79249157D01*
X112378677Y-79248000D01*
X112337238Y-79232645D01*
X112268781Y-79189318D01*
X112179507Y-79122130D01*
X112138481Y-79088769D01*
X112102954Y-79065591D01*
X112044593Y-79032947D01*
X112021482Y-79020908D01*
X111957810Y-78983841D01*
X111909422Y-78947695D01*
X111900157Y-78938215D01*
X111866734Y-78914521D01*
X111848522Y-78915557D01*
X111819463Y-78910106D01*
X111785294Y-78881086D01*
X111750221Y-78851358D01*
X111727859Y-78849111D01*
X111704731Y-78843041D01*
X111663637Y-78809795D01*
X111637840Y-78783299D01*
X111585088Y-78731176D01*
X111551932Y-78705364D01*
X102708363Y-78705364D01*
X102696818Y-78716910D01*
X102685272Y-78705364D01*
X102696818Y-78693819D01*
X102708363Y-78705364D01*
X111551932Y-78705364D01*
X111538016Y-78694531D01*
X111523318Y-78686879D01*
X111489249Y-78663436D01*
X111482909Y-78648361D01*
X111463442Y-78604348D01*
X111417900Y-78565795D01*
X111365567Y-78546829D01*
X111346077Y-78548134D01*
X111310735Y-78549329D01*
X111298789Y-78519432D01*
X111298182Y-78500239D01*
X111287036Y-78452131D01*
X111257772Y-78439708D01*
X111214935Y-78423611D01*
X111158923Y-78383614D01*
X111102974Y-78331898D01*
X111060325Y-78280642D01*
X111044182Y-78243167D01*
X111031701Y-78217010D01*
X110997886Y-78220491D01*
X110953007Y-78219136D01*
X110937688Y-78198956D01*
X110910383Y-78167315D01*
X110894313Y-78162728D01*
X110865322Y-78143405D01*
X110852764Y-78116546D01*
X110821745Y-78077517D01*
X110790062Y-78070364D01*
X110742589Y-78054180D01*
X110687695Y-78013982D01*
X110674382Y-78000722D01*
X110609001Y-77944853D01*
X110535099Y-77900274D01*
X110526572Y-77896503D01*
X110473442Y-77866243D01*
X110445212Y-77834453D01*
X110443818Y-77827600D01*
X110425328Y-77797257D01*
X110409182Y-77793273D01*
X110378568Y-77774790D01*
X110374545Y-77758637D01*
X110355146Y-77730464D01*
X110326823Y-77724000D01*
X110278399Y-77710439D01*
X110218020Y-77676801D01*
X110203416Y-77666273D01*
X110147588Y-77629602D01*
X110102240Y-77609721D01*
X110093915Y-77608546D01*
X110049765Y-77595362D01*
X110015277Y-77574644D01*
X109978422Y-77553875D01*
X109931650Y-77543836D01*
X109867735Y-77545086D01*
X109779452Y-77558187D01*
X109659575Y-77583698D01*
X109545525Y-77611081D01*
X109423484Y-77640411D01*
X109306198Y-77667194D01*
X109206997Y-77688472D01*
X109139206Y-77701285D01*
X109139182Y-77701288D01*
X109047999Y-77716212D01*
X108942080Y-77734093D01*
X108885182Y-77743931D01*
X108794761Y-77757252D01*
X108680024Y-77770703D01*
X108562764Y-77781785D01*
X108538818Y-77783654D01*
X108349340Y-77798335D01*
X108168236Y-77813428D01*
X108005675Y-77828031D01*
X107871827Y-77841241D01*
X107799909Y-77849266D01*
X107746430Y-77848342D01*
X107716255Y-77834603D01*
X107685296Y-77824553D01*
X107656755Y-77835742D01*
X107615866Y-77846759D01*
X107540508Y-77857702D01*
X107442377Y-77867130D01*
X107358895Y-77872438D01*
X107239431Y-77879268D01*
X107122233Y-77887502D01*
X107024015Y-77895897D01*
X106979667Y-77900677D01*
X106903735Y-77906564D01*
X106787995Y-77910898D01*
X106638792Y-77913749D01*
X106462472Y-77915187D01*
X106265379Y-77915282D01*
X106053860Y-77914103D01*
X105834259Y-77911722D01*
X105612922Y-77908207D01*
X105396194Y-77903628D01*
X105190420Y-77898056D01*
X105001946Y-77891560D01*
X104837117Y-77884211D01*
X104702278Y-77876079D01*
X104694182Y-77875486D01*
X104612087Y-77868610D01*
X104508204Y-77858797D01*
X104393867Y-77847252D01*
X104280414Y-77835180D01*
X104179179Y-77823787D01*
X104101499Y-77814278D01*
X104059182Y-77807957D01*
X104018016Y-77801763D01*
X103942536Y-77792271D01*
X103844370Y-77780889D01*
X103759000Y-77771551D01*
X103623996Y-77756011D01*
X103476253Y-77737173D01*
X103339525Y-77718129D01*
X103285636Y-77709957D01*
X103177878Y-77693586D01*
X103076314Y-77679182D01*
X102997136Y-77669004D01*
X102973909Y-77666480D01*
X102930962Y-77661473D01*
X102878130Y-77653388D01*
X102808452Y-77640914D01*
X102714964Y-77622739D01*
X102590703Y-77597553D01*
X102428707Y-77564043D01*
X102416797Y-77561565D01*
X102351178Y-77546098D01*
X102257607Y-77521794D01*
X102152409Y-77492944D01*
X102110400Y-77480997D01*
X102015862Y-77455592D01*
X101936659Y-77437617D01*
X101884136Y-77429485D01*
X101870876Y-77430033D01*
X101829862Y-77430840D01*
X101773182Y-77419287D01*
X101716826Y-77408436D01*
X101631237Y-77398521D01*
X101533351Y-77391435D01*
X101517010Y-77390661D01*
X101396395Y-77380024D01*
X101300327Y-77360796D01*
X101255579Y-77344005D01*
X101198243Y-77320502D01*
X101161010Y-77324103D01*
X101148068Y-77332832D01*
X101120714Y-77347631D01*
X101115091Y-77334282D01*
X101096434Y-77311306D01*
X101080454Y-77308364D01*
X101049662Y-77315458D01*
G36*
X117676671Y-68723135D02*
X117678567Y-68768152D01*
X117695439Y-68834153D01*
X117722317Y-68953812D01*
X117741281Y-69099997D01*
X117748895Y-69221049D01*
X117757682Y-69291649D01*
X117780570Y-69326700D01*
X117792500Y-69332287D01*
X117823550Y-69361651D01*
X117832909Y-69424375D01*
X117840119Y-69482424D01*
X117863897Y-69503281D01*
X117869286Y-69503637D01*
X117894948Y-69517341D01*
X117899204Y-69564168D01*
X117898379Y-69573073D01*
X117906384Y-69640047D01*
X117950393Y-69705281D01*
X117954366Y-69709545D01*
X118006619Y-69790394D01*
X118017636Y-69848651D01*
X118027142Y-69903852D01*
X118050003Y-69933143D01*
X118075225Y-69962243D01*
X118095647Y-70017904D01*
X118098168Y-70029775D01*
X118121786Y-70106203D01*
X118156990Y-70174387D01*
X118158165Y-70176058D01*
X118188486Y-70222409D01*
X118202284Y-70250944D01*
X118202363Y-70251883D01*
X118216944Y-70276586D01*
X118247257Y-70310531D01*
X118282584Y-70364466D01*
X118306815Y-70433786D01*
X118307554Y-70437531D01*
X118326173Y-70493596D01*
X118351661Y-70519260D01*
X118355024Y-70519637D01*
X118383944Y-70537974D01*
X118387091Y-70551850D01*
X118402696Y-70588687D01*
X118440644Y-70634790D01*
X118444419Y-70638440D01*
X118483658Y-70683375D01*
X118501978Y-70719525D01*
X118502146Y-70721682D01*
X118521257Y-70746932D01*
X118538834Y-70750546D01*
X118566217Y-70767568D01*
X118568052Y-70804504D01*
X118577885Y-70859882D01*
X118611946Y-70909511D01*
X118656618Y-70934744D01*
X118663544Y-70935273D01*
X118684388Y-70952796D01*
X118684643Y-70964137D01*
X118688284Y-71009650D01*
X118695176Y-71033410D01*
X118714466Y-71087881D01*
X118721184Y-71108455D01*
X118750097Y-71134603D01*
X118793150Y-71143091D01*
X118836559Y-71149491D01*
X118845164Y-71175204D01*
X118842218Y-71189273D01*
X118838646Y-71226324D01*
X118845298Y-71235720D01*
X118863503Y-71254749D01*
X118891686Y-71302420D01*
X118904578Y-71328084D01*
X118937819Y-71384078D01*
X118969617Y-71416742D01*
X118979624Y-71420182D01*
X119003280Y-71440284D01*
X119010545Y-71480359D01*
X119031269Y-71545097D01*
X119068272Y-71585944D01*
X119108827Y-71626918D01*
X119125996Y-71662281D01*
X119126000Y-71662637D01*
X119142743Y-71697785D01*
X119183076Y-71738815D01*
X119183727Y-71739330D01*
X119223793Y-71774789D01*
X119241416Y-71798191D01*
X119241454Y-71798733D01*
X119257460Y-71826495D01*
X119293830Y-71864288D01*
X119333095Y-71895661D01*
X119354406Y-71905091D01*
X119374733Y-71924661D01*
X119389482Y-71962819D01*
X119408024Y-72006066D01*
X119426622Y-72020546D01*
X119446457Y-72039366D01*
X119449272Y-72056832D01*
X119469834Y-72110787D01*
X119521493Y-72151719D01*
X119554815Y-72162690D01*
X119591922Y-72189831D01*
X119599363Y-72228535D01*
X119618782Y-72286919D01*
X119672948Y-72356776D01*
X119685954Y-72369835D01*
X119735115Y-72421990D01*
X119766490Y-72463819D01*
X119772545Y-72478850D01*
X119790534Y-72509064D01*
X119813868Y-72525946D01*
X119856629Y-72563166D01*
X119884301Y-72602453D01*
X119926570Y-72651191D01*
X119981523Y-72686994D01*
X120028496Y-72713533D01*
X120049553Y-72736788D01*
X120049636Y-72737851D01*
X120064464Y-72782155D01*
X120102511Y-72846212D01*
X120154122Y-72917339D01*
X120209642Y-72982853D01*
X120259415Y-73030072D01*
X120283172Y-73044606D01*
X120330038Y-73070893D01*
X120349815Y-73099062D01*
X120349818Y-73099336D01*
X120365467Y-73133231D01*
X120404776Y-73181822D01*
X120456292Y-73234029D01*
X120508557Y-73278774D01*
X120550119Y-73304979D01*
X120564852Y-73307301D01*
X120591812Y-73319497D01*
X120619201Y-73361686D01*
X120620095Y-73363761D01*
X120659206Y-73418913D01*
X120706686Y-73451787D01*
X120750227Y-73477937D01*
X120765853Y-73503565D01*
X120784580Y-73544253D01*
X120829972Y-73591500D01*
X120887180Y-73631636D01*
X120921318Y-73646716D01*
X120961683Y-73670315D01*
X120973272Y-73692291D01*
X120991660Y-73723437D01*
X121031000Y-73752364D01*
X121073186Y-73784750D01*
X121088727Y-73813993D01*
X121107985Y-73838925D01*
X121134909Y-73844728D01*
X121172433Y-73854278D01*
X121181091Y-73867529D01*
X121199006Y-73892414D01*
X121244352Y-73929202D01*
X121271623Y-73947481D01*
X121329909Y-73992170D01*
X121369870Y-74037263D01*
X121377195Y-74052015D01*
X121397387Y-74084012D01*
X121414202Y-74085821D01*
X121450958Y-74084372D01*
X121502556Y-74102221D01*
X121549755Y-74130161D01*
X121573312Y-74158989D01*
X121573636Y-74162092D01*
X121588164Y-74189012D01*
X121596727Y-74191091D01*
X121617264Y-74209772D01*
X121619818Y-74225418D01*
X121639232Y-74255786D01*
X121687251Y-74287445D01*
X121700636Y-74293512D01*
X121752860Y-74321117D01*
X121780256Y-74346886D01*
X121781454Y-74351549D01*
X121800016Y-74373360D01*
X121814441Y-74375819D01*
X121855255Y-74390065D01*
X121892159Y-74422441D01*
X121909833Y-74457401D01*
X121907304Y-74470044D01*
X121912746Y-74488936D01*
X121925579Y-74491273D01*
X121969658Y-74500486D01*
X122022528Y-74522235D01*
X122065832Y-74547681D01*
X122081456Y-74566319D01*
X122100416Y-74581708D01*
X122116272Y-74583637D01*
X122147041Y-74593100D01*
X122150909Y-74601091D01*
X122169791Y-74621271D01*
X122215858Y-74647231D01*
X122221906Y-74649972D01*
X122279007Y-74687525D01*
X122316766Y-74733770D01*
X122316816Y-74733880D01*
X122364207Y-74789857D01*
X122437371Y-74827856D01*
X122496803Y-74837637D01*
X122539448Y-74856320D01*
X122553278Y-74878046D01*
X122579305Y-74912827D01*
X122631714Y-74957552D01*
X122670289Y-74984075D01*
X122728583Y-75024453D01*
X122766350Y-75057566D01*
X122774363Y-75070666D01*
X122793811Y-75087451D01*
X122822707Y-75091637D01*
X122868805Y-75111434D01*
X122883127Y-75137819D01*
X122910900Y-75175398D01*
X122937880Y-75184000D01*
X122981954Y-75202558D01*
X123005272Y-75230182D01*
X123037052Y-75266897D01*
X123060683Y-75276364D01*
X123095596Y-75290677D01*
X123147359Y-75326710D01*
X123169553Y-75345268D01*
X123225958Y-75387550D01*
X123274993Y-75412086D01*
X123288136Y-75414541D01*
X123322422Y-75425250D01*
X123328545Y-75436917D01*
X123347434Y-75459981D01*
X123394317Y-75489750D01*
X123409363Y-75497275D01*
X123461036Y-75525695D01*
X123488712Y-75548512D01*
X123490182Y-75552390D01*
X123509922Y-75569293D01*
X123559377Y-75591496D01*
X123581340Y-75599239D01*
X123641388Y-75625192D01*
X123679754Y-75653161D01*
X123684525Y-75660662D01*
X123714508Y-75685622D01*
X123749230Y-75692514D01*
X123805240Y-75706913D01*
X123859636Y-75738182D01*
X123908933Y-75770249D01*
X123946227Y-75783851D01*
X123969186Y-75801569D01*
X123969318Y-75813228D01*
X123985524Y-75835903D01*
X124037785Y-75849217D01*
X124039751Y-75849414D01*
X124102791Y-75867233D01*
X124136499Y-75910812D01*
X124137316Y-75912914D01*
X124171052Y-75957824D01*
X124204065Y-75969091D01*
X124247928Y-75978721D01*
X124262629Y-75990406D01*
X124292658Y-76010040D01*
X124345911Y-76027119D01*
X124405210Y-76051993D01*
X124443564Y-76086622D01*
X124472898Y-76121600D01*
X124490186Y-76130728D01*
X124519073Y-76143616D01*
X124567867Y-76175778D01*
X124584802Y-76188344D01*
X124634679Y-76221113D01*
X124668644Y-76233811D01*
X124674109Y-76232194D01*
X124698964Y-76236349D01*
X124745239Y-76263052D01*
X124766617Y-76278487D01*
X124830573Y-76316730D01*
X124891989Y-76337372D01*
X124905317Y-76338546D01*
X124955240Y-76346041D01*
X124978642Y-76360175D01*
X125011070Y-76387626D01*
X125067494Y-76418973D01*
X125127819Y-76444365D01*
X125170028Y-76454000D01*
X125209110Y-76466987D01*
X125264723Y-76498187D01*
X125318822Y-76535961D01*
X125353357Y-76568667D01*
X125356697Y-76574394D01*
X125383155Y-76589841D01*
X125406181Y-76592546D01*
X125447999Y-76608411D01*
X125460571Y-76625390D01*
X125490589Y-76647983D01*
X125518634Y-76646346D01*
X125571930Y-76653379D01*
X125608402Y-76678766D01*
X125656507Y-76718230D01*
X125691355Y-76737903D01*
X125724362Y-76762037D01*
X125730000Y-76776548D01*
X125749057Y-76796811D01*
X125770409Y-76800506D01*
X125819098Y-76810975D01*
X125876957Y-76835143D01*
X125932890Y-76859497D01*
X125974541Y-76869637D01*
X125974561Y-76869637D01*
X126008741Y-76887305D01*
X126043850Y-76927364D01*
X126077687Y-76968605D01*
X126104241Y-76985091D01*
X126136669Y-76998230D01*
X126183854Y-77029972D01*
X126185517Y-77031273D01*
X126248181Y-77064721D01*
X126308737Y-77077455D01*
X126369397Y-77089430D01*
X126407883Y-77112091D01*
X126458079Y-77141110D01*
X126488988Y-77146728D01*
X126533876Y-77156971D01*
X126549727Y-77169819D01*
X126582296Y-77189216D01*
X126608817Y-77192910D01*
X126645515Y-77206854D01*
X126653636Y-77225516D01*
X126675263Y-77251766D01*
X126734365Y-77271578D01*
X126746000Y-77273728D01*
X126803710Y-77288125D01*
X126835931Y-77305186D01*
X126838363Y-77310394D01*
X126857492Y-77328140D01*
X126879663Y-77331455D01*
X126925272Y-77341586D01*
X126989412Y-77366928D01*
X127011545Y-77377637D01*
X127080414Y-77406703D01*
X127141423Y-77422727D01*
X127154973Y-77423819D01*
X127197722Y-77436788D01*
X127207818Y-77458455D01*
X127226931Y-77486904D01*
X127252128Y-77493091D01*
X127304045Y-77503622D01*
X127361810Y-77527419D01*
X127447311Y-77569360D01*
X127535443Y-77607841D01*
X127613162Y-77637619D01*
X127667426Y-77653451D01*
X127678552Y-77654728D01*
X127718901Y-77669063D01*
X127728103Y-77679015D01*
X127756087Y-77701249D01*
X127812929Y-77734390D01*
X127884849Y-77771607D01*
X127958066Y-77806064D01*
X128018801Y-77830927D01*
X128051614Y-77839455D01*
X128087699Y-77852735D01*
X128136646Y-77884768D01*
X128137755Y-77885637D01*
X128187977Y-77918102D01*
X128227093Y-77931911D01*
X128227460Y-77931915D01*
X128264305Y-77941875D01*
X128325702Y-77967351D01*
X128372050Y-77989643D01*
X128443104Y-78022069D01*
X128502614Y-78042974D01*
X128526550Y-78047273D01*
X128569331Y-78059167D01*
X128582106Y-78070976D01*
X128615013Y-78090558D01*
X128623877Y-78090364D01*
X128663361Y-78095491D01*
X128716003Y-78112843D01*
X128773635Y-78132304D01*
X128814139Y-78139637D01*
X128843932Y-78149475D01*
X128847272Y-78157091D01*
X128867273Y-78179662D01*
X128916597Y-78204702D01*
X128979226Y-78225909D01*
X129039142Y-78236981D01*
X129051466Y-78237430D01*
X129106156Y-78243446D01*
X129135909Y-78254968D01*
X129173304Y-78271978D01*
X129231814Y-78288413D01*
X129234045Y-78288896D01*
X129284928Y-78304954D01*
X129308831Y-78322693D01*
X129309091Y-78324364D01*
X129320275Y-78338782D01*
X129358469Y-78353270D01*
X129430638Y-78369951D01*
X129505160Y-78384077D01*
X129568012Y-78404089D01*
X129610887Y-78429735D01*
X129661516Y-78455189D01*
X129709971Y-78462910D01*
X129767260Y-78478822D01*
X129790852Y-78512797D01*
X129806485Y-78545521D01*
X129818857Y-78536674D01*
X129824019Y-78524342D01*
X129856819Y-78494332D01*
X129910586Y-78487672D01*
X129966190Y-78504797D01*
X129986974Y-78520637D01*
X130029418Y-78549230D01*
X130053278Y-78555273D01*
X130098041Y-78568610D01*
X130106882Y-78575017D01*
X130137516Y-78590017D01*
X130201407Y-78613808D01*
X130287434Y-78642391D01*
X130336636Y-78657643D01*
X130435071Y-78687631D01*
X130522546Y-78714643D01*
X130585482Y-78734472D01*
X130602182Y-78739931D01*
X130671626Y-78760425D01*
X130723409Y-78773200D01*
X130769376Y-78790072D01*
X130786909Y-78808988D01*
X130803875Y-78821261D01*
X130821839Y-78817511D01*
X130868337Y-78819038D01*
X130887702Y-78829778D01*
X130926127Y-78845724D01*
X130994386Y-78860996D01*
X131061307Y-78870362D01*
X131137969Y-78881136D01*
X131194376Y-78894216D01*
X131216170Y-78905001D01*
X131245389Y-78918407D01*
X131300273Y-78924667D01*
X131306454Y-78924728D01*
X131363487Y-78930949D01*
X131397540Y-78946100D01*
X131398818Y-78947819D01*
X131430748Y-78965897D01*
X131467756Y-78970910D01*
X131519084Y-78975647D01*
X131601343Y-78988226D01*
X131702094Y-79006194D01*
X131808897Y-79027102D01*
X131909311Y-79048499D01*
X131990896Y-79067933D01*
X132041213Y-79082954D01*
X132045363Y-79084706D01*
X132105951Y-79106618D01*
X132149272Y-79117825D01*
X132194153Y-79127223D01*
X132272843Y-79143881D01*
X132373994Y-79165391D01*
X132479098Y-79187813D01*
X132587552Y-79209492D01*
X132681037Y-79225399D01*
X132749496Y-79234008D01*
X132782716Y-79233857D01*
X132819738Y-79236937D01*
X132829481Y-79246426D01*
X132863077Y-79267412D01*
X132888041Y-79271091D01*
X132940736Y-79280032D01*
X132996360Y-79298863D01*
X133057270Y-79315523D01*
X133140473Y-79327193D01*
X133188363Y-79330113D01*
X133309484Y-79336151D01*
X133425954Y-79346740D01*
X133526269Y-79360427D01*
X133598926Y-79375756D01*
X133624736Y-79385286D01*
X133666471Y-79397384D01*
X133738601Y-79409170D01*
X133824134Y-79417970D01*
X133906681Y-79424167D01*
X133970425Y-79428964D01*
X134001970Y-79431353D01*
X134002318Y-79431380D01*
X134018467Y-79451142D01*
X134019622Y-79461591D01*
X134038424Y-79479708D01*
X134097150Y-79487452D01*
X134147037Y-79487560D01*
X134219496Y-79489405D01*
X134271258Y-79497221D01*
X134287193Y-79505254D01*
X134312323Y-79517156D01*
X134317421Y-79515027D01*
X134346541Y-79514056D01*
X134409761Y-79520562D01*
X134495842Y-79533241D01*
X134540961Y-79540955D01*
X134641192Y-79557606D01*
X134730951Y-79570346D01*
X134795579Y-79577174D01*
X134810500Y-79577801D01*
X134856604Y-79583794D01*
X134874000Y-79596748D01*
X134893908Y-79609931D01*
X134937500Y-79614028D01*
X135006291Y-79616807D01*
X135081818Y-79625634D01*
X135221106Y-79647310D01*
X135326134Y-79661452D01*
X135392796Y-79667550D01*
X135414309Y-79666794D01*
X135451467Y-79670602D01*
X135472036Y-79677996D01*
X135519954Y-79693878D01*
X135587806Y-79705270D01*
X135685171Y-79713411D01*
X135781617Y-79718062D01*
X135869755Y-79719412D01*
X135926623Y-79712755D01*
X135966883Y-79694868D01*
X135996397Y-79670854D01*
X136039800Y-79634359D01*
X136068633Y-79616732D01*
X136070144Y-79616474D01*
X136095858Y-79604447D01*
X136150132Y-79573305D01*
X136222735Y-79528994D01*
X136247909Y-79513169D01*
X136335140Y-79459206D01*
X136417998Y-79410078D01*
X136480642Y-79375143D01*
X136488133Y-79371293D01*
X136555674Y-79328626D01*
X136626080Y-79271627D01*
X136642382Y-79256079D01*
X136701089Y-79206416D01*
X136758015Y-79172181D01*
X136774488Y-79166251D01*
X136827976Y-79135073D01*
X136854760Y-79099790D01*
X136891131Y-79054191D01*
X136948412Y-79012111D01*
X136955793Y-79008173D01*
X137026602Y-78969575D01*
X137091085Y-78930608D01*
X137092818Y-78929471D01*
X137234907Y-78833777D01*
X137337717Y-78759660D01*
X137400863Y-78707408D01*
X137423189Y-78680087D01*
X137450010Y-78650839D01*
X137463097Y-78647637D01*
X137499179Y-78633033D01*
X137559809Y-78593939D01*
X137635826Y-78537432D01*
X137718069Y-78470589D01*
X137797379Y-78400486D01*
X137852727Y-78346639D01*
X137923088Y-78282145D01*
X137996903Y-78226798D01*
X138043227Y-78200056D01*
X138097464Y-78168217D01*
X138127618Y-78136727D01*
X138129818Y-78128564D01*
X138149213Y-78097679D01*
X138181772Y-78080502D01*
X138200468Y-78070364D01*
X129355272Y-78070364D01*
X129346824Y-78089370D01*
X129339879Y-78085758D01*
X129337115Y-78058354D01*
X129339879Y-78054970D01*
X129353606Y-78058140D01*
X129355272Y-78070364D01*
X138200468Y-78070364D01*
X138225845Y-78056604D01*
X138287741Y-78010787D01*
X138342420Y-77963491D01*
X138404048Y-77910946D01*
X138456520Y-77874436D01*
X138485432Y-77862546D01*
X138519152Y-77844253D01*
X138556693Y-77799439D01*
X138561467Y-77791678D01*
X138611124Y-77729845D01*
X138674582Y-77676649D01*
X138678227Y-77674340D01*
X138726950Y-77636278D01*
X138752265Y-77601090D01*
X138753272Y-77595117D01*
X138770024Y-77565680D01*
X138783033Y-77562364D01*
X138811456Y-77546565D01*
X138864087Y-77503850D01*
X138933817Y-77441241D01*
X139013534Y-77365761D01*
X139096127Y-77284433D01*
X139174486Y-77204279D01*
X139241500Y-77132321D01*
X139290058Y-77075583D01*
X139313048Y-77041086D01*
X139313878Y-77038108D01*
X139329533Y-76985406D01*
X139338713Y-76967184D01*
X139339562Y-76950835D01*
X139310205Y-76944518D01*
X139243542Y-76947012D01*
X139228363Y-76948193D01*
X139149922Y-76951440D01*
X139109495Y-76944228D01*
X139099636Y-76928841D01*
X139078213Y-76906920D01*
X139018763Y-76896879D01*
X139013045Y-76896682D01*
X138942193Y-76893350D01*
X138884617Y-76888341D01*
X138880272Y-76887760D01*
X138844979Y-76893449D01*
X138841110Y-76922614D01*
X138839392Y-76948159D01*
X138815012Y-76957071D01*
X138756974Y-76953051D01*
X138752344Y-76952499D01*
X138685648Y-76940355D01*
X138637452Y-76924321D01*
X138629870Y-76919677D01*
X138600340Y-76914255D01*
X138529778Y-76909705D01*
X138423324Y-76906144D01*
X138286122Y-76903688D01*
X138123314Y-76902453D01*
X137940042Y-76902557D01*
X137887363Y-76902832D01*
X137698985Y-76903360D01*
X137515823Y-76902688D01*
X137345654Y-76900934D01*
X137196249Y-76898214D01*
X137075382Y-76894646D01*
X136990828Y-76890348D01*
X136975272Y-76889081D01*
X136809017Y-76873605D01*
X136681955Y-76861580D01*
X136587283Y-76852325D01*
X136518198Y-76845162D01*
X136467896Y-76839408D01*
X136432636Y-76834813D01*
X136379896Y-76828152D01*
X136295210Y-76818209D01*
X136192553Y-76806604D01*
X136132454Y-76799987D01*
X136003882Y-76784642D01*
X135864317Y-76765886D01*
X135738353Y-76747076D01*
X135705272Y-76741651D01*
X135599541Y-76724460D01*
X135497099Y-76708943D01*
X135417068Y-76697974D01*
X135405091Y-76696539D01*
X135321529Y-76685835D01*
X135220858Y-76671444D01*
X135162636Y-76662474D01*
X135074365Y-76649707D01*
X134960515Y-76635063D01*
X134841476Y-76621125D01*
X134804727Y-76617142D01*
X134696483Y-76604353D01*
X134594564Y-76589998D01*
X134515382Y-76576472D01*
X134493000Y-76571649D01*
X134424330Y-76557458D01*
X134329178Y-76540766D01*
X134226869Y-76524939D01*
X134215909Y-76523382D01*
X134116307Y-76509092D01*
X134023857Y-76495350D01*
X133956618Y-76484846D01*
X133950363Y-76483807D01*
X133885620Y-76473270D01*
X133837333Y-76466004D01*
X133834909Y-76465681D01*
X133794413Y-76458598D01*
X133725821Y-76445015D01*
X133666090Y-76432553D01*
X133588766Y-76418965D01*
X133527518Y-76413390D01*
X133501554Y-76415607D01*
X133460272Y-76414294D01*
X133412258Y-76396675D01*
X133352981Y-76377814D01*
X133273514Y-76366497D01*
X133241976Y-76365157D01*
X133154920Y-76358311D01*
X133052541Y-76341784D01*
X132993012Y-76328292D01*
X132910483Y-76308886D01*
X132839315Y-76295841D01*
X132804015Y-76292364D01*
X132744097Y-76283671D01*
X132687639Y-76266313D01*
X132616786Y-76245554D01*
X132541818Y-76233154D01*
X132466160Y-76222621D01*
X132379332Y-76205359D01*
X132358996Y-76200493D01*
X132280427Y-76187660D01*
X132208571Y-76186762D01*
X132191587Y-76189304D01*
X132139839Y-76192463D01*
X132126182Y-76175704D01*
X132107985Y-76158291D01*
X132050992Y-76158058D01*
X132033818Y-76160126D01*
X131976312Y-76163887D01*
X131944011Y-76158329D01*
X131941454Y-76154458D01*
X131921050Y-76145902D01*
X131869528Y-76145271D01*
X131840554Y-76147773D01*
X131768807Y-76149670D01*
X131727474Y-76137590D01*
X131723737Y-76133392D01*
X131690227Y-76112885D01*
X131655304Y-76107637D01*
X131607480Y-76101638D01*
X131587679Y-76092528D01*
X131559004Y-76084799D01*
X131496185Y-76077635D01*
X131411254Y-76072295D01*
X131384790Y-76071287D01*
X131294135Y-76065513D01*
X131220580Y-76055640D01*
X131176970Y-76043544D01*
X131172068Y-76040214D01*
X131134066Y-76023900D01*
X131072219Y-76015556D01*
X131058657Y-76015273D01*
X130988013Y-76005853D01*
X130956896Y-75980637D01*
X130922600Y-75954390D01*
X130853398Y-75946000D01*
X130781908Y-75940147D01*
X130723700Y-75925771D01*
X130717323Y-75922909D01*
X130641758Y-75886171D01*
X130582414Y-75862369D01*
X130515517Y-75842782D01*
X130463636Y-75829856D01*
X130389920Y-75809698D01*
X130334358Y-75790380D01*
X130314700Y-75780150D01*
X130277582Y-75766698D01*
X130221182Y-75761273D01*
X130163589Y-75755502D01*
X130127663Y-75742046D01*
X130096070Y-75728257D01*
X130031596Y-75708675D01*
X129946570Y-75686942D01*
X129921000Y-75681022D01*
X129823484Y-75657125D01*
X129734399Y-75632122D01*
X129670684Y-75610827D01*
X129663510Y-75607885D01*
X129591196Y-75585435D01*
X129524330Y-75576546D01*
X129455368Y-75563750D01*
X129406552Y-75540572D01*
X129360833Y-75518738D01*
X129331691Y-75519122D01*
X129298825Y-75519810D01*
X129237422Y-75506830D01*
X129175868Y-75487984D01*
X129079209Y-75458918D01*
X128977872Y-75434905D01*
X128928091Y-75426147D01*
X128843466Y-75407994D01*
X128765651Y-75381227D01*
X128741779Y-75369509D01*
X128674142Y-75340939D01*
X128589359Y-75317736D01*
X128559815Y-75312384D01*
X128482733Y-75298480D01*
X128417983Y-75282857D01*
X128399763Y-75276903D01*
X128347479Y-75258995D01*
X128274622Y-75236493D01*
X128246909Y-75228428D01*
X128179797Y-75207308D01*
X128130959Y-75188405D01*
X128119909Y-75182452D01*
X128084353Y-75169331D01*
X128021956Y-75155474D01*
X127992909Y-75150666D01*
X127918294Y-75136774D01*
X127856719Y-75120633D01*
X127842818Y-75115534D01*
X127792813Y-75096408D01*
X127721678Y-75071570D01*
X127692727Y-75061961D01*
X127622164Y-75036844D01*
X127518988Y-74997405D01*
X127392999Y-74947592D01*
X127253998Y-74891357D01*
X127111783Y-74832649D01*
X127032400Y-74799152D01*
X126415030Y-74799152D01*
X126411860Y-74812879D01*
X126399636Y-74814546D01*
X126380630Y-74806097D01*
X126384242Y-74799152D01*
X126411646Y-74796388D01*
X126415030Y-74799152D01*
X127032400Y-74799152D01*
X126976156Y-74775419D01*
X126896091Y-74740848D01*
X126794683Y-74698214D01*
X126688737Y-74656266D01*
X126607454Y-74626321D01*
X126468343Y-74576459D01*
X126324738Y-74521956D01*
X126185307Y-74466399D01*
X126058720Y-74413376D01*
X125953645Y-74366476D01*
X125878752Y-74329287D01*
X125853689Y-74314354D01*
X125798405Y-74281073D01*
X125714435Y-74235499D01*
X125615033Y-74184676D01*
X125549521Y-74152687D01*
X125439417Y-74096243D01*
X125329300Y-74033465D01*
X125235908Y-73974151D01*
X125198909Y-73947465D01*
X125119743Y-73892409D01*
X125016157Y-73828792D01*
X124905754Y-73767200D01*
X124860536Y-73743958D01*
X124771353Y-73698022D01*
X124699100Y-73657947D01*
X124652964Y-73628998D01*
X124641173Y-73618287D01*
X124631154Y-73604806D01*
X124606330Y-73586482D01*
X124560008Y-73559395D01*
X124485494Y-73519624D01*
X124379182Y-73464826D01*
X124308505Y-73423872D01*
X124217103Y-73364259D01*
X124120314Y-73296176D01*
X124079000Y-73265422D01*
X123986263Y-73197686D01*
X123893508Y-73134517D01*
X123815372Y-73085713D01*
X123787882Y-73070535D01*
X123709953Y-73026416D01*
X123637662Y-72978822D01*
X123637659Y-72978819D01*
X123143818Y-72978819D01*
X123132272Y-72990364D01*
X123120727Y-72978819D01*
X123132272Y-72967273D01*
X123143818Y-72978819D01*
X123637659Y-72978819D01*
X123614701Y-72961330D01*
X123606207Y-72955728D01*
X123097636Y-72955728D01*
X123086091Y-72967273D01*
X123074545Y-72955728D01*
X123086091Y-72944182D01*
X123097636Y-72955728D01*
X123606207Y-72955728D01*
X123550528Y-72919008D01*
X123469685Y-72878432D01*
X123441625Y-72867075D01*
X123289066Y-72796351D01*
X123123077Y-72694780D01*
X122955881Y-72569919D01*
X122941107Y-72557727D01*
X122851652Y-72491743D01*
X122752708Y-72431576D01*
X122666126Y-72390437D01*
X122578879Y-72352890D01*
X122497304Y-72309678D01*
X122456479Y-72282860D01*
X122386790Y-72237086D01*
X122303181Y-72191672D01*
X122276121Y-72179012D01*
X122205853Y-72142507D01*
X122118979Y-72089273D01*
X122022506Y-72024601D01*
X121923441Y-71953781D01*
X121828790Y-71882105D01*
X121745560Y-71814865D01*
X121680759Y-71757350D01*
X121641392Y-71714852D01*
X121633527Y-71693772D01*
X121626425Y-71676796D01*
X121610620Y-71674182D01*
X121575821Y-71657320D01*
X121529566Y-71614891D01*
X121511121Y-71593365D01*
X121465966Y-71544264D01*
X121428034Y-71515590D01*
X121417772Y-71512547D01*
X121390915Y-71500710D01*
X121388909Y-71493897D01*
X121369752Y-71475273D01*
X121319239Y-71443497D01*
X121247811Y-71405059D01*
X121238818Y-71400550D01*
X121165396Y-71359679D01*
X121111912Y-71321651D01*
X121088939Y-71294098D01*
X121088727Y-71292199D01*
X121068027Y-71265691D01*
X121020817Y-71258546D01*
X120967961Y-71252075D01*
X120939889Y-71237482D01*
X120914807Y-71217363D01*
X120859288Y-71182060D01*
X120783688Y-71138034D01*
X120754328Y-71121721D01*
X120648877Y-71057291D01*
X120536900Y-70978632D01*
X120442282Y-70902543D01*
X120440626Y-70901069D01*
X120339303Y-70814026D01*
X120223801Y-70720293D01*
X120101380Y-70625200D01*
X119979300Y-70534074D01*
X119864822Y-70452244D01*
X119765206Y-70385038D01*
X119687713Y-70337784D01*
X119645545Y-70317584D01*
X119519516Y-70258357D01*
X119383246Y-70166137D01*
X119288899Y-70086793D01*
X119232680Y-70042263D01*
X119184361Y-70015360D01*
X119168879Y-70011747D01*
X119128396Y-69993312D01*
X119117649Y-69977000D01*
X119094721Y-69946438D01*
X119083259Y-69942364D01*
X119056103Y-69927447D01*
X119008992Y-69889134D01*
X118972853Y-69855638D01*
X118919395Y-69805066D01*
X118862532Y-69754614D01*
X118794505Y-69697865D01*
X118707558Y-69628405D01*
X118593935Y-69539816D01*
X118549388Y-69505387D01*
X118477136Y-69448001D01*
X118421432Y-69400664D01*
X118390616Y-69370605D01*
X118387091Y-69364683D01*
X118369503Y-69344548D01*
X118323809Y-69307857D01*
X118271480Y-69270569D01*
X118207257Y-69221880D01*
X118159993Y-69176794D01*
X118142923Y-69151500D01*
X118121940Y-69117363D01*
X118108444Y-69111091D01*
X118090620Y-69091851D01*
X118086909Y-69067413D01*
X118065983Y-69026454D01*
X118029182Y-69009246D01*
X117985935Y-68990703D01*
X117971454Y-68972106D01*
X117952109Y-68953706D01*
X117925234Y-68949455D01*
X117881658Y-68929244D01*
X117825348Y-68872189D01*
X117796068Y-68834000D01*
X117735597Y-68756059D01*
X117695740Y-68719103D01*
X117676671Y-68723135D01*
X117676671Y-68723135D01*
G37*
X117676671Y-68723135D02*
X117678567Y-68768152D01*
X117695439Y-68834153D01*
X117722317Y-68953812D01*
X117741281Y-69099997D01*
X117748895Y-69221049D01*
X117757682Y-69291649D01*
X117780570Y-69326700D01*
X117792500Y-69332287D01*
X117823550Y-69361651D01*
X117832909Y-69424375D01*
X117840119Y-69482424D01*
X117863897Y-69503281D01*
X117869286Y-69503637D01*
X117894948Y-69517341D01*
X117899204Y-69564168D01*
X117898379Y-69573073D01*
X117906384Y-69640047D01*
X117950393Y-69705281D01*
X117954366Y-69709545D01*
X118006619Y-69790394D01*
X118017636Y-69848651D01*
X118027142Y-69903852D01*
X118050003Y-69933143D01*
X118075225Y-69962243D01*
X118095647Y-70017904D01*
X118098168Y-70029775D01*
X118121786Y-70106203D01*
X118156990Y-70174387D01*
X118158165Y-70176058D01*
X118188486Y-70222409D01*
X118202284Y-70250944D01*
X118202363Y-70251883D01*
X118216944Y-70276586D01*
X118247257Y-70310531D01*
X118282584Y-70364466D01*
X118306815Y-70433786D01*
X118307554Y-70437531D01*
X118326173Y-70493596D01*
X118351661Y-70519260D01*
X118355024Y-70519637D01*
X118383944Y-70537974D01*
X118387091Y-70551850D01*
X118402696Y-70588687D01*
X118440644Y-70634790D01*
X118444419Y-70638440D01*
X118483658Y-70683375D01*
X118501978Y-70719525D01*
X118502146Y-70721682D01*
X118521257Y-70746932D01*
X118538834Y-70750546D01*
X118566217Y-70767568D01*
X118568052Y-70804504D01*
X118577885Y-70859882D01*
X118611946Y-70909511D01*
X118656618Y-70934744D01*
X118663544Y-70935273D01*
X118684388Y-70952796D01*
X118684643Y-70964137D01*
X118688284Y-71009650D01*
X118695176Y-71033410D01*
X118714466Y-71087881D01*
X118721184Y-71108455D01*
X118750097Y-71134603D01*
X118793150Y-71143091D01*
X118836559Y-71149491D01*
X118845164Y-71175204D01*
X118842218Y-71189273D01*
X118838646Y-71226324D01*
X118845298Y-71235720D01*
X118863503Y-71254749D01*
X118891686Y-71302420D01*
X118904578Y-71328084D01*
X118937819Y-71384078D01*
X118969617Y-71416742D01*
X118979624Y-71420182D01*
X119003280Y-71440284D01*
X119010545Y-71480359D01*
X119031269Y-71545097D01*
X119068272Y-71585944D01*
X119108827Y-71626918D01*
X119125996Y-71662281D01*
X119126000Y-71662637D01*
X119142743Y-71697785D01*
X119183076Y-71738815D01*
X119183727Y-71739330D01*
X119223793Y-71774789D01*
X119241416Y-71798191D01*
X119241454Y-71798733D01*
X119257460Y-71826495D01*
X119293830Y-71864288D01*
X119333095Y-71895661D01*
X119354406Y-71905091D01*
X119374733Y-71924661D01*
X119389482Y-71962819D01*
X119408024Y-72006066D01*
X119426622Y-72020546D01*
X119446457Y-72039366D01*
X119449272Y-72056832D01*
X119469834Y-72110787D01*
X119521493Y-72151719D01*
X119554815Y-72162690D01*
X119591922Y-72189831D01*
X119599363Y-72228535D01*
X119618782Y-72286919D01*
X119672948Y-72356776D01*
X119685954Y-72369835D01*
X119735115Y-72421990D01*
X119766490Y-72463819D01*
X119772545Y-72478850D01*
X119790534Y-72509064D01*
X119813868Y-72525946D01*
X119856629Y-72563166D01*
X119884301Y-72602453D01*
X119926570Y-72651191D01*
X119981523Y-72686994D01*
X120028496Y-72713533D01*
X120049553Y-72736788D01*
X120049636Y-72737851D01*
X120064464Y-72782155D01*
X120102511Y-72846212D01*
X120154122Y-72917339D01*
X120209642Y-72982853D01*
X120259415Y-73030072D01*
X120283172Y-73044606D01*
X120330038Y-73070893D01*
X120349815Y-73099062D01*
X120349818Y-73099336D01*
X120365467Y-73133231D01*
X120404776Y-73181822D01*
X120456292Y-73234029D01*
X120508557Y-73278774D01*
X120550119Y-73304979D01*
X120564852Y-73307301D01*
X120591812Y-73319497D01*
X120619201Y-73361686D01*
X120620095Y-73363761D01*
X120659206Y-73418913D01*
X120706686Y-73451787D01*
X120750227Y-73477937D01*
X120765853Y-73503565D01*
X120784580Y-73544253D01*
X120829972Y-73591500D01*
X120887180Y-73631636D01*
X120921318Y-73646716D01*
X120961683Y-73670315D01*
X120973272Y-73692291D01*
X120991660Y-73723437D01*
X121031000Y-73752364D01*
X121073186Y-73784750D01*
X121088727Y-73813993D01*
X121107985Y-73838925D01*
X121134909Y-73844728D01*
X121172433Y-73854278D01*
X121181091Y-73867529D01*
X121199006Y-73892414D01*
X121244352Y-73929202D01*
X121271623Y-73947481D01*
X121329909Y-73992170D01*
X121369870Y-74037263D01*
X121377195Y-74052015D01*
X121397387Y-74084012D01*
X121414202Y-74085821D01*
X121450958Y-74084372D01*
X121502556Y-74102221D01*
X121549755Y-74130161D01*
X121573312Y-74158989D01*
X121573636Y-74162092D01*
X121588164Y-74189012D01*
X121596727Y-74191091D01*
X121617264Y-74209772D01*
X121619818Y-74225418D01*
X121639232Y-74255786D01*
X121687251Y-74287445D01*
X121700636Y-74293512D01*
X121752860Y-74321117D01*
X121780256Y-74346886D01*
X121781454Y-74351549D01*
X121800016Y-74373360D01*
X121814441Y-74375819D01*
X121855255Y-74390065D01*
X121892159Y-74422441D01*
X121909833Y-74457401D01*
X121907304Y-74470044D01*
X121912746Y-74488936D01*
X121925579Y-74491273D01*
X121969658Y-74500486D01*
X122022528Y-74522235D01*
X122065832Y-74547681D01*
X122081456Y-74566319D01*
X122100416Y-74581708D01*
X122116272Y-74583637D01*
X122147041Y-74593100D01*
X122150909Y-74601091D01*
X122169791Y-74621271D01*
X122215858Y-74647231D01*
X122221906Y-74649972D01*
X122279007Y-74687525D01*
X122316766Y-74733770D01*
X122316816Y-74733880D01*
X122364207Y-74789857D01*
X122437371Y-74827856D01*
X122496803Y-74837637D01*
X122539448Y-74856320D01*
X122553278Y-74878046D01*
X122579305Y-74912827D01*
X122631714Y-74957552D01*
X122670289Y-74984075D01*
X122728583Y-75024453D01*
X122766350Y-75057566D01*
X122774363Y-75070666D01*
X122793811Y-75087451D01*
X122822707Y-75091637D01*
X122868805Y-75111434D01*
X122883127Y-75137819D01*
X122910900Y-75175398D01*
X122937880Y-75184000D01*
X122981954Y-75202558D01*
X123005272Y-75230182D01*
X123037052Y-75266897D01*
X123060683Y-75276364D01*
X123095596Y-75290677D01*
X123147359Y-75326710D01*
X123169553Y-75345268D01*
X123225958Y-75387550D01*
X123274993Y-75412086D01*
X123288136Y-75414541D01*
X123322422Y-75425250D01*
X123328545Y-75436917D01*
X123347434Y-75459981D01*
X123394317Y-75489750D01*
X123409363Y-75497275D01*
X123461036Y-75525695D01*
X123488712Y-75548512D01*
X123490182Y-75552390D01*
X123509922Y-75569293D01*
X123559377Y-75591496D01*
X123581340Y-75599239D01*
X123641388Y-75625192D01*
X123679754Y-75653161D01*
X123684525Y-75660662D01*
X123714508Y-75685622D01*
X123749230Y-75692514D01*
X123805240Y-75706913D01*
X123859636Y-75738182D01*
X123908933Y-75770249D01*
X123946227Y-75783851D01*
X123969186Y-75801569D01*
X123969318Y-75813228D01*
X123985524Y-75835903D01*
X124037785Y-75849217D01*
X124039751Y-75849414D01*
X124102791Y-75867233D01*
X124136499Y-75910812D01*
X124137316Y-75912914D01*
X124171052Y-75957824D01*
X124204065Y-75969091D01*
X124247928Y-75978721D01*
X124262629Y-75990406D01*
X124292658Y-76010040D01*
X124345911Y-76027119D01*
X124405210Y-76051993D01*
X124443564Y-76086622D01*
X124472898Y-76121600D01*
X124490186Y-76130728D01*
X124519073Y-76143616D01*
X124567867Y-76175778D01*
X124584802Y-76188344D01*
X124634679Y-76221113D01*
X124668644Y-76233811D01*
X124674109Y-76232194D01*
X124698964Y-76236349D01*
X124745239Y-76263052D01*
X124766617Y-76278487D01*
X124830573Y-76316730D01*
X124891989Y-76337372D01*
X124905317Y-76338546D01*
X124955240Y-76346041D01*
X124978642Y-76360175D01*
X125011070Y-76387626D01*
X125067494Y-76418973D01*
X125127819Y-76444365D01*
X125170028Y-76454000D01*
X125209110Y-76466987D01*
X125264723Y-76498187D01*
X125318822Y-76535961D01*
X125353357Y-76568667D01*
X125356697Y-76574394D01*
X125383155Y-76589841D01*
X125406181Y-76592546D01*
X125447999Y-76608411D01*
X125460571Y-76625390D01*
X125490589Y-76647983D01*
X125518634Y-76646346D01*
X125571930Y-76653379D01*
X125608402Y-76678766D01*
X125656507Y-76718230D01*
X125691355Y-76737903D01*
X125724362Y-76762037D01*
X125730000Y-76776548D01*
X125749057Y-76796811D01*
X125770409Y-76800506D01*
X125819098Y-76810975D01*
X125876957Y-76835143D01*
X125932890Y-76859497D01*
X125974541Y-76869637D01*
X125974561Y-76869637D01*
X126008741Y-76887305D01*
X126043850Y-76927364D01*
X126077687Y-76968605D01*
X126104241Y-76985091D01*
X126136669Y-76998230D01*
X126183854Y-77029972D01*
X126185517Y-77031273D01*
X126248181Y-77064721D01*
X126308737Y-77077455D01*
X126369397Y-77089430D01*
X126407883Y-77112091D01*
X126458079Y-77141110D01*
X126488988Y-77146728D01*
X126533876Y-77156971D01*
X126549727Y-77169819D01*
X126582296Y-77189216D01*
X126608817Y-77192910D01*
X126645515Y-77206854D01*
X126653636Y-77225516D01*
X126675263Y-77251766D01*
X126734365Y-77271578D01*
X126746000Y-77273728D01*
X126803710Y-77288125D01*
X126835931Y-77305186D01*
X126838363Y-77310394D01*
X126857492Y-77328140D01*
X126879663Y-77331455D01*
X126925272Y-77341586D01*
X126989412Y-77366928D01*
X127011545Y-77377637D01*
X127080414Y-77406703D01*
X127141423Y-77422727D01*
X127154973Y-77423819D01*
X127197722Y-77436788D01*
X127207818Y-77458455D01*
X127226931Y-77486904D01*
X127252128Y-77493091D01*
X127304045Y-77503622D01*
X127361810Y-77527419D01*
X127447311Y-77569360D01*
X127535443Y-77607841D01*
X127613162Y-77637619D01*
X127667426Y-77653451D01*
X127678552Y-77654728D01*
X127718901Y-77669063D01*
X127728103Y-77679015D01*
X127756087Y-77701249D01*
X127812929Y-77734390D01*
X127884849Y-77771607D01*
X127958066Y-77806064D01*
X128018801Y-77830927D01*
X128051614Y-77839455D01*
X128087699Y-77852735D01*
X128136646Y-77884768D01*
X128137755Y-77885637D01*
X128187977Y-77918102D01*
X128227093Y-77931911D01*
X128227460Y-77931915D01*
X128264305Y-77941875D01*
X128325702Y-77967351D01*
X128372050Y-77989643D01*
X128443104Y-78022069D01*
X128502614Y-78042974D01*
X128526550Y-78047273D01*
X128569331Y-78059167D01*
X128582106Y-78070976D01*
X128615013Y-78090558D01*
X128623877Y-78090364D01*
X128663361Y-78095491D01*
X128716003Y-78112843D01*
X128773635Y-78132304D01*
X128814139Y-78139637D01*
X128843932Y-78149475D01*
X128847272Y-78157091D01*
X128867273Y-78179662D01*
X128916597Y-78204702D01*
X128979226Y-78225909D01*
X129039142Y-78236981D01*
X129051466Y-78237430D01*
X129106156Y-78243446D01*
X129135909Y-78254968D01*
X129173304Y-78271978D01*
X129231814Y-78288413D01*
X129234045Y-78288896D01*
X129284928Y-78304954D01*
X129308831Y-78322693D01*
X129309091Y-78324364D01*
X129320275Y-78338782D01*
X129358469Y-78353270D01*
X129430638Y-78369951D01*
X129505160Y-78384077D01*
X129568012Y-78404089D01*
X129610887Y-78429735D01*
X129661516Y-78455189D01*
X129709971Y-78462910D01*
X129767260Y-78478822D01*
X129790852Y-78512797D01*
X129806485Y-78545521D01*
X129818857Y-78536674D01*
X129824019Y-78524342D01*
X129856819Y-78494332D01*
X129910586Y-78487672D01*
X129966190Y-78504797D01*
X129986974Y-78520637D01*
X130029418Y-78549230D01*
X130053278Y-78555273D01*
X130098041Y-78568610D01*
X130106882Y-78575017D01*
X130137516Y-78590017D01*
X130201407Y-78613808D01*
X130287434Y-78642391D01*
X130336636Y-78657643D01*
X130435071Y-78687631D01*
X130522546Y-78714643D01*
X130585482Y-78734472D01*
X130602182Y-78739931D01*
X130671626Y-78760425D01*
X130723409Y-78773200D01*
X130769376Y-78790072D01*
X130786909Y-78808988D01*
X130803875Y-78821261D01*
X130821839Y-78817511D01*
X130868337Y-78819038D01*
X130887702Y-78829778D01*
X130926127Y-78845724D01*
X130994386Y-78860996D01*
X131061307Y-78870362D01*
X131137969Y-78881136D01*
X131194376Y-78894216D01*
X131216170Y-78905001D01*
X131245389Y-78918407D01*
X131300273Y-78924667D01*
X131306454Y-78924728D01*
X131363487Y-78930949D01*
X131397540Y-78946100D01*
X131398818Y-78947819D01*
X131430748Y-78965897D01*
X131467756Y-78970910D01*
X131519084Y-78975647D01*
X131601343Y-78988226D01*
X131702094Y-79006194D01*
X131808897Y-79027102D01*
X131909311Y-79048499D01*
X131990896Y-79067933D01*
X132041213Y-79082954D01*
X132045363Y-79084706D01*
X132105951Y-79106618D01*
X132149272Y-79117825D01*
X132194153Y-79127223D01*
X132272843Y-79143881D01*
X132373994Y-79165391D01*
X132479098Y-79187813D01*
X132587552Y-79209492D01*
X132681037Y-79225399D01*
X132749496Y-79234008D01*
X132782716Y-79233857D01*
X132819738Y-79236937D01*
X132829481Y-79246426D01*
X132863077Y-79267412D01*
X132888041Y-79271091D01*
X132940736Y-79280032D01*
X132996360Y-79298863D01*
X133057270Y-79315523D01*
X133140473Y-79327193D01*
X133188363Y-79330113D01*
X133309484Y-79336151D01*
X133425954Y-79346740D01*
X133526269Y-79360427D01*
X133598926Y-79375756D01*
X133624736Y-79385286D01*
X133666471Y-79397384D01*
X133738601Y-79409170D01*
X133824134Y-79417970D01*
X133906681Y-79424167D01*
X133970425Y-79428964D01*
X134001970Y-79431353D01*
X134002318Y-79431380D01*
X134018467Y-79451142D01*
X134019622Y-79461591D01*
X134038424Y-79479708D01*
X134097150Y-79487452D01*
X134147037Y-79487560D01*
X134219496Y-79489405D01*
X134271258Y-79497221D01*
X134287193Y-79505254D01*
X134312323Y-79517156D01*
X134317421Y-79515027D01*
X134346541Y-79514056D01*
X134409761Y-79520562D01*
X134495842Y-79533241D01*
X134540961Y-79540955D01*
X134641192Y-79557606D01*
X134730951Y-79570346D01*
X134795579Y-79577174D01*
X134810500Y-79577801D01*
X134856604Y-79583794D01*
X134874000Y-79596748D01*
X134893908Y-79609931D01*
X134937500Y-79614028D01*
X135006291Y-79616807D01*
X135081818Y-79625634D01*
X135221106Y-79647310D01*
X135326134Y-79661452D01*
X135392796Y-79667550D01*
X135414309Y-79666794D01*
X135451467Y-79670602D01*
X135472036Y-79677996D01*
X135519954Y-79693878D01*
X135587806Y-79705270D01*
X135685171Y-79713411D01*
X135781617Y-79718062D01*
X135869755Y-79719412D01*
X135926623Y-79712755D01*
X135966883Y-79694868D01*
X135996397Y-79670854D01*
X136039800Y-79634359D01*
X136068633Y-79616732D01*
X136070144Y-79616474D01*
X136095858Y-79604447D01*
X136150132Y-79573305D01*
X136222735Y-79528994D01*
X136247909Y-79513169D01*
X136335140Y-79459206D01*
X136417998Y-79410078D01*
X136480642Y-79375143D01*
X136488133Y-79371293D01*
X136555674Y-79328626D01*
X136626080Y-79271627D01*
X136642382Y-79256079D01*
X136701089Y-79206416D01*
X136758015Y-79172181D01*
X136774488Y-79166251D01*
X136827976Y-79135073D01*
X136854760Y-79099790D01*
X136891131Y-79054191D01*
X136948412Y-79012111D01*
X136955793Y-79008173D01*
X137026602Y-78969575D01*
X137091085Y-78930608D01*
X137092818Y-78929471D01*
X137234907Y-78833777D01*
X137337717Y-78759660D01*
X137400863Y-78707408D01*
X137423189Y-78680087D01*
X137450010Y-78650839D01*
X137463097Y-78647637D01*
X137499179Y-78633033D01*
X137559809Y-78593939D01*
X137635826Y-78537432D01*
X137718069Y-78470589D01*
X137797379Y-78400486D01*
X137852727Y-78346639D01*
X137923088Y-78282145D01*
X137996903Y-78226798D01*
X138043227Y-78200056D01*
X138097464Y-78168217D01*
X138127618Y-78136727D01*
X138129818Y-78128564D01*
X138149213Y-78097679D01*
X138181772Y-78080502D01*
X138200468Y-78070364D01*
X129355272Y-78070364D01*
X129346824Y-78089370D01*
X129339879Y-78085758D01*
X129337115Y-78058354D01*
X129339879Y-78054970D01*
X129353606Y-78058140D01*
X129355272Y-78070364D01*
X138200468Y-78070364D01*
X138225845Y-78056604D01*
X138287741Y-78010787D01*
X138342420Y-77963491D01*
X138404048Y-77910946D01*
X138456520Y-77874436D01*
X138485432Y-77862546D01*
X138519152Y-77844253D01*
X138556693Y-77799439D01*
X138561467Y-77791678D01*
X138611124Y-77729845D01*
X138674582Y-77676649D01*
X138678227Y-77674340D01*
X138726950Y-77636278D01*
X138752265Y-77601090D01*
X138753272Y-77595117D01*
X138770024Y-77565680D01*
X138783033Y-77562364D01*
X138811456Y-77546565D01*
X138864087Y-77503850D01*
X138933817Y-77441241D01*
X139013534Y-77365761D01*
X139096127Y-77284433D01*
X139174486Y-77204279D01*
X139241500Y-77132321D01*
X139290058Y-77075583D01*
X139313048Y-77041086D01*
X139313878Y-77038108D01*
X139329533Y-76985406D01*
X139338713Y-76967184D01*
X139339562Y-76950835D01*
X139310205Y-76944518D01*
X139243542Y-76947012D01*
X139228363Y-76948193D01*
X139149922Y-76951440D01*
X139109495Y-76944228D01*
X139099636Y-76928841D01*
X139078213Y-76906920D01*
X139018763Y-76896879D01*
X139013045Y-76896682D01*
X138942193Y-76893350D01*
X138884617Y-76888341D01*
X138880272Y-76887760D01*
X138844979Y-76893449D01*
X138841110Y-76922614D01*
X138839392Y-76948159D01*
X138815012Y-76957071D01*
X138756974Y-76953051D01*
X138752344Y-76952499D01*
X138685648Y-76940355D01*
X138637452Y-76924321D01*
X138629870Y-76919677D01*
X138600340Y-76914255D01*
X138529778Y-76909705D01*
X138423324Y-76906144D01*
X138286122Y-76903688D01*
X138123314Y-76902453D01*
X137940042Y-76902557D01*
X137887363Y-76902832D01*
X137698985Y-76903360D01*
X137515823Y-76902688D01*
X137345654Y-76900934D01*
X137196249Y-76898214D01*
X137075382Y-76894646D01*
X136990828Y-76890348D01*
X136975272Y-76889081D01*
X136809017Y-76873605D01*
X136681955Y-76861580D01*
X136587283Y-76852325D01*
X136518198Y-76845162D01*
X136467896Y-76839408D01*
X136432636Y-76834813D01*
X136379896Y-76828152D01*
X136295210Y-76818209D01*
X136192553Y-76806604D01*
X136132454Y-76799987D01*
X136003882Y-76784642D01*
X135864317Y-76765886D01*
X135738353Y-76747076D01*
X135705272Y-76741651D01*
X135599541Y-76724460D01*
X135497099Y-76708943D01*
X135417068Y-76697974D01*
X135405091Y-76696539D01*
X135321529Y-76685835D01*
X135220858Y-76671444D01*
X135162636Y-76662474D01*
X135074365Y-76649707D01*
X134960515Y-76635063D01*
X134841476Y-76621125D01*
X134804727Y-76617142D01*
X134696483Y-76604353D01*
X134594564Y-76589998D01*
X134515382Y-76576472D01*
X134493000Y-76571649D01*
X134424330Y-76557458D01*
X134329178Y-76540766D01*
X134226869Y-76524939D01*
X134215909Y-76523382D01*
X134116307Y-76509092D01*
X134023857Y-76495350D01*
X133956618Y-76484846D01*
X133950363Y-76483807D01*
X133885620Y-76473270D01*
X133837333Y-76466004D01*
X133834909Y-76465681D01*
X133794413Y-76458598D01*
X133725821Y-76445015D01*
X133666090Y-76432553D01*
X133588766Y-76418965D01*
X133527518Y-76413390D01*
X133501554Y-76415607D01*
X133460272Y-76414294D01*
X133412258Y-76396675D01*
X133352981Y-76377814D01*
X133273514Y-76366497D01*
X133241976Y-76365157D01*
X133154920Y-76358311D01*
X133052541Y-76341784D01*
X132993012Y-76328292D01*
X132910483Y-76308886D01*
X132839315Y-76295841D01*
X132804015Y-76292364D01*
X132744097Y-76283671D01*
X132687639Y-76266313D01*
X132616786Y-76245554D01*
X132541818Y-76233154D01*
X132466160Y-76222621D01*
X132379332Y-76205359D01*
X132358996Y-76200493D01*
X132280427Y-76187660D01*
X132208571Y-76186762D01*
X132191587Y-76189304D01*
X132139839Y-76192463D01*
X132126182Y-76175704D01*
X132107985Y-76158291D01*
X132050992Y-76158058D01*
X132033818Y-76160126D01*
X131976312Y-76163887D01*
X131944011Y-76158329D01*
X131941454Y-76154458D01*
X131921050Y-76145902D01*
X131869528Y-76145271D01*
X131840554Y-76147773D01*
X131768807Y-76149670D01*
X131727474Y-76137590D01*
X131723737Y-76133392D01*
X131690227Y-76112885D01*
X131655304Y-76107637D01*
X131607480Y-76101638D01*
X131587679Y-76092528D01*
X131559004Y-76084799D01*
X131496185Y-76077635D01*
X131411254Y-76072295D01*
X131384790Y-76071287D01*
X131294135Y-76065513D01*
X131220580Y-76055640D01*
X131176970Y-76043544D01*
X131172068Y-76040214D01*
X131134066Y-76023900D01*
X131072219Y-76015556D01*
X131058657Y-76015273D01*
X130988013Y-76005853D01*
X130956896Y-75980637D01*
X130922600Y-75954390D01*
X130853398Y-75946000D01*
X130781908Y-75940147D01*
X130723700Y-75925771D01*
X130717323Y-75922909D01*
X130641758Y-75886171D01*
X130582414Y-75862369D01*
X130515517Y-75842782D01*
X130463636Y-75829856D01*
X130389920Y-75809698D01*
X130334358Y-75790380D01*
X130314700Y-75780150D01*
X130277582Y-75766698D01*
X130221182Y-75761273D01*
X130163589Y-75755502D01*
X130127663Y-75742046D01*
X130096070Y-75728257D01*
X130031596Y-75708675D01*
X129946570Y-75686942D01*
X129921000Y-75681022D01*
X129823484Y-75657125D01*
X129734399Y-75632122D01*
X129670684Y-75610827D01*
X129663510Y-75607885D01*
X129591196Y-75585435D01*
X129524330Y-75576546D01*
X129455368Y-75563750D01*
X129406552Y-75540572D01*
X129360833Y-75518738D01*
X129331691Y-75519122D01*
X129298825Y-75519810D01*
X129237422Y-75506830D01*
X129175868Y-75487984D01*
X129079209Y-75458918D01*
X128977872Y-75434905D01*
X128928091Y-75426147D01*
X128843466Y-75407994D01*
X128765651Y-75381227D01*
X128741779Y-75369509D01*
X128674142Y-75340939D01*
X128589359Y-75317736D01*
X128559815Y-75312384D01*
X128482733Y-75298480D01*
X128417983Y-75282857D01*
X128399763Y-75276903D01*
X128347479Y-75258995D01*
X128274622Y-75236493D01*
X128246909Y-75228428D01*
X128179797Y-75207308D01*
X128130959Y-75188405D01*
X128119909Y-75182452D01*
X128084353Y-75169331D01*
X128021956Y-75155474D01*
X127992909Y-75150666D01*
X127918294Y-75136774D01*
X127856719Y-75120633D01*
X127842818Y-75115534D01*
X127792813Y-75096408D01*
X127721678Y-75071570D01*
X127692727Y-75061961D01*
X127622164Y-75036844D01*
X127518988Y-74997405D01*
X127392999Y-74947592D01*
X127253998Y-74891357D01*
X127111783Y-74832649D01*
X127032400Y-74799152D01*
X126415030Y-74799152D01*
X126411860Y-74812879D01*
X126399636Y-74814546D01*
X126380630Y-74806097D01*
X126384242Y-74799152D01*
X126411646Y-74796388D01*
X126415030Y-74799152D01*
X127032400Y-74799152D01*
X126976156Y-74775419D01*
X126896091Y-74740848D01*
X126794683Y-74698214D01*
X126688737Y-74656266D01*
X126607454Y-74626321D01*
X126468343Y-74576459D01*
X126324738Y-74521956D01*
X126185307Y-74466399D01*
X126058720Y-74413376D01*
X125953645Y-74366476D01*
X125878752Y-74329287D01*
X125853689Y-74314354D01*
X125798405Y-74281073D01*
X125714435Y-74235499D01*
X125615033Y-74184676D01*
X125549521Y-74152687D01*
X125439417Y-74096243D01*
X125329300Y-74033465D01*
X125235908Y-73974151D01*
X125198909Y-73947465D01*
X125119743Y-73892409D01*
X125016157Y-73828792D01*
X124905754Y-73767200D01*
X124860536Y-73743958D01*
X124771353Y-73698022D01*
X124699100Y-73657947D01*
X124652964Y-73628998D01*
X124641173Y-73618287D01*
X124631154Y-73604806D01*
X124606330Y-73586482D01*
X124560008Y-73559395D01*
X124485494Y-73519624D01*
X124379182Y-73464826D01*
X124308505Y-73423872D01*
X124217103Y-73364259D01*
X124120314Y-73296176D01*
X124079000Y-73265422D01*
X123986263Y-73197686D01*
X123893508Y-73134517D01*
X123815372Y-73085713D01*
X123787882Y-73070535D01*
X123709953Y-73026416D01*
X123637662Y-72978822D01*
X123637659Y-72978819D01*
X123143818Y-72978819D01*
X123132272Y-72990364D01*
X123120727Y-72978819D01*
X123132272Y-72967273D01*
X123143818Y-72978819D01*
X123637659Y-72978819D01*
X123614701Y-72961330D01*
X123606207Y-72955728D01*
X123097636Y-72955728D01*
X123086091Y-72967273D01*
X123074545Y-72955728D01*
X123086091Y-72944182D01*
X123097636Y-72955728D01*
X123606207Y-72955728D01*
X123550528Y-72919008D01*
X123469685Y-72878432D01*
X123441625Y-72867075D01*
X123289066Y-72796351D01*
X123123077Y-72694780D01*
X122955881Y-72569919D01*
X122941107Y-72557727D01*
X122851652Y-72491743D01*
X122752708Y-72431576D01*
X122666126Y-72390437D01*
X122578879Y-72352890D01*
X122497304Y-72309678D01*
X122456479Y-72282860D01*
X122386790Y-72237086D01*
X122303181Y-72191672D01*
X122276121Y-72179012D01*
X122205853Y-72142507D01*
X122118979Y-72089273D01*
X122022506Y-72024601D01*
X121923441Y-71953781D01*
X121828790Y-71882105D01*
X121745560Y-71814865D01*
X121680759Y-71757350D01*
X121641392Y-71714852D01*
X121633527Y-71693772D01*
X121626425Y-71676796D01*
X121610620Y-71674182D01*
X121575821Y-71657320D01*
X121529566Y-71614891D01*
X121511121Y-71593365D01*
X121465966Y-71544264D01*
X121428034Y-71515590D01*
X121417772Y-71512547D01*
X121390915Y-71500710D01*
X121388909Y-71493897D01*
X121369752Y-71475273D01*
X121319239Y-71443497D01*
X121247811Y-71405059D01*
X121238818Y-71400550D01*
X121165396Y-71359679D01*
X121111912Y-71321651D01*
X121088939Y-71294098D01*
X121088727Y-71292199D01*
X121068027Y-71265691D01*
X121020817Y-71258546D01*
X120967961Y-71252075D01*
X120939889Y-71237482D01*
X120914807Y-71217363D01*
X120859288Y-71182060D01*
X120783688Y-71138034D01*
X120754328Y-71121721D01*
X120648877Y-71057291D01*
X120536900Y-70978632D01*
X120442282Y-70902543D01*
X120440626Y-70901069D01*
X120339303Y-70814026D01*
X120223801Y-70720293D01*
X120101380Y-70625200D01*
X119979300Y-70534074D01*
X119864822Y-70452244D01*
X119765206Y-70385038D01*
X119687713Y-70337784D01*
X119645545Y-70317584D01*
X119519516Y-70258357D01*
X119383246Y-70166137D01*
X119288899Y-70086793D01*
X119232680Y-70042263D01*
X119184361Y-70015360D01*
X119168879Y-70011747D01*
X119128396Y-69993312D01*
X119117649Y-69977000D01*
X119094721Y-69946438D01*
X119083259Y-69942364D01*
X119056103Y-69927447D01*
X119008992Y-69889134D01*
X118972853Y-69855638D01*
X118919395Y-69805066D01*
X118862532Y-69754614D01*
X118794505Y-69697865D01*
X118707558Y-69628405D01*
X118593935Y-69539816D01*
X118549388Y-69505387D01*
X118477136Y-69448001D01*
X118421432Y-69400664D01*
X118390616Y-69370605D01*
X118387091Y-69364683D01*
X118369503Y-69344548D01*
X118323809Y-69307857D01*
X118271480Y-69270569D01*
X118207257Y-69221880D01*
X118159993Y-69176794D01*
X118142923Y-69151500D01*
X118121940Y-69117363D01*
X118108444Y-69111091D01*
X118090620Y-69091851D01*
X118086909Y-69067413D01*
X118065983Y-69026454D01*
X118029182Y-69009246D01*
X117985935Y-68990703D01*
X117971454Y-68972106D01*
X117952109Y-68953706D01*
X117925234Y-68949455D01*
X117881658Y-68929244D01*
X117825348Y-68872189D01*
X117796068Y-68834000D01*
X117735597Y-68756059D01*
X117695740Y-68719103D01*
X117676671Y-68723135D01*
G36*
X108261356Y-73168346D02*
X108273111Y-73213180D01*
X108306164Y-73280200D01*
X108355979Y-73363103D01*
X108418021Y-73455586D01*
X108487754Y-73551347D01*
X108560642Y-73644082D01*
X108632149Y-73727488D01*
X108697741Y-73795263D01*
X108752881Y-73841104D01*
X108782533Y-73856673D01*
X108819256Y-73880425D01*
X108827454Y-73899338D01*
X108842027Y-73926021D01*
X108882070Y-73979987D01*
X108942072Y-74054271D01*
X109016523Y-74141909D01*
X109046818Y-74176541D01*
X109125057Y-74266501D01*
X109190976Y-74344626D01*
X109239103Y-74404251D01*
X109263969Y-74438710D01*
X109266182Y-74443841D01*
X109280754Y-74469420D01*
X109318544Y-74516853D01*
X109359964Y-74563400D01*
X109418616Y-74631628D01*
X109468708Y-74698518D01*
X109490118Y-74732907D01*
X109532589Y-74802293D01*
X109592098Y-74886363D01*
X109659745Y-74973936D01*
X109726630Y-75053828D01*
X109783855Y-75114856D01*
X109815548Y-75141832D01*
X109868671Y-75192867D01*
X109901835Y-75245741D01*
X109929626Y-75290247D01*
X109981686Y-75357328D01*
X110049500Y-75437028D01*
X110124557Y-75519394D01*
X110198343Y-75594471D01*
X110208010Y-75603760D01*
X110323813Y-75713645D01*
X110429311Y-75812883D01*
X110516235Y-75893724D01*
X110565222Y-75938486D01*
X110621591Y-75992150D01*
X110667043Y-76040329D01*
X110678171Y-76053941D01*
X110733520Y-76110576D01*
X110827796Y-76184132D01*
X110940272Y-76261265D01*
X111016988Y-76315318D01*
X111099094Y-76378240D01*
X111125000Y-76399401D01*
X111191498Y-76454395D01*
X111253522Y-76504631D01*
X111275091Y-76521684D01*
X111324640Y-76562405D01*
X111390751Y-76619351D01*
X111436727Y-76660136D01*
X111495859Y-76709939D01*
X111543450Y-76743958D01*
X111565336Y-76753894D01*
X111596241Y-76770069D01*
X111637590Y-76808913D01*
X111640228Y-76811910D01*
X111688357Y-76852260D01*
X111734935Y-76869623D01*
X111735944Y-76869637D01*
X111782381Y-76888262D01*
X111806182Y-76915819D01*
X111838590Y-76952564D01*
X111863072Y-76962000D01*
X111903384Y-76977186D01*
X111935509Y-77002263D01*
X111965484Y-77030048D01*
X112000549Y-77055832D01*
X112052682Y-77087521D01*
X112132212Y-77132111D01*
X112197491Y-77172252D01*
X112252392Y-77212544D01*
X112256454Y-77216047D01*
X112315800Y-77255251D01*
X112360363Y-77274186D01*
X112408053Y-77292225D01*
X112429636Y-77305704D01*
X112456241Y-77323576D01*
X112508548Y-77350841D01*
X112527772Y-77359945D01*
X112591628Y-77400699D01*
X112614360Y-77443248D01*
X112614363Y-77443735D01*
X112636242Y-77485333D01*
X112702433Y-77520965D01*
X112800890Y-77548384D01*
X112858198Y-77572895D01*
X112918894Y-77615610D01*
X112924844Y-77620958D01*
X112973942Y-77656874D01*
X113013793Y-77670097D01*
X113019707Y-77668988D01*
X113058982Y-77672931D01*
X113103571Y-77696427D01*
X113195895Y-77756734D01*
X113280283Y-77798675D01*
X113344312Y-77816189D01*
X113349413Y-77816364D01*
X113404338Y-77831518D01*
X113427975Y-77848184D01*
X113475196Y-77882883D01*
X113551619Y-77926534D01*
X113643093Y-77972171D01*
X113735470Y-78012831D01*
X113814598Y-78041548D01*
X113829241Y-78045680D01*
X113912526Y-78076162D01*
X113995907Y-78119511D01*
X114009221Y-78128128D01*
X114067724Y-78163511D01*
X114113718Y-78183875D01*
X114124310Y-78185819D01*
X114162256Y-78199925D01*
X114207084Y-78231521D01*
X114250141Y-78260198D01*
X114279634Y-78264953D01*
X114312077Y-78265312D01*
X114365749Y-78282218D01*
X114374790Y-78286080D01*
X114442972Y-78314980D01*
X114527123Y-78348922D01*
X114561522Y-78362330D01*
X114650181Y-78405571D01*
X114738765Y-78462560D01*
X114764419Y-78482757D01*
X114831241Y-78531943D01*
X114883995Y-78550331D01*
X114917996Y-78548458D01*
X114973236Y-78551978D01*
X115045996Y-78573011D01*
X115117376Y-78604225D01*
X115168478Y-78638290D01*
X115177925Y-78649295D01*
X115205060Y-78659909D01*
X115266395Y-78671570D01*
X115350055Y-78682150D01*
X115374198Y-78684479D01*
X115482355Y-78698378D01*
X115554451Y-78716742D01*
X115582721Y-78734136D01*
X115614024Y-78754816D01*
X115679119Y-78784605D01*
X115767485Y-78819618D01*
X115868598Y-78855968D01*
X115971937Y-78889769D01*
X116066978Y-78917134D01*
X116101091Y-78925588D01*
X116278178Y-78970023D01*
X116491121Y-79029212D01*
X116643727Y-79074175D01*
X116745583Y-79103305D01*
X116840105Y-79127780D01*
X116912087Y-79143754D01*
X116931689Y-79146972D01*
X117009191Y-79164389D01*
X117077370Y-79190035D01*
X117146124Y-79210507D01*
X117204564Y-79199288D01*
X117255555Y-79187460D01*
X117274446Y-79200522D01*
X117296293Y-79215010D01*
X117304013Y-79212007D01*
X117334757Y-79215875D01*
X117381272Y-79242908D01*
X117386487Y-79246904D01*
X117445175Y-79278749D01*
X117490173Y-79281485D01*
X117524764Y-79279920D01*
X117532727Y-79290429D01*
X117553115Y-79302155D01*
X117605560Y-79302669D01*
X117624670Y-79300546D01*
X117688857Y-79296822D01*
X117721750Y-79310210D01*
X117731050Y-79325835D01*
X117751099Y-79347962D01*
X117796293Y-79359859D01*
X117876489Y-79363934D01*
X117887334Y-79364006D01*
X117982422Y-79368161D01*
X118074643Y-79378245D01*
X118121545Y-79386967D01*
X118194204Y-79402161D01*
X118298976Y-79421041D01*
X118422166Y-79441433D01*
X118550077Y-79461163D01*
X118669013Y-79478057D01*
X118765281Y-79489941D01*
X118779636Y-79491429D01*
X118859448Y-79500948D01*
X118930549Y-79511992D01*
X118945821Y-79514980D01*
X119007475Y-79525119D01*
X119088396Y-79534863D01*
X119119003Y-79537761D01*
X119186209Y-79543544D01*
X119285665Y-79552106D01*
X119403611Y-79562262D01*
X119518545Y-79572161D01*
X119645041Y-79582434D01*
X119769578Y-79591469D01*
X119876926Y-79598221D01*
X119945727Y-79601467D01*
X120029998Y-79607854D01*
X120072151Y-79620804D01*
X120078500Y-79634773D01*
X120084260Y-79660918D01*
X120108631Y-79657413D01*
X120137154Y-79626843D01*
X120138797Y-79623998D01*
X120160535Y-79598281D01*
X120191999Y-79602088D01*
X120218561Y-79615176D01*
X120269185Y-79632531D01*
X120302446Y-79629736D01*
X120341781Y-79627229D01*
X120356602Y-79634973D01*
X120420846Y-79668600D01*
X120476692Y-79669463D01*
X120486657Y-79664691D01*
X120511698Y-79636550D01*
X120513535Y-79626419D01*
X120534832Y-79619916D01*
X120595210Y-79614097D01*
X120687570Y-79609324D01*
X120804814Y-79605963D01*
X120939843Y-79604375D01*
X120944518Y-79604357D01*
X121100277Y-79603221D01*
X121271471Y-79600976D01*
X121452111Y-79597796D01*
X121636208Y-79593856D01*
X121817775Y-79589329D01*
X121990823Y-79584391D01*
X122149364Y-79579214D01*
X122287410Y-79573974D01*
X122398972Y-79568845D01*
X122478063Y-79564000D01*
X122518693Y-79559613D01*
X122522419Y-79558457D01*
X122556476Y-79550466D01*
X122633614Y-79542242D01*
X122754589Y-79533731D01*
X122920155Y-79524882D01*
X123131067Y-79515643D01*
X123155363Y-79514668D01*
X123305361Y-79508412D01*
X123473726Y-79500941D01*
X123636793Y-79493325D01*
X123738409Y-79488312D01*
X123871148Y-79483177D01*
X123960665Y-79483647D01*
X124009591Y-79489822D01*
X124021272Y-79498927D01*
X124035586Y-79512434D01*
X124082462Y-79500617D01*
X124084772Y-79499743D01*
X124139289Y-79486497D01*
X124222456Y-79474601D01*
X124316757Y-79466532D01*
X124321454Y-79466273D01*
X124422233Y-79461395D01*
X124558386Y-79455537D01*
X124719127Y-79449101D01*
X124893668Y-79442490D01*
X125071222Y-79436106D01*
X125241003Y-79430352D01*
X125392224Y-79425632D01*
X125464454Y-79423598D01*
X125564964Y-79419131D01*
X125653720Y-79411996D01*
X125716237Y-79403471D01*
X125730000Y-79400165D01*
X125814222Y-79369220D01*
X125891869Y-79332459D01*
X125951634Y-79296123D01*
X125982208Y-79266451D01*
X125984000Y-79259989D01*
X125963957Y-79232835D01*
X125915882Y-79213552D01*
X125857851Y-79207444D01*
X125823660Y-79212953D01*
X125776262Y-79207966D01*
X125753523Y-79190794D01*
X125719960Y-79161473D01*
X125703835Y-79155637D01*
X125668279Y-79142774D01*
X125605731Y-79108550D01*
X125525997Y-79059512D01*
X125438879Y-79002206D01*
X125354183Y-78943179D01*
X125281713Y-78888977D01*
X125231272Y-78846148D01*
X125217026Y-78830575D01*
X125177604Y-78785908D01*
X125145425Y-78763651D01*
X125141744Y-78763091D01*
X125114025Y-78747622D01*
X125065125Y-78706947D01*
X125005329Y-78649664D01*
X125001768Y-78646040D01*
X124926596Y-78575809D01*
X124830997Y-78495524D01*
X124733219Y-78420370D01*
X124714000Y-78406578D01*
X124646289Y-78356911D01*
X124574689Y-78300296D01*
X124494318Y-78232404D01*
X124400295Y-78148909D01*
X124287738Y-78045484D01*
X124151766Y-77917801D01*
X124002597Y-77775955D01*
X123940753Y-77718110D01*
X123892560Y-77675271D01*
X123866909Y-77655291D01*
X123865325Y-77654728D01*
X123844005Y-77639655D01*
X123797731Y-77599364D01*
X123734247Y-77541247D01*
X123661299Y-77472698D01*
X123586632Y-77401108D01*
X123517993Y-77333870D01*
X123463126Y-77278376D01*
X123429777Y-77242019D01*
X123423466Y-77233011D01*
X123393480Y-77191587D01*
X123335469Y-77139005D01*
X123262157Y-77085845D01*
X123207358Y-77053320D01*
X123147250Y-77013024D01*
X123072553Y-76951457D01*
X122999345Y-76881880D01*
X122998719Y-76881235D01*
X122876630Y-76755185D01*
X122750451Y-76769488D01*
X122657623Y-76788149D01*
X122566567Y-76819096D01*
X122531909Y-76835850D01*
X122434689Y-76880209D01*
X122314547Y-76915135D01*
X122165735Y-76941656D01*
X121982502Y-76960799D01*
X121761149Y-76973507D01*
X121612418Y-76980411D01*
X121501675Y-76987933D01*
X121420725Y-76997159D01*
X121361375Y-77009178D01*
X121315433Y-77025077D01*
X121293404Y-77035613D01*
X121230283Y-77061469D01*
X121179309Y-77070377D01*
X121167719Y-77068404D01*
X121119667Y-77067486D01*
X121084368Y-77079788D01*
X121026992Y-77097653D01*
X120928139Y-77113507D01*
X120792478Y-77127062D01*
X120624681Y-77138030D01*
X120429420Y-77146120D01*
X120211366Y-77151046D01*
X119975190Y-77152518D01*
X119911091Y-77152297D01*
X119714846Y-77151261D01*
X119559426Y-77150515D01*
X119439471Y-77150048D01*
X119349625Y-77149851D01*
X119284531Y-77149912D01*
X119238830Y-77150222D01*
X119207166Y-77150771D01*
X119201045Y-77150937D01*
X119161939Y-77149986D01*
X119088497Y-77146477D01*
X118992456Y-77141015D01*
X118918182Y-77136362D01*
X118798425Y-77128784D01*
X118678555Y-77121548D01*
X118576889Y-77115744D01*
X118537182Y-77113650D01*
X118347382Y-77102788D01*
X118172899Y-77090222D01*
X118022094Y-77076676D01*
X117903331Y-77062875D01*
X117844454Y-77053586D01*
X117767631Y-77040967D01*
X117703544Y-77033572D01*
X117682818Y-77032706D01*
X117624698Y-77031466D01*
X117540955Y-77026929D01*
X117444333Y-77020125D01*
X117347575Y-77012083D01*
X117263427Y-77003832D01*
X117204633Y-76996401D01*
X117186363Y-76992610D01*
X117145509Y-76984706D01*
X117075685Y-76976634D01*
X117013182Y-76971627D01*
X116869926Y-76960958D01*
X116721211Y-76947567D01*
X116575161Y-76932429D01*
X116439904Y-76916521D01*
X116323566Y-76900820D01*
X116234272Y-76886304D01*
X116180150Y-76873948D01*
X116171225Y-76870423D01*
X116143103Y-76859382D01*
X116098142Y-76848831D01*
X116028580Y-76837456D01*
X115926652Y-76823939D01*
X115824000Y-76811571D01*
X115746662Y-76800748D01*
X115685146Y-76789075D01*
X115662363Y-76782607D01*
X115609041Y-76768251D01*
X115593091Y-76766299D01*
X115501374Y-76756527D01*
X115417399Y-76741132D01*
X115352636Y-76722901D01*
X115318558Y-76704624D01*
X115316000Y-76698925D01*
X115295277Y-76680428D01*
X115238232Y-76680171D01*
X115145283Y-76671412D01*
X115049243Y-76630620D01*
X114983914Y-76580435D01*
X114942488Y-76556769D01*
X114902310Y-76568413D01*
X114859010Y-76580627D01*
X114841702Y-76567943D01*
X114809899Y-76551634D01*
X114798924Y-76553767D01*
X114760447Y-76549743D01*
X114727574Y-76532250D01*
X114671295Y-76507952D01*
X114617712Y-76500182D01*
X114548537Y-76489175D01*
X114483822Y-76465078D01*
X114432130Y-76440229D01*
X114399329Y-76427832D01*
X114398378Y-76427675D01*
X114365716Y-76417846D01*
X114323091Y-76401399D01*
X114255019Y-76380462D01*
X114196091Y-76369587D01*
X114129015Y-76361797D01*
X114080636Y-76355922D01*
X114030754Y-76338724D01*
X114011363Y-76323904D01*
X113972006Y-76298893D01*
X113930545Y-76285101D01*
X113790363Y-76250779D01*
X113678573Y-76214147D01*
X113602938Y-76181906D01*
X113514627Y-76148893D01*
X113416707Y-76123914D01*
X113390672Y-76119556D01*
X113313165Y-76106206D01*
X113248041Y-76090630D01*
X113229036Y-76084278D01*
X113166477Y-76063666D01*
X113120536Y-76052058D01*
X113068980Y-76030690D01*
X113001411Y-75989579D01*
X112958899Y-75958320D01*
X112892704Y-75912945D01*
X112832124Y-75883394D01*
X112803501Y-75876952D01*
X112767394Y-75869649D01*
X112762717Y-75856448D01*
X112750834Y-75838334D01*
X112698305Y-75818438D01*
X112610511Y-75798748D01*
X112602818Y-75797364D01*
X112564181Y-75786536D01*
X112505411Y-75762941D01*
X112419120Y-75723406D01*
X112325727Y-75678374D01*
X112243209Y-75640519D01*
X112172806Y-75612604D01*
X112127837Y-75599826D01*
X112123682Y-75599533D01*
X112089396Y-75590207D01*
X112083272Y-75579707D01*
X112063140Y-75562478D01*
X112011188Y-75538898D01*
X111960364Y-75521117D01*
X111871954Y-75487427D01*
X111786861Y-75445731D01*
X111753771Y-75425593D01*
X111693245Y-75390240D01*
X111642677Y-75370334D01*
X111631130Y-75368728D01*
X111593980Y-75358367D01*
X111527584Y-75330896D01*
X111443012Y-75291732D01*
X111351335Y-75246292D01*
X111263620Y-75199994D01*
X111190938Y-75158253D01*
X111159636Y-75137991D01*
X111096379Y-75101606D01*
X111044182Y-75080038D01*
X110990115Y-75054720D01*
X110924139Y-75012551D01*
X110902313Y-74996190D01*
X110845744Y-74956385D01*
X110800676Y-74932789D01*
X110788677Y-74930000D01*
X110749813Y-74915624D01*
X110716795Y-74891641D01*
X110686514Y-74865926D01*
X110651407Y-74841163D01*
X110601334Y-74811085D01*
X110526150Y-74769425D01*
X110469195Y-74738644D01*
X110360152Y-74673242D01*
X110241684Y-74591724D01*
X110135875Y-74509567D01*
X110108537Y-74485885D01*
X110061887Y-74446100D01*
X110015697Y-74413440D01*
X109955061Y-74378271D01*
X109883918Y-74340708D01*
X109815841Y-74302954D01*
X109767947Y-74271689D01*
X109751146Y-74254591D01*
X109731611Y-74240752D01*
X109702438Y-74237273D01*
X109667014Y-74227109D01*
X109667077Y-74202637D01*
X109664412Y-74176436D01*
X109624273Y-74167232D01*
X109617593Y-74167062D01*
X109560001Y-74151272D01*
X109493543Y-74112558D01*
X109474872Y-74097789D01*
X109420971Y-74056470D01*
X109378518Y-74032169D01*
X109367781Y-74029455D01*
X109325931Y-74014482D01*
X109258202Y-73973315D01*
X109172183Y-73911578D01*
X109075465Y-73834899D01*
X108975638Y-73748902D01*
X108919583Y-73697236D01*
X108796443Y-73581582D01*
X108701976Y-73495330D01*
X108632221Y-73435204D01*
X108583219Y-73397927D01*
X108551011Y-73380222D01*
X108533942Y-73378100D01*
X108501278Y-73365857D01*
X108476260Y-73337574D01*
X108443055Y-73300931D01*
X108419365Y-73290546D01*
X108391002Y-73271393D01*
X108377182Y-73244364D01*
X108351522Y-73206921D01*
X108329444Y-73198182D01*
X108299727Y-73185206D01*
X108296363Y-73175091D01*
X108280379Y-73152656D01*
X108275434Y-73152000D01*
X108261356Y-73168346D01*
X108261356Y-73168346D01*
G37*
X108261356Y-73168346D02*
X108273111Y-73213180D01*
X108306164Y-73280200D01*
X108355979Y-73363103D01*
X108418021Y-73455586D01*
X108487754Y-73551347D01*
X108560642Y-73644082D01*
X108632149Y-73727488D01*
X108697741Y-73795263D01*
X108752881Y-73841104D01*
X108782533Y-73856673D01*
X108819256Y-73880425D01*
X108827454Y-73899338D01*
X108842027Y-73926021D01*
X108882070Y-73979987D01*
X108942072Y-74054271D01*
X109016523Y-74141909D01*
X109046818Y-74176541D01*
X109125057Y-74266501D01*
X109190976Y-74344626D01*
X109239103Y-74404251D01*
X109263969Y-74438710D01*
X109266182Y-74443841D01*
X109280754Y-74469420D01*
X109318544Y-74516853D01*
X109359964Y-74563400D01*
X109418616Y-74631628D01*
X109468708Y-74698518D01*
X109490118Y-74732907D01*
X109532589Y-74802293D01*
X109592098Y-74886363D01*
X109659745Y-74973936D01*
X109726630Y-75053828D01*
X109783855Y-75114856D01*
X109815548Y-75141832D01*
X109868671Y-75192867D01*
X109901835Y-75245741D01*
X109929626Y-75290247D01*
X109981686Y-75357328D01*
X110049500Y-75437028D01*
X110124557Y-75519394D01*
X110198343Y-75594471D01*
X110208010Y-75603760D01*
X110323813Y-75713645D01*
X110429311Y-75812883D01*
X110516235Y-75893724D01*
X110565222Y-75938486D01*
X110621591Y-75992150D01*
X110667043Y-76040329D01*
X110678171Y-76053941D01*
X110733520Y-76110576D01*
X110827796Y-76184132D01*
X110940272Y-76261265D01*
X111016988Y-76315318D01*
X111099094Y-76378240D01*
X111125000Y-76399401D01*
X111191498Y-76454395D01*
X111253522Y-76504631D01*
X111275091Y-76521684D01*
X111324640Y-76562405D01*
X111390751Y-76619351D01*
X111436727Y-76660136D01*
X111495859Y-76709939D01*
X111543450Y-76743958D01*
X111565336Y-76753894D01*
X111596241Y-76770069D01*
X111637590Y-76808913D01*
X111640228Y-76811910D01*
X111688357Y-76852260D01*
X111734935Y-76869623D01*
X111735944Y-76869637D01*
X111782381Y-76888262D01*
X111806182Y-76915819D01*
X111838590Y-76952564D01*
X111863072Y-76962000D01*
X111903384Y-76977186D01*
X111935509Y-77002263D01*
X111965484Y-77030048D01*
X112000549Y-77055832D01*
X112052682Y-77087521D01*
X112132212Y-77132111D01*
X112197491Y-77172252D01*
X112252392Y-77212544D01*
X112256454Y-77216047D01*
X112315800Y-77255251D01*
X112360363Y-77274186D01*
X112408053Y-77292225D01*
X112429636Y-77305704D01*
X112456241Y-77323576D01*
X112508548Y-77350841D01*
X112527772Y-77359945D01*
X112591628Y-77400699D01*
X112614360Y-77443248D01*
X112614363Y-77443735D01*
X112636242Y-77485333D01*
X112702433Y-77520965D01*
X112800890Y-77548384D01*
X112858198Y-77572895D01*
X112918894Y-77615610D01*
X112924844Y-77620958D01*
X112973942Y-77656874D01*
X113013793Y-77670097D01*
X113019707Y-77668988D01*
X113058982Y-77672931D01*
X113103571Y-77696427D01*
X113195895Y-77756734D01*
X113280283Y-77798675D01*
X113344312Y-77816189D01*
X113349413Y-77816364D01*
X113404338Y-77831518D01*
X113427975Y-77848184D01*
X113475196Y-77882883D01*
X113551619Y-77926534D01*
X113643093Y-77972171D01*
X113735470Y-78012831D01*
X113814598Y-78041548D01*
X113829241Y-78045680D01*
X113912526Y-78076162D01*
X113995907Y-78119511D01*
X114009221Y-78128128D01*
X114067724Y-78163511D01*
X114113718Y-78183875D01*
X114124310Y-78185819D01*
X114162256Y-78199925D01*
X114207084Y-78231521D01*
X114250141Y-78260198D01*
X114279634Y-78264953D01*
X114312077Y-78265312D01*
X114365749Y-78282218D01*
X114374790Y-78286080D01*
X114442972Y-78314980D01*
X114527123Y-78348922D01*
X114561522Y-78362330D01*
X114650181Y-78405571D01*
X114738765Y-78462560D01*
X114764419Y-78482757D01*
X114831241Y-78531943D01*
X114883995Y-78550331D01*
X114917996Y-78548458D01*
X114973236Y-78551978D01*
X115045996Y-78573011D01*
X115117376Y-78604225D01*
X115168478Y-78638290D01*
X115177925Y-78649295D01*
X115205060Y-78659909D01*
X115266395Y-78671570D01*
X115350055Y-78682150D01*
X115374198Y-78684479D01*
X115482355Y-78698378D01*
X115554451Y-78716742D01*
X115582721Y-78734136D01*
X115614024Y-78754816D01*
X115679119Y-78784605D01*
X115767485Y-78819618D01*
X115868598Y-78855968D01*
X115971937Y-78889769D01*
X116066978Y-78917134D01*
X116101091Y-78925588D01*
X116278178Y-78970023D01*
X116491121Y-79029212D01*
X116643727Y-79074175D01*
X116745583Y-79103305D01*
X116840105Y-79127780D01*
X116912087Y-79143754D01*
X116931689Y-79146972D01*
X117009191Y-79164389D01*
X117077370Y-79190035D01*
X117146124Y-79210507D01*
X117204564Y-79199288D01*
X117255555Y-79187460D01*
X117274446Y-79200522D01*
X117296293Y-79215010D01*
X117304013Y-79212007D01*
X117334757Y-79215875D01*
X117381272Y-79242908D01*
X117386487Y-79246904D01*
X117445175Y-79278749D01*
X117490173Y-79281485D01*
X117524764Y-79279920D01*
X117532727Y-79290429D01*
X117553115Y-79302155D01*
X117605560Y-79302669D01*
X117624670Y-79300546D01*
X117688857Y-79296822D01*
X117721750Y-79310210D01*
X117731050Y-79325835D01*
X117751099Y-79347962D01*
X117796293Y-79359859D01*
X117876489Y-79363934D01*
X117887334Y-79364006D01*
X117982422Y-79368161D01*
X118074643Y-79378245D01*
X118121545Y-79386967D01*
X118194204Y-79402161D01*
X118298976Y-79421041D01*
X118422166Y-79441433D01*
X118550077Y-79461163D01*
X118669013Y-79478057D01*
X118765281Y-79489941D01*
X118779636Y-79491429D01*
X118859448Y-79500948D01*
X118930549Y-79511992D01*
X118945821Y-79514980D01*
X119007475Y-79525119D01*
X119088396Y-79534863D01*
X119119003Y-79537761D01*
X119186209Y-79543544D01*
X119285665Y-79552106D01*
X119403611Y-79562262D01*
X119518545Y-79572161D01*
X119645041Y-79582434D01*
X119769578Y-79591469D01*
X119876926Y-79598221D01*
X119945727Y-79601467D01*
X120029998Y-79607854D01*
X120072151Y-79620804D01*
X120078500Y-79634773D01*
X120084260Y-79660918D01*
X120108631Y-79657413D01*
X120137154Y-79626843D01*
X120138797Y-79623998D01*
X120160535Y-79598281D01*
X120191999Y-79602088D01*
X120218561Y-79615176D01*
X120269185Y-79632531D01*
X120302446Y-79629736D01*
X120341781Y-79627229D01*
X120356602Y-79634973D01*
X120420846Y-79668600D01*
X120476692Y-79669463D01*
X120486657Y-79664691D01*
X120511698Y-79636550D01*
X120513535Y-79626419D01*
X120534832Y-79619916D01*
X120595210Y-79614097D01*
X120687570Y-79609324D01*
X120804814Y-79605963D01*
X120939843Y-79604375D01*
X120944518Y-79604357D01*
X121100277Y-79603221D01*
X121271471Y-79600976D01*
X121452111Y-79597796D01*
X121636208Y-79593856D01*
X121817775Y-79589329D01*
X121990823Y-79584391D01*
X122149364Y-79579214D01*
X122287410Y-79573974D01*
X122398972Y-79568845D01*
X122478063Y-79564000D01*
X122518693Y-79559613D01*
X122522419Y-79558457D01*
X122556476Y-79550466D01*
X122633614Y-79542242D01*
X122754589Y-79533731D01*
X122920155Y-79524882D01*
X123131067Y-79515643D01*
X123155363Y-79514668D01*
X123305361Y-79508412D01*
X123473726Y-79500941D01*
X123636793Y-79493325D01*
X123738409Y-79488312D01*
X123871148Y-79483177D01*
X123960665Y-79483647D01*
X124009591Y-79489822D01*
X124021272Y-79498927D01*
X124035586Y-79512434D01*
X124082462Y-79500617D01*
X124084772Y-79499743D01*
X124139289Y-79486497D01*
X124222456Y-79474601D01*
X124316757Y-79466532D01*
X124321454Y-79466273D01*
X124422233Y-79461395D01*
X124558386Y-79455537D01*
X124719127Y-79449101D01*
X124893668Y-79442490D01*
X125071222Y-79436106D01*
X125241003Y-79430352D01*
X125392224Y-79425632D01*
X125464454Y-79423598D01*
X125564964Y-79419131D01*
X125653720Y-79411996D01*
X125716237Y-79403471D01*
X125730000Y-79400165D01*
X125814222Y-79369220D01*
X125891869Y-79332459D01*
X125951634Y-79296123D01*
X125982208Y-79266451D01*
X125984000Y-79259989D01*
X125963957Y-79232835D01*
X125915882Y-79213552D01*
X125857851Y-79207444D01*
X125823660Y-79212953D01*
X125776262Y-79207966D01*
X125753523Y-79190794D01*
X125719960Y-79161473D01*
X125703835Y-79155637D01*
X125668279Y-79142774D01*
X125605731Y-79108550D01*
X125525997Y-79059512D01*
X125438879Y-79002206D01*
X125354183Y-78943179D01*
X125281713Y-78888977D01*
X125231272Y-78846148D01*
X125217026Y-78830575D01*
X125177604Y-78785908D01*
X125145425Y-78763651D01*
X125141744Y-78763091D01*
X125114025Y-78747622D01*
X125065125Y-78706947D01*
X125005329Y-78649664D01*
X125001768Y-78646040D01*
X124926596Y-78575809D01*
X124830997Y-78495524D01*
X124733219Y-78420370D01*
X124714000Y-78406578D01*
X124646289Y-78356911D01*
X124574689Y-78300296D01*
X124494318Y-78232404D01*
X124400295Y-78148909D01*
X124287738Y-78045484D01*
X124151766Y-77917801D01*
X124002597Y-77775955D01*
X123940753Y-77718110D01*
X123892560Y-77675271D01*
X123866909Y-77655291D01*
X123865325Y-77654728D01*
X123844005Y-77639655D01*
X123797731Y-77599364D01*
X123734247Y-77541247D01*
X123661299Y-77472698D01*
X123586632Y-77401108D01*
X123517993Y-77333870D01*
X123463126Y-77278376D01*
X123429777Y-77242019D01*
X123423466Y-77233011D01*
X123393480Y-77191587D01*
X123335469Y-77139005D01*
X123262157Y-77085845D01*
X123207358Y-77053320D01*
X123147250Y-77013024D01*
X123072553Y-76951457D01*
X122999345Y-76881880D01*
X122998719Y-76881235D01*
X122876630Y-76755185D01*
X122750451Y-76769488D01*
X122657623Y-76788149D01*
X122566567Y-76819096D01*
X122531909Y-76835850D01*
X122434689Y-76880209D01*
X122314547Y-76915135D01*
X122165735Y-76941656D01*
X121982502Y-76960799D01*
X121761149Y-76973507D01*
X121612418Y-76980411D01*
X121501675Y-76987933D01*
X121420725Y-76997159D01*
X121361375Y-77009178D01*
X121315433Y-77025077D01*
X121293404Y-77035613D01*
X121230283Y-77061469D01*
X121179309Y-77070377D01*
X121167719Y-77068404D01*
X121119667Y-77067486D01*
X121084368Y-77079788D01*
X121026992Y-77097653D01*
X120928139Y-77113507D01*
X120792478Y-77127062D01*
X120624681Y-77138030D01*
X120429420Y-77146120D01*
X120211366Y-77151046D01*
X119975190Y-77152518D01*
X119911091Y-77152297D01*
X119714846Y-77151261D01*
X119559426Y-77150515D01*
X119439471Y-77150048D01*
X119349625Y-77149851D01*
X119284531Y-77149912D01*
X119238830Y-77150222D01*
X119207166Y-77150771D01*
X119201045Y-77150937D01*
X119161939Y-77149986D01*
X119088497Y-77146477D01*
X118992456Y-77141015D01*
X118918182Y-77136362D01*
X118798425Y-77128784D01*
X118678555Y-77121548D01*
X118576889Y-77115744D01*
X118537182Y-77113650D01*
X118347382Y-77102788D01*
X118172899Y-77090222D01*
X118022094Y-77076676D01*
X117903331Y-77062875D01*
X117844454Y-77053586D01*
X117767631Y-77040967D01*
X117703544Y-77033572D01*
X117682818Y-77032706D01*
X117624698Y-77031466D01*
X117540955Y-77026929D01*
X117444333Y-77020125D01*
X117347575Y-77012083D01*
X117263427Y-77003832D01*
X117204633Y-76996401D01*
X117186363Y-76992610D01*
X117145509Y-76984706D01*
X117075685Y-76976634D01*
X117013182Y-76971627D01*
X116869926Y-76960958D01*
X116721211Y-76947567D01*
X116575161Y-76932429D01*
X116439904Y-76916521D01*
X116323566Y-76900820D01*
X116234272Y-76886304D01*
X116180150Y-76873948D01*
X116171225Y-76870423D01*
X116143103Y-76859382D01*
X116098142Y-76848831D01*
X116028580Y-76837456D01*
X115926652Y-76823939D01*
X115824000Y-76811571D01*
X115746662Y-76800748D01*
X115685146Y-76789075D01*
X115662363Y-76782607D01*
X115609041Y-76768251D01*
X115593091Y-76766299D01*
X115501374Y-76756527D01*
X115417399Y-76741132D01*
X115352636Y-76722901D01*
X115318558Y-76704624D01*
X115316000Y-76698925D01*
X115295277Y-76680428D01*
X115238232Y-76680171D01*
X115145283Y-76671412D01*
X115049243Y-76630620D01*
X114983914Y-76580435D01*
X114942488Y-76556769D01*
X114902310Y-76568413D01*
X114859010Y-76580627D01*
X114841702Y-76567943D01*
X114809899Y-76551634D01*
X114798924Y-76553767D01*
X114760447Y-76549743D01*
X114727574Y-76532250D01*
X114671295Y-76507952D01*
X114617712Y-76500182D01*
X114548537Y-76489175D01*
X114483822Y-76465078D01*
X114432130Y-76440229D01*
X114399329Y-76427832D01*
X114398378Y-76427675D01*
X114365716Y-76417846D01*
X114323091Y-76401399D01*
X114255019Y-76380462D01*
X114196091Y-76369587D01*
X114129015Y-76361797D01*
X114080636Y-76355922D01*
X114030754Y-76338724D01*
X114011363Y-76323904D01*
X113972006Y-76298893D01*
X113930545Y-76285101D01*
X113790363Y-76250779D01*
X113678573Y-76214147D01*
X113602938Y-76181906D01*
X113514627Y-76148893D01*
X113416707Y-76123914D01*
X113390672Y-76119556D01*
X113313165Y-76106206D01*
X113248041Y-76090630D01*
X113229036Y-76084278D01*
X113166477Y-76063666D01*
X113120536Y-76052058D01*
X113068980Y-76030690D01*
X113001411Y-75989579D01*
X112958899Y-75958320D01*
X112892704Y-75912945D01*
X112832124Y-75883394D01*
X112803501Y-75876952D01*
X112767394Y-75869649D01*
X112762717Y-75856448D01*
X112750834Y-75838334D01*
X112698305Y-75818438D01*
X112610511Y-75798748D01*
X112602818Y-75797364D01*
X112564181Y-75786536D01*
X112505411Y-75762941D01*
X112419120Y-75723406D01*
X112325727Y-75678374D01*
X112243209Y-75640519D01*
X112172806Y-75612604D01*
X112127837Y-75599826D01*
X112123682Y-75599533D01*
X112089396Y-75590207D01*
X112083272Y-75579707D01*
X112063140Y-75562478D01*
X112011188Y-75538898D01*
X111960364Y-75521117D01*
X111871954Y-75487427D01*
X111786861Y-75445731D01*
X111753771Y-75425593D01*
X111693245Y-75390240D01*
X111642677Y-75370334D01*
X111631130Y-75368728D01*
X111593980Y-75358367D01*
X111527584Y-75330896D01*
X111443012Y-75291732D01*
X111351335Y-75246292D01*
X111263620Y-75199994D01*
X111190938Y-75158253D01*
X111159636Y-75137991D01*
X111096379Y-75101606D01*
X111044182Y-75080038D01*
X110990115Y-75054720D01*
X110924139Y-75012551D01*
X110902313Y-74996190D01*
X110845744Y-74956385D01*
X110800676Y-74932789D01*
X110788677Y-74930000D01*
X110749813Y-74915624D01*
X110716795Y-74891641D01*
X110686514Y-74865926D01*
X110651407Y-74841163D01*
X110601334Y-74811085D01*
X110526150Y-74769425D01*
X110469195Y-74738644D01*
X110360152Y-74673242D01*
X110241684Y-74591724D01*
X110135875Y-74509567D01*
X110108537Y-74485885D01*
X110061887Y-74446100D01*
X110015697Y-74413440D01*
X109955061Y-74378271D01*
X109883918Y-74340708D01*
X109815841Y-74302954D01*
X109767947Y-74271689D01*
X109751146Y-74254591D01*
X109731611Y-74240752D01*
X109702438Y-74237273D01*
X109667014Y-74227109D01*
X109667077Y-74202637D01*
X109664412Y-74176436D01*
X109624273Y-74167232D01*
X109617593Y-74167062D01*
X109560001Y-74151272D01*
X109493543Y-74112558D01*
X109474872Y-74097789D01*
X109420971Y-74056470D01*
X109378518Y-74032169D01*
X109367781Y-74029455D01*
X109325931Y-74014482D01*
X109258202Y-73973315D01*
X109172183Y-73911578D01*
X109075465Y-73834899D01*
X108975638Y-73748902D01*
X108919583Y-73697236D01*
X108796443Y-73581582D01*
X108701976Y-73495330D01*
X108632221Y-73435204D01*
X108583219Y-73397927D01*
X108551011Y-73380222D01*
X108533942Y-73378100D01*
X108501278Y-73365857D01*
X108476260Y-73337574D01*
X108443055Y-73300931D01*
X108419365Y-73290546D01*
X108391002Y-73271393D01*
X108377182Y-73244364D01*
X108351522Y-73206921D01*
X108329444Y-73198182D01*
X108299727Y-73185206D01*
X108296363Y-73175091D01*
X108280379Y-73152656D01*
X108275434Y-73152000D01*
X108261356Y-73168346D01*
G36*
X128019015Y-65061473D02*
X128032489Y-65106957D01*
X128086283Y-65170457D01*
X128114779Y-65196934D01*
X128172411Y-65254246D01*
X128213751Y-65306827D01*
X128227500Y-65335552D01*
X128253129Y-65377856D01*
X128300626Y-65412567D01*
X128351462Y-65446268D01*
X128379691Y-65481014D01*
X128405525Y-65527365D01*
X128434008Y-65565636D01*
X128489245Y-65632142D01*
X128551415Y-65708912D01*
X128611921Y-65785098D01*
X128662168Y-65849850D01*
X128693558Y-65892320D01*
X128697182Y-65897755D01*
X128733957Y-65947906D01*
X128749136Y-65965629D01*
X128773859Y-66002682D01*
X128778000Y-66017882D01*
X128792729Y-66044227D01*
X128831222Y-66092753D01*
X128881518Y-66149005D01*
X128934843Y-66209938D01*
X128972354Y-66260590D01*
X128985427Y-66288228D01*
X129000447Y-66315065D01*
X129008977Y-66317091D01*
X129031532Y-66336350D01*
X129060662Y-66384724D01*
X129071532Y-66408024D01*
X129103806Y-66466567D01*
X129137114Y-66503512D01*
X129146694Y-66508310D01*
X129179071Y-66533354D01*
X129216807Y-66584690D01*
X129228458Y-66605274D01*
X129302177Y-66720367D01*
X129409983Y-66852001D01*
X129464954Y-66911395D01*
X129500983Y-66955277D01*
X129516871Y-66986894D01*
X129516909Y-66987777D01*
X129535627Y-67007337D01*
X129551545Y-67009819D01*
X129579719Y-67029213D01*
X129586182Y-67057491D01*
X129602978Y-67103255D01*
X129644228Y-67153638D01*
X129652459Y-67160933D01*
X129706394Y-67219022D01*
X129746322Y-67283394D01*
X129747624Y-67286442D01*
X129772976Y-67334247D01*
X129795494Y-67356050D01*
X129796801Y-67356182D01*
X129816519Y-67373835D01*
X129817091Y-67379273D01*
X129831498Y-67412275D01*
X129857500Y-67445447D01*
X129950635Y-67547920D01*
X130011578Y-67622793D01*
X130042676Y-67673122D01*
X130048000Y-67693702D01*
X130062319Y-67719713D01*
X130076863Y-67719679D01*
X130103558Y-67731328D01*
X130142029Y-67768059D01*
X130180069Y-67815489D01*
X130205471Y-67859235D01*
X130209636Y-67876115D01*
X130221749Y-67901511D01*
X130253031Y-67952085D01*
X130284179Y-67998567D01*
X130334659Y-68075473D01*
X130380418Y-68151301D01*
X130398616Y-68184568D01*
X130438099Y-68246028D01*
X130481386Y-68292336D01*
X130485709Y-68295559D01*
X130522128Y-68332551D01*
X130532909Y-68360022D01*
X130544290Y-68393818D01*
X130551279Y-68399122D01*
X130572556Y-68421283D01*
X130609509Y-68471235D01*
X130647532Y-68528046D01*
X130691044Y-68591346D01*
X130726634Y-68635213D01*
X130744616Y-68649273D01*
X130761541Y-68668093D01*
X130763818Y-68684845D01*
X130776300Y-68722775D01*
X130806717Y-68779459D01*
X130844524Y-68837294D01*
X130879176Y-68878680D01*
X130880841Y-68880182D01*
X130896706Y-68905300D01*
X130926214Y-68960645D01*
X130963248Y-69034700D01*
X130966707Y-69041819D01*
X131019996Y-69141650D01*
X131086222Y-69251956D01*
X131142992Y-69337210D01*
X131190889Y-69410168D01*
X131223667Y-69471358D01*
X131235411Y-69509436D01*
X131234753Y-69513185D01*
X131242148Y-69546317D01*
X131258556Y-69557510D01*
X131282792Y-69586383D01*
X131279050Y-69610460D01*
X131275622Y-69637222D01*
X131288305Y-69634718D01*
X131311051Y-69643134D01*
X131336925Y-69681845D01*
X131358952Y-69736082D01*
X131370158Y-69791077D01*
X131370205Y-69808134D01*
X131382441Y-69842985D01*
X131400253Y-69850000D01*
X131426611Y-69870000D01*
X131433454Y-69906078D01*
X131446772Y-69964080D01*
X131466951Y-69995653D01*
X131498602Y-70043976D01*
X131515398Y-70088718D01*
X131538707Y-70144396D01*
X131562720Y-70175153D01*
X131590840Y-70220217D01*
X131595091Y-70244944D01*
X131604515Y-70283728D01*
X131629812Y-70352404D01*
X131666521Y-70439399D01*
X131689716Y-70490344D01*
X131733636Y-70585048D01*
X131772344Y-70669825D01*
X131800052Y-70731939D01*
X131807984Y-70750546D01*
X131837444Y-70816610D01*
X131863449Y-70869563D01*
X131885756Y-70936476D01*
X131895268Y-71012544D01*
X131895272Y-71013881D01*
X131900929Y-71068171D01*
X131914883Y-71095961D01*
X131918363Y-71096910D01*
X131936671Y-71116502D01*
X131942189Y-71148864D01*
X131956811Y-71210247D01*
X131974973Y-71243108D01*
X131998738Y-71289681D01*
X132023651Y-71361337D01*
X132035258Y-71404745D01*
X132057469Y-71482420D01*
X132082544Y-71547123D01*
X132094837Y-71569638D01*
X132119677Y-71617393D01*
X132126182Y-71644935D01*
X132135476Y-71682119D01*
X132159102Y-71743091D01*
X132175003Y-71778548D01*
X132201378Y-71849297D01*
X132212666Y-71910439D01*
X132211168Y-71930809D01*
X132211020Y-71985488D01*
X132228217Y-72050302D01*
X132228849Y-72051831D01*
X132270710Y-72163447D01*
X132305331Y-72276638D01*
X132324553Y-72361328D01*
X132335247Y-72421073D01*
X132350709Y-72502352D01*
X132359521Y-72547109D01*
X132376065Y-72636302D01*
X132390073Y-72722507D01*
X132394546Y-72754928D01*
X132403740Y-72824513D01*
X132416664Y-72916859D01*
X132427343Y-72990364D01*
X132442918Y-73096107D01*
X132460718Y-73217746D01*
X132473894Y-73308323D01*
X132484164Y-73417092D01*
X132487398Y-73541471D01*
X132484109Y-73667542D01*
X132474811Y-73781386D01*
X132460018Y-73869084D01*
X132452254Y-73894868D01*
X132448449Y-73960308D01*
X132471939Y-74043257D01*
X132515619Y-74132358D01*
X132572383Y-74216254D01*
X132635125Y-74283590D01*
X132696740Y-74323009D01*
X132723689Y-74328676D01*
X132759502Y-74339116D01*
X132822154Y-74365480D01*
X132894078Y-74400073D01*
X132976217Y-74437514D01*
X133051901Y-74464776D01*
X133098934Y-74475118D01*
X133146312Y-74487147D01*
X133165227Y-74508591D01*
X133187220Y-74528729D01*
X133251124Y-74537226D01*
X133267819Y-74537455D01*
X133332749Y-74541810D01*
X133375930Y-74552781D01*
X133383393Y-74558534D01*
X133411291Y-74568873D01*
X133472652Y-74576455D01*
X133554776Y-74579781D01*
X133563710Y-74579821D01*
X133701707Y-74580175D01*
X133799902Y-74581300D01*
X133864679Y-74583886D01*
X133902417Y-74588624D01*
X133919498Y-74596204D01*
X133922304Y-74607317D01*
X133918928Y-74618259D01*
X133918275Y-74638968D01*
X133944329Y-74645696D01*
X134006318Y-74640795D01*
X134007061Y-74640706D01*
X134074437Y-74638036D01*
X134117052Y-74646936D01*
X134123148Y-74652266D01*
X134155201Y-74670417D01*
X134196106Y-74676000D01*
X134245446Y-74681621D01*
X134324324Y-74696536D01*
X134417741Y-74717825D01*
X134441838Y-74723859D01*
X134537823Y-74746606D01*
X134624290Y-74764017D01*
X134685588Y-74773014D01*
X134694736Y-74773578D01*
X134746598Y-74781518D01*
X134772962Y-74796100D01*
X134801541Y-74805604D01*
X134858316Y-74805078D01*
X134884863Y-74801896D01*
X134960740Y-74797433D01*
X134999099Y-74811664D01*
X135000213Y-74813273D01*
X135032506Y-74828798D01*
X135060464Y-74825540D01*
X135108703Y-74820829D01*
X135129328Y-74826912D01*
X135162684Y-74834490D01*
X135229632Y-74841179D01*
X135317585Y-74845839D01*
X135347559Y-74846703D01*
X135455986Y-74851991D01*
X135527968Y-74863069D01*
X135573067Y-74881707D01*
X135584524Y-74890573D01*
X135647960Y-74926498D01*
X135711406Y-74917071D01*
X135726041Y-74908833D01*
X135745554Y-74880670D01*
X135748374Y-74824982D01*
X135743510Y-74780065D01*
X135728847Y-74694651D01*
X135704913Y-74578927D01*
X135674410Y-74443907D01*
X135644234Y-74318091D01*
X133765636Y-74318091D01*
X133754091Y-74329637D01*
X133742545Y-74318091D01*
X133754091Y-74306546D01*
X133765636Y-74318091D01*
X135644234Y-74318091D01*
X135640039Y-74300603D01*
X135604504Y-74160029D01*
X135570506Y-74033199D01*
X135540747Y-73931125D01*
X135520602Y-73871530D01*
X135491576Y-73787020D01*
X135459477Y-73679256D01*
X135454774Y-73661363D01*
X135243454Y-73661363D01*
X135225842Y-73682469D01*
X135220363Y-73683091D01*
X135200099Y-73664296D01*
X135197272Y-73647092D01*
X135208467Y-73623192D01*
X135220363Y-73625364D01*
X135242574Y-73654885D01*
X135243454Y-73661363D01*
X135454774Y-73661363D01*
X135430798Y-73570164D01*
X135428315Y-73559803D01*
X135398330Y-73442969D01*
X135358797Y-73306338D01*
X135308131Y-73144964D01*
X135244747Y-72953904D01*
X135167058Y-72728215D01*
X135104964Y-72551637D01*
X135062548Y-72434223D01*
X135024281Y-72336171D01*
X134985394Y-72248282D01*
X134941117Y-72161359D01*
X134886679Y-72066201D01*
X134871851Y-72042133D01*
X134060157Y-72042133D01*
X134056998Y-72043637D01*
X134035926Y-72027381D01*
X134031182Y-72020546D01*
X134025298Y-71998958D01*
X134028456Y-71997455D01*
X134049528Y-72013710D01*
X134054272Y-72020546D01*
X134060157Y-72042133D01*
X134871851Y-72042133D01*
X134817311Y-71953613D01*
X134728242Y-71814395D01*
X134700027Y-71770783D01*
X134648213Y-71683389D01*
X134588333Y-71571055D01*
X134527231Y-71447856D01*
X134471747Y-71327870D01*
X134428727Y-71225174D01*
X134411748Y-71177728D01*
X134370709Y-71074862D01*
X134303605Y-70942911D01*
X134209146Y-70779466D01*
X134129630Y-70650691D01*
X134069172Y-70548618D01*
X134000954Y-70423922D01*
X133984925Y-70392637D01*
X131733636Y-70392637D01*
X131722091Y-70404182D01*
X131710545Y-70392637D01*
X131722091Y-70381091D01*
X131733636Y-70392637D01*
X133984925Y-70392637D01*
X133943516Y-70311819D01*
X132899727Y-70311819D01*
X132897896Y-70333096D01*
X132889544Y-70334910D01*
X132873348Y-70323364D01*
X131710545Y-70323364D01*
X131699000Y-70334910D01*
X131687454Y-70323364D01*
X131699000Y-70311819D01*
X131710545Y-70323364D01*
X132873348Y-70323364D01*
X132866030Y-70318148D01*
X132865091Y-70311819D01*
X132872969Y-70289328D01*
X132875273Y-70288728D01*
X132894988Y-70304908D01*
X132899727Y-70311819D01*
X133943516Y-70311819D01*
X133935590Y-70296351D01*
X133915261Y-70254091D01*
X131664363Y-70254091D01*
X131652818Y-70265637D01*
X131641272Y-70254091D01*
X131652818Y-70242546D01*
X131664363Y-70254091D01*
X133915261Y-70254091D01*
X133905147Y-70233068D01*
X133881022Y-70184819D01*
X131641272Y-70184819D01*
X131629727Y-70196364D01*
X131618182Y-70184819D01*
X131629727Y-70173273D01*
X131641272Y-70184819D01*
X133881022Y-70184819D01*
X133857931Y-70138637D01*
X131618182Y-70138637D01*
X131606636Y-70150182D01*
X131595091Y-70138637D01*
X131606636Y-70127091D01*
X131618182Y-70138637D01*
X133857931Y-70138637D01*
X133834839Y-70092455D01*
X131595091Y-70092455D01*
X131583545Y-70104000D01*
X131572000Y-70092455D01*
X131583545Y-70080910D01*
X131595091Y-70092455D01*
X133834839Y-70092455D01*
X133818016Y-70058811D01*
X133777068Y-69989189D01*
X132744022Y-69989189D01*
X132736175Y-70014736D01*
X132718468Y-70032220D01*
X132708367Y-70014829D01*
X132708194Y-69978781D01*
X132709302Y-69977000D01*
X131548909Y-69977000D01*
X131537363Y-69988546D01*
X131525818Y-69977000D01*
X131537363Y-69965455D01*
X131548909Y-69977000D01*
X132709302Y-69977000D01*
X132712594Y-69971709D01*
X132734802Y-69966328D01*
X132744022Y-69989189D01*
X133777068Y-69989189D01*
X133742738Y-69930819D01*
X131525818Y-69930819D01*
X131514272Y-69942364D01*
X131502727Y-69930819D01*
X131514272Y-69919273D01*
X131525818Y-69930819D01*
X133742738Y-69930819D01*
X133736081Y-69919501D01*
X133697735Y-69867571D01*
X131746712Y-69867571D01*
X131724015Y-69871268D01*
X131694066Y-69867023D01*
X131693708Y-69859141D01*
X131724613Y-69853628D01*
X131737966Y-69857318D01*
X131746712Y-69867571D01*
X133697735Y-69867571D01*
X133676235Y-69838455D01*
X131641272Y-69838455D01*
X131629727Y-69850000D01*
X131618182Y-69838455D01*
X131629727Y-69826910D01*
X131641272Y-69838455D01*
X133676235Y-69838455D01*
X133661525Y-69818535D01*
X133603802Y-69764136D01*
X133567921Y-69726459D01*
X133557818Y-69698600D01*
X133539277Y-69669214D01*
X133522818Y-69665273D01*
X133497431Y-69646846D01*
X133453965Y-69596636D01*
X133398449Y-69522249D01*
X133336915Y-69431291D01*
X133335172Y-69428591D01*
X133254906Y-69309709D01*
X133162002Y-69180661D01*
X133070301Y-69060340D01*
X133019173Y-68997279D01*
X132960347Y-68925349D01*
X131337799Y-68925349D01*
X131330262Y-68948295D01*
X131301445Y-68962412D01*
X131291301Y-68958771D01*
X131281583Y-68934290D01*
X131292512Y-68919524D01*
X131323556Y-68906299D01*
X131337799Y-68925349D01*
X132960347Y-68925349D01*
X132930531Y-68888892D01*
X132841869Y-68776512D01*
X130853775Y-68776512D01*
X130834047Y-68773916D01*
X130821545Y-68764728D01*
X130792433Y-68722394D01*
X130787643Y-68698400D01*
X130792421Y-68676193D01*
X130810628Y-68690754D01*
X130822280Y-68705641D01*
X130849888Y-68750901D01*
X130853775Y-68776512D01*
X132841869Y-68776512D01*
X132833105Y-68765404D01*
X132743076Y-68647460D01*
X132711502Y-68604734D01*
X132629148Y-68492144D01*
X132558488Y-68397190D01*
X132530251Y-68360637D01*
X131941454Y-68360637D01*
X131929909Y-68372182D01*
X131918363Y-68360637D01*
X131929909Y-68349091D01*
X131941454Y-68360637D01*
X132530251Y-68360637D01*
X132494665Y-68314573D01*
X132453608Y-68264395D01*
X131844581Y-68264395D01*
X131844424Y-68279439D01*
X131840373Y-68279819D01*
X131821098Y-68264039D01*
X131799963Y-68239410D01*
X131779993Y-68212058D01*
X131791951Y-68217792D01*
X131808682Y-68230691D01*
X131844581Y-68264395D01*
X132453608Y-68264395D01*
X132432824Y-68238994D01*
X132368108Y-68165151D01*
X132295662Y-68087745D01*
X132210630Y-68001476D01*
X132108157Y-67901044D01*
X131983386Y-67781150D01*
X131831461Y-67636493D01*
X131776940Y-67584698D01*
X131599905Y-67416898D01*
X131452528Y-67278054D01*
X131331307Y-67164976D01*
X131232743Y-67074475D01*
X131153333Y-67003362D01*
X131089579Y-66948447D01*
X131037979Y-66906542D01*
X131006272Y-66882551D01*
X130951225Y-66837717D01*
X130875468Y-66769886D01*
X130790278Y-66689371D01*
X130729182Y-66629086D01*
X130648144Y-66549116D01*
X130572488Y-66477343D01*
X130511825Y-66422726D01*
X130480954Y-66397696D01*
X130437638Y-66359618D01*
X130417616Y-66327978D01*
X130417454Y-66325984D01*
X130401364Y-66290968D01*
X130380319Y-66268836D01*
X130346528Y-66250744D01*
X130318776Y-66271564D01*
X130314232Y-66277610D01*
X130290806Y-66302715D01*
X130265675Y-66299369D01*
X130229110Y-66273020D01*
X130180779Y-66239025D01*
X130108015Y-66192333D01*
X130026548Y-66143039D01*
X130026355Y-66142926D01*
X129938237Y-66087369D01*
X129853114Y-66027271D01*
X129794747Y-65980201D01*
X129713248Y-65917066D01*
X129629538Y-65869311D01*
X129559158Y-65845563D01*
X129550439Y-65844586D01*
X129520323Y-65830163D01*
X129468000Y-65794698D01*
X129423439Y-65760600D01*
X129345502Y-65702122D01*
X129263643Y-65646560D01*
X129228272Y-65624878D01*
X129150047Y-65577278D01*
X129052613Y-65514603D01*
X128948220Y-65445105D01*
X128849118Y-65377037D01*
X128767556Y-65318649D01*
X128724274Y-65285364D01*
X128671950Y-65249578D01*
X128629380Y-65232147D01*
X128625241Y-65231819D01*
X128589793Y-65222648D01*
X128524612Y-65198207D01*
X128467622Y-65174091D01*
X128154545Y-65174091D01*
X128143000Y-65185637D01*
X128131454Y-65174091D01*
X128143000Y-65162546D01*
X128154545Y-65174091D01*
X128467622Y-65174091D01*
X128441650Y-65163101D01*
X128410069Y-65148893D01*
X128312981Y-65107065D01*
X128247326Y-65085808D01*
X128204424Y-65082805D01*
X128185652Y-65088983D01*
X128142770Y-65097672D01*
X128093991Y-65072317D01*
X128085096Y-65065311D01*
X128045176Y-65035265D01*
X128027440Y-65034408D01*
X128019015Y-65061473D01*
X128019015Y-65061473D01*
G37*
X128019015Y-65061473D02*
X128032489Y-65106957D01*
X128086283Y-65170457D01*
X128114779Y-65196934D01*
X128172411Y-65254246D01*
X128213751Y-65306827D01*
X128227500Y-65335552D01*
X128253129Y-65377856D01*
X128300626Y-65412567D01*
X128351462Y-65446268D01*
X128379691Y-65481014D01*
X128405525Y-65527365D01*
X128434008Y-65565636D01*
X128489245Y-65632142D01*
X128551415Y-65708912D01*
X128611921Y-65785098D01*
X128662168Y-65849850D01*
X128693558Y-65892320D01*
X128697182Y-65897755D01*
X128733957Y-65947906D01*
X128749136Y-65965629D01*
X128773859Y-66002682D01*
X128778000Y-66017882D01*
X128792729Y-66044227D01*
X128831222Y-66092753D01*
X128881518Y-66149005D01*
X128934843Y-66209938D01*
X128972354Y-66260590D01*
X128985427Y-66288228D01*
X129000447Y-66315065D01*
X129008977Y-66317091D01*
X129031532Y-66336350D01*
X129060662Y-66384724D01*
X129071532Y-66408024D01*
X129103806Y-66466567D01*
X129137114Y-66503512D01*
X129146694Y-66508310D01*
X129179071Y-66533354D01*
X129216807Y-66584690D01*
X129228458Y-66605274D01*
X129302177Y-66720367D01*
X129409983Y-66852001D01*
X129464954Y-66911395D01*
X129500983Y-66955277D01*
X129516871Y-66986894D01*
X129516909Y-66987777D01*
X129535627Y-67007337D01*
X129551545Y-67009819D01*
X129579719Y-67029213D01*
X129586182Y-67057491D01*
X129602978Y-67103255D01*
X129644228Y-67153638D01*
X129652459Y-67160933D01*
X129706394Y-67219022D01*
X129746322Y-67283394D01*
X129747624Y-67286442D01*
X129772976Y-67334247D01*
X129795494Y-67356050D01*
X129796801Y-67356182D01*
X129816519Y-67373835D01*
X129817091Y-67379273D01*
X129831498Y-67412275D01*
X129857500Y-67445447D01*
X129950635Y-67547920D01*
X130011578Y-67622793D01*
X130042676Y-67673122D01*
X130048000Y-67693702D01*
X130062319Y-67719713D01*
X130076863Y-67719679D01*
X130103558Y-67731328D01*
X130142029Y-67768059D01*
X130180069Y-67815489D01*
X130205471Y-67859235D01*
X130209636Y-67876115D01*
X130221749Y-67901511D01*
X130253031Y-67952085D01*
X130284179Y-67998567D01*
X130334659Y-68075473D01*
X130380418Y-68151301D01*
X130398616Y-68184568D01*
X130438099Y-68246028D01*
X130481386Y-68292336D01*
X130485709Y-68295559D01*
X130522128Y-68332551D01*
X130532909Y-68360022D01*
X130544290Y-68393818D01*
X130551279Y-68399122D01*
X130572556Y-68421283D01*
X130609509Y-68471235D01*
X130647532Y-68528046D01*
X130691044Y-68591346D01*
X130726634Y-68635213D01*
X130744616Y-68649273D01*
X130761541Y-68668093D01*
X130763818Y-68684845D01*
X130776300Y-68722775D01*
X130806717Y-68779459D01*
X130844524Y-68837294D01*
X130879176Y-68878680D01*
X130880841Y-68880182D01*
X130896706Y-68905300D01*
X130926214Y-68960645D01*
X130963248Y-69034700D01*
X130966707Y-69041819D01*
X131019996Y-69141650D01*
X131086222Y-69251956D01*
X131142992Y-69337210D01*
X131190889Y-69410168D01*
X131223667Y-69471358D01*
X131235411Y-69509436D01*
X131234753Y-69513185D01*
X131242148Y-69546317D01*
X131258556Y-69557510D01*
X131282792Y-69586383D01*
X131279050Y-69610460D01*
X131275622Y-69637222D01*
X131288305Y-69634718D01*
X131311051Y-69643134D01*
X131336925Y-69681845D01*
X131358952Y-69736082D01*
X131370158Y-69791077D01*
X131370205Y-69808134D01*
X131382441Y-69842985D01*
X131400253Y-69850000D01*
X131426611Y-69870000D01*
X131433454Y-69906078D01*
X131446772Y-69964080D01*
X131466951Y-69995653D01*
X131498602Y-70043976D01*
X131515398Y-70088718D01*
X131538707Y-70144396D01*
X131562720Y-70175153D01*
X131590840Y-70220217D01*
X131595091Y-70244944D01*
X131604515Y-70283728D01*
X131629812Y-70352404D01*
X131666521Y-70439399D01*
X131689716Y-70490344D01*
X131733636Y-70585048D01*
X131772344Y-70669825D01*
X131800052Y-70731939D01*
X131807984Y-70750546D01*
X131837444Y-70816610D01*
X131863449Y-70869563D01*
X131885756Y-70936476D01*
X131895268Y-71012544D01*
X131895272Y-71013881D01*
X131900929Y-71068171D01*
X131914883Y-71095961D01*
X131918363Y-71096910D01*
X131936671Y-71116502D01*
X131942189Y-71148864D01*
X131956811Y-71210247D01*
X131974973Y-71243108D01*
X131998738Y-71289681D01*
X132023651Y-71361337D01*
X132035258Y-71404745D01*
X132057469Y-71482420D01*
X132082544Y-71547123D01*
X132094837Y-71569638D01*
X132119677Y-71617393D01*
X132126182Y-71644935D01*
X132135476Y-71682119D01*
X132159102Y-71743091D01*
X132175003Y-71778548D01*
X132201378Y-71849297D01*
X132212666Y-71910439D01*
X132211168Y-71930809D01*
X132211020Y-71985488D01*
X132228217Y-72050302D01*
X132228849Y-72051831D01*
X132270710Y-72163447D01*
X132305331Y-72276638D01*
X132324553Y-72361328D01*
X132335247Y-72421073D01*
X132350709Y-72502352D01*
X132359521Y-72547109D01*
X132376065Y-72636302D01*
X132390073Y-72722507D01*
X132394546Y-72754928D01*
X132403740Y-72824513D01*
X132416664Y-72916859D01*
X132427343Y-72990364D01*
X132442918Y-73096107D01*
X132460718Y-73217746D01*
X132473894Y-73308323D01*
X132484164Y-73417092D01*
X132487398Y-73541471D01*
X132484109Y-73667542D01*
X132474811Y-73781386D01*
X132460018Y-73869084D01*
X132452254Y-73894868D01*
X132448449Y-73960308D01*
X132471939Y-74043257D01*
X132515619Y-74132358D01*
X132572383Y-74216254D01*
X132635125Y-74283590D01*
X132696740Y-74323009D01*
X132723689Y-74328676D01*
X132759502Y-74339116D01*
X132822154Y-74365480D01*
X132894078Y-74400073D01*
X132976217Y-74437514D01*
X133051901Y-74464776D01*
X133098934Y-74475118D01*
X133146312Y-74487147D01*
X133165227Y-74508591D01*
X133187220Y-74528729D01*
X133251124Y-74537226D01*
X133267819Y-74537455D01*
X133332749Y-74541810D01*
X133375930Y-74552781D01*
X133383393Y-74558534D01*
X133411291Y-74568873D01*
X133472652Y-74576455D01*
X133554776Y-74579781D01*
X133563710Y-74579821D01*
X133701707Y-74580175D01*
X133799902Y-74581300D01*
X133864679Y-74583886D01*
X133902417Y-74588624D01*
X133919498Y-74596204D01*
X133922304Y-74607317D01*
X133918928Y-74618259D01*
X133918275Y-74638968D01*
X133944329Y-74645696D01*
X134006318Y-74640795D01*
X134007061Y-74640706D01*
X134074437Y-74638036D01*
X134117052Y-74646936D01*
X134123148Y-74652266D01*
X134155201Y-74670417D01*
X134196106Y-74676000D01*
X134245446Y-74681621D01*
X134324324Y-74696536D01*
X134417741Y-74717825D01*
X134441838Y-74723859D01*
X134537823Y-74746606D01*
X134624290Y-74764017D01*
X134685588Y-74773014D01*
X134694736Y-74773578D01*
X134746598Y-74781518D01*
X134772962Y-74796100D01*
X134801541Y-74805604D01*
X134858316Y-74805078D01*
X134884863Y-74801896D01*
X134960740Y-74797433D01*
X134999099Y-74811664D01*
X135000213Y-74813273D01*
X135032506Y-74828798D01*
X135060464Y-74825540D01*
X135108703Y-74820829D01*
X135129328Y-74826912D01*
X135162684Y-74834490D01*
X135229632Y-74841179D01*
X135317585Y-74845839D01*
X135347559Y-74846703D01*
X135455986Y-74851991D01*
X135527968Y-74863069D01*
X135573067Y-74881707D01*
X135584524Y-74890573D01*
X135647960Y-74926498D01*
X135711406Y-74917071D01*
X135726041Y-74908833D01*
X135745554Y-74880670D01*
X135748374Y-74824982D01*
X135743510Y-74780065D01*
X135728847Y-74694651D01*
X135704913Y-74578927D01*
X135674410Y-74443907D01*
X135644234Y-74318091D01*
X133765636Y-74318091D01*
X133754091Y-74329637D01*
X133742545Y-74318091D01*
X133754091Y-74306546D01*
X133765636Y-74318091D01*
X135644234Y-74318091D01*
X135640039Y-74300603D01*
X135604504Y-74160029D01*
X135570506Y-74033199D01*
X135540747Y-73931125D01*
X135520602Y-73871530D01*
X135491576Y-73787020D01*
X135459477Y-73679256D01*
X135454774Y-73661363D01*
X135243454Y-73661363D01*
X135225842Y-73682469D01*
X135220363Y-73683091D01*
X135200099Y-73664296D01*
X135197272Y-73647092D01*
X135208467Y-73623192D01*
X135220363Y-73625364D01*
X135242574Y-73654885D01*
X135243454Y-73661363D01*
X135454774Y-73661363D01*
X135430798Y-73570164D01*
X135428315Y-73559803D01*
X135398330Y-73442969D01*
X135358797Y-73306338D01*
X135308131Y-73144964D01*
X135244747Y-72953904D01*
X135167058Y-72728215D01*
X135104964Y-72551637D01*
X135062548Y-72434223D01*
X135024281Y-72336171D01*
X134985394Y-72248282D01*
X134941117Y-72161359D01*
X134886679Y-72066201D01*
X134871851Y-72042133D01*
X134060157Y-72042133D01*
X134056998Y-72043637D01*
X134035926Y-72027381D01*
X134031182Y-72020546D01*
X134025298Y-71998958D01*
X134028456Y-71997455D01*
X134049528Y-72013710D01*
X134054272Y-72020546D01*
X134060157Y-72042133D01*
X134871851Y-72042133D01*
X134817311Y-71953613D01*
X134728242Y-71814395D01*
X134700027Y-71770783D01*
X134648213Y-71683389D01*
X134588333Y-71571055D01*
X134527231Y-71447856D01*
X134471747Y-71327870D01*
X134428727Y-71225174D01*
X134411748Y-71177728D01*
X134370709Y-71074862D01*
X134303605Y-70942911D01*
X134209146Y-70779466D01*
X134129630Y-70650691D01*
X134069172Y-70548618D01*
X134000954Y-70423922D01*
X133984925Y-70392637D01*
X131733636Y-70392637D01*
X131722091Y-70404182D01*
X131710545Y-70392637D01*
X131722091Y-70381091D01*
X131733636Y-70392637D01*
X133984925Y-70392637D01*
X133943516Y-70311819D01*
X132899727Y-70311819D01*
X132897896Y-70333096D01*
X132889544Y-70334910D01*
X132873348Y-70323364D01*
X131710545Y-70323364D01*
X131699000Y-70334910D01*
X131687454Y-70323364D01*
X131699000Y-70311819D01*
X131710545Y-70323364D01*
X132873348Y-70323364D01*
X132866030Y-70318148D01*
X132865091Y-70311819D01*
X132872969Y-70289328D01*
X132875273Y-70288728D01*
X132894988Y-70304908D01*
X132899727Y-70311819D01*
X133943516Y-70311819D01*
X133935590Y-70296351D01*
X133915261Y-70254091D01*
X131664363Y-70254091D01*
X131652818Y-70265637D01*
X131641272Y-70254091D01*
X131652818Y-70242546D01*
X131664363Y-70254091D01*
X133915261Y-70254091D01*
X133905147Y-70233068D01*
X133881022Y-70184819D01*
X131641272Y-70184819D01*
X131629727Y-70196364D01*
X131618182Y-70184819D01*
X131629727Y-70173273D01*
X131641272Y-70184819D01*
X133881022Y-70184819D01*
X133857931Y-70138637D01*
X131618182Y-70138637D01*
X131606636Y-70150182D01*
X131595091Y-70138637D01*
X131606636Y-70127091D01*
X131618182Y-70138637D01*
X133857931Y-70138637D01*
X133834839Y-70092455D01*
X131595091Y-70092455D01*
X131583545Y-70104000D01*
X131572000Y-70092455D01*
X131583545Y-70080910D01*
X131595091Y-70092455D01*
X133834839Y-70092455D01*
X133818016Y-70058811D01*
X133777068Y-69989189D01*
X132744022Y-69989189D01*
X132736175Y-70014736D01*
X132718468Y-70032220D01*
X132708367Y-70014829D01*
X132708194Y-69978781D01*
X132709302Y-69977000D01*
X131548909Y-69977000D01*
X131537363Y-69988546D01*
X131525818Y-69977000D01*
X131537363Y-69965455D01*
X131548909Y-69977000D01*
X132709302Y-69977000D01*
X132712594Y-69971709D01*
X132734802Y-69966328D01*
X132744022Y-69989189D01*
X133777068Y-69989189D01*
X133742738Y-69930819D01*
X131525818Y-69930819D01*
X131514272Y-69942364D01*
X131502727Y-69930819D01*
X131514272Y-69919273D01*
X131525818Y-69930819D01*
X133742738Y-69930819D01*
X133736081Y-69919501D01*
X133697735Y-69867571D01*
X131746712Y-69867571D01*
X131724015Y-69871268D01*
X131694066Y-69867023D01*
X131693708Y-69859141D01*
X131724613Y-69853628D01*
X131737966Y-69857318D01*
X131746712Y-69867571D01*
X133697735Y-69867571D01*
X133676235Y-69838455D01*
X131641272Y-69838455D01*
X131629727Y-69850000D01*
X131618182Y-69838455D01*
X131629727Y-69826910D01*
X131641272Y-69838455D01*
X133676235Y-69838455D01*
X133661525Y-69818535D01*
X133603802Y-69764136D01*
X133567921Y-69726459D01*
X133557818Y-69698600D01*
X133539277Y-69669214D01*
X133522818Y-69665273D01*
X133497431Y-69646846D01*
X133453965Y-69596636D01*
X133398449Y-69522249D01*
X133336915Y-69431291D01*
X133335172Y-69428591D01*
X133254906Y-69309709D01*
X133162002Y-69180661D01*
X133070301Y-69060340D01*
X133019173Y-68997279D01*
X132960347Y-68925349D01*
X131337799Y-68925349D01*
X131330262Y-68948295D01*
X131301445Y-68962412D01*
X131291301Y-68958771D01*
X131281583Y-68934290D01*
X131292512Y-68919524D01*
X131323556Y-68906299D01*
X131337799Y-68925349D01*
X132960347Y-68925349D01*
X132930531Y-68888892D01*
X132841869Y-68776512D01*
X130853775Y-68776512D01*
X130834047Y-68773916D01*
X130821545Y-68764728D01*
X130792433Y-68722394D01*
X130787643Y-68698400D01*
X130792421Y-68676193D01*
X130810628Y-68690754D01*
X130822280Y-68705641D01*
X130849888Y-68750901D01*
X130853775Y-68776512D01*
X132841869Y-68776512D01*
X132833105Y-68765404D01*
X132743076Y-68647460D01*
X132711502Y-68604734D01*
X132629148Y-68492144D01*
X132558488Y-68397190D01*
X132530251Y-68360637D01*
X131941454Y-68360637D01*
X131929909Y-68372182D01*
X131918363Y-68360637D01*
X131929909Y-68349091D01*
X131941454Y-68360637D01*
X132530251Y-68360637D01*
X132494665Y-68314573D01*
X132453608Y-68264395D01*
X131844581Y-68264395D01*
X131844424Y-68279439D01*
X131840373Y-68279819D01*
X131821098Y-68264039D01*
X131799963Y-68239410D01*
X131779993Y-68212058D01*
X131791951Y-68217792D01*
X131808682Y-68230691D01*
X131844581Y-68264395D01*
X132453608Y-68264395D01*
X132432824Y-68238994D01*
X132368108Y-68165151D01*
X132295662Y-68087745D01*
X132210630Y-68001476D01*
X132108157Y-67901044D01*
X131983386Y-67781150D01*
X131831461Y-67636493D01*
X131776940Y-67584698D01*
X131599905Y-67416898D01*
X131452528Y-67278054D01*
X131331307Y-67164976D01*
X131232743Y-67074475D01*
X131153333Y-67003362D01*
X131089579Y-66948447D01*
X131037979Y-66906542D01*
X131006272Y-66882551D01*
X130951225Y-66837717D01*
X130875468Y-66769886D01*
X130790278Y-66689371D01*
X130729182Y-66629086D01*
X130648144Y-66549116D01*
X130572488Y-66477343D01*
X130511825Y-66422726D01*
X130480954Y-66397696D01*
X130437638Y-66359618D01*
X130417616Y-66327978D01*
X130417454Y-66325984D01*
X130401364Y-66290968D01*
X130380319Y-66268836D01*
X130346528Y-66250744D01*
X130318776Y-66271564D01*
X130314232Y-66277610D01*
X130290806Y-66302715D01*
X130265675Y-66299369D01*
X130229110Y-66273020D01*
X130180779Y-66239025D01*
X130108015Y-66192333D01*
X130026548Y-66143039D01*
X130026355Y-66142926D01*
X129938237Y-66087369D01*
X129853114Y-66027271D01*
X129794747Y-65980201D01*
X129713248Y-65917066D01*
X129629538Y-65869311D01*
X129559158Y-65845563D01*
X129550439Y-65844586D01*
X129520323Y-65830163D01*
X129468000Y-65794698D01*
X129423439Y-65760600D01*
X129345502Y-65702122D01*
X129263643Y-65646560D01*
X129228272Y-65624878D01*
X129150047Y-65577278D01*
X129052613Y-65514603D01*
X128948220Y-65445105D01*
X128849118Y-65377037D01*
X128767556Y-65318649D01*
X128724274Y-65285364D01*
X128671950Y-65249578D01*
X128629380Y-65232147D01*
X128625241Y-65231819D01*
X128589793Y-65222648D01*
X128524612Y-65198207D01*
X128467622Y-65174091D01*
X128154545Y-65174091D01*
X128143000Y-65185637D01*
X128131454Y-65174091D01*
X128143000Y-65162546D01*
X128154545Y-65174091D01*
X128467622Y-65174091D01*
X128441650Y-65163101D01*
X128410069Y-65148893D01*
X128312981Y-65107065D01*
X128247326Y-65085808D01*
X128204424Y-65082805D01*
X128185652Y-65088983D01*
X128142770Y-65097672D01*
X128093991Y-65072317D01*
X128085096Y-65065311D01*
X128045176Y-65035265D01*
X128027440Y-65034408D01*
X128019015Y-65061473D01*
M02*
