%TF.GenerationSoftware,KiCad,Pcbnew,4.0.7*%
%TF.CreationDate,2020-08-23T22:37:39+12:00*%
%TF.ProjectId,jar-of-dirt,6A61722D6F662D646972742E6B696361,rev?*%
%TF.FileFunction,Soldermask,Bot*%
%FSLAX46Y46*%
G04 Gerber Fmt 4.6, Leading zero omitted, Abs format (unit mm)*
G04 Created by KiCad (PCBNEW 4.0.7) date 2020 August 23, Sunday 22:37:39*
%MOMM*%
%LPD*%
G01*
G04 APERTURE LIST*
%ADD10C,0.150000*%
%ADD11C,1.840000*%
%ADD12C,3.399740*%
%ADD13C,4.400500*%
%ADD14R,2.000000X2.000000*%
%ADD15C,2.000000*%
%ADD16O,2.000000X2.000000*%
%ADD17R,2.200000X2.200000*%
%ADD18C,2.200000*%
%ADD19C,2.400000*%
%ADD20O,2.200000X2.200000*%
G04 APERTURE END LIST*
D10*
X146578940Y-74930000D02*
G75*
G03X146578940Y-74930000I-24658940J0D01*
G01*
D11*
X124460000Y-64770000D03*
X127000000Y-67310000D03*
X124460000Y-69850000D03*
D12*
X102235000Y-82379852D03*
X106045000Y-88978966D03*
D13*
X141190533Y-82569294D03*
X142513732Y-75065059D03*
D14*
X133350000Y-76200000D03*
D15*
X133350000Y-79700000D03*
D14*
X132080000Y-87630000D03*
D15*
X135580000Y-87630000D03*
X111760000Y-92710000D03*
D16*
X127000000Y-92710000D03*
D14*
X119291100Y-73253600D03*
D16*
X126911100Y-80873600D03*
X119291100Y-75793600D03*
X126911100Y-78333600D03*
X119291100Y-78333600D03*
X126911100Y-75793600D03*
X119291100Y-80873600D03*
X126911100Y-73253600D03*
D17*
X120650000Y-54610000D03*
D18*
X123190000Y-54610000D03*
D15*
X125730000Y-60960000D03*
D16*
X110490000Y-60960000D03*
D14*
X132080000Y-64770000D03*
D15*
X132080000Y-67270000D03*
D19*
X114300000Y-74930000D03*
X114300000Y-79930000D03*
X120650000Y-85090000D03*
X125650000Y-85090000D03*
X125730000Y-88900000D03*
X120730000Y-88900000D03*
X138430000Y-71120000D03*
X138430000Y-66120000D03*
D14*
X115570000Y-57150000D03*
D15*
X115570000Y-54650000D03*
D13*
X101600000Y-73660000D03*
X104229601Y-63846194D03*
D11*
X134620000Y-58420000D03*
X132080000Y-60960000D03*
X129540000Y-58420000D03*
X114300000Y-64770000D03*
X116840000Y-67310000D03*
X114300000Y-69850000D03*
D17*
X107950000Y-67310000D03*
D20*
X107950000Y-77470000D03*
M02*
