%TF.GenerationSoftware,KiCad,Pcbnew,4.0.7*%
%TF.CreationDate,2020-08-23T22:37:38+12:00*%
%TF.ProjectId,jar-of-dirt,6A61722D6F662D646972742E6B696361,rev?*%
%TF.FileFunction,Copper,L2,Bot,Signal*%
%FSLAX46Y46*%
G04 Gerber Fmt 4.6, Leading zero omitted, Abs format (unit mm)*
G04 Created by KiCad (PCBNEW 4.0.7) date 2020 August 23, Sunday 22:37:38*
%MOMM*%
%LPD*%
G01*
G04 APERTURE LIST*
%ADD10C,0.150000*%
%ADD11C,1.440000*%
%ADD12C,2.999740*%
%ADD13C,4.000500*%
%ADD14R,1.600000X1.600000*%
%ADD15C,1.600000*%
%ADD16O,1.600000X1.600000*%
%ADD17R,1.800000X1.800000*%
%ADD18C,1.800000*%
%ADD19C,2.000000*%
%ADD20O,1.800000X1.800000*%
%ADD21C,2.000000*%
%ADD22C,1.900000*%
%ADD23C,2.400000*%
%ADD24C,0.800000*%
G04 APERTURE END LIST*
D10*
X146578940Y-74930000D02*
G75*
G03X146578940Y-74930000I-24658940J0D01*
G01*
D11*
X124460000Y-64770000D03*
X127000000Y-67310000D03*
X124460000Y-69850000D03*
D12*
X102235000Y-82379852D03*
X106045000Y-88978966D03*
D13*
X141190533Y-82569294D03*
X142513732Y-75065059D03*
D14*
X133350000Y-76200000D03*
D15*
X133350000Y-79700000D03*
D14*
X132080000Y-87630000D03*
D15*
X135580000Y-87630000D03*
X111760000Y-92710000D03*
D16*
X127000000Y-92710000D03*
D14*
X119291100Y-73253600D03*
D16*
X126911100Y-80873600D03*
X119291100Y-75793600D03*
X126911100Y-78333600D03*
X119291100Y-78333600D03*
X126911100Y-75793600D03*
X119291100Y-80873600D03*
X126911100Y-73253600D03*
D17*
X120650000Y-54610000D03*
D18*
X123190000Y-54610000D03*
D15*
X125730000Y-60960000D03*
D16*
X110490000Y-60960000D03*
D14*
X132080000Y-64770000D03*
D15*
X132080000Y-67270000D03*
D19*
X114300000Y-74930000D03*
X114300000Y-79930000D03*
X120650000Y-85090000D03*
X125650000Y-85090000D03*
X125730000Y-88900000D03*
X120730000Y-88900000D03*
X138430000Y-71120000D03*
X138430000Y-66120000D03*
D14*
X115570000Y-57150000D03*
D15*
X115570000Y-54650000D03*
D13*
X101600000Y-73660000D03*
X104229601Y-63846194D03*
D11*
X134620000Y-58420000D03*
X132080000Y-60960000D03*
X129540000Y-58420000D03*
X114300000Y-64770000D03*
X116840000Y-67310000D03*
X114300000Y-69850000D03*
D17*
X107950000Y-67310000D03*
D20*
X107950000Y-77470000D03*
D21*
X125650000Y-85090000D02*
X125650000Y-83740000D01*
X124866400Y-75793600D02*
X126911100Y-75793600D01*
X124460000Y-76200000D02*
X124866400Y-75793600D01*
X124460000Y-82550000D02*
X124460000Y-76200000D01*
X125650000Y-83740000D02*
X124460000Y-82550000D01*
D22*
X132080000Y-64770000D02*
X132080000Y-60960000D01*
D23*
X127000000Y-67310000D02*
X130810000Y-71120000D01*
X130810000Y-71120000D02*
X138430000Y-71120000D01*
D21*
X129540000Y-58420000D02*
X127000000Y-58420000D01*
X119340002Y-62269998D02*
X119340002Y-73253600D01*
X124460000Y-57150000D02*
X119340002Y-62269998D01*
X125730000Y-57150000D02*
X124460000Y-57150000D01*
X127000000Y-58420000D02*
X125730000Y-57150000D01*
X119340002Y-73253600D02*
X119291100Y-73253600D01*
X119291100Y-78333600D02*
X117703600Y-78333600D01*
X116840000Y-77470000D02*
X116840000Y-67310000D01*
X117703600Y-78333600D02*
X116840000Y-77470000D01*
D24*
G36*
X130983451Y-53048893D02*
X138667075Y-58182925D01*
X143801107Y-65866549D01*
X145603940Y-74930000D01*
X144339558Y-81286474D01*
X144074806Y-80645723D01*
X143119135Y-79688383D01*
X141869852Y-79169635D01*
X140517149Y-79168455D01*
X139266962Y-79685021D01*
X138309622Y-80640692D01*
X137790874Y-81889975D01*
X137789694Y-83242678D01*
X138306260Y-84492865D01*
X139261931Y-85450205D01*
X140511214Y-85968953D01*
X141863917Y-85970133D01*
X142715417Y-85618301D01*
X138667075Y-91677075D01*
X130983451Y-96811107D01*
X121920000Y-98613940D01*
X112856549Y-96811107D01*
X107222665Y-93046667D01*
X110059706Y-93046667D01*
X110317970Y-93671715D01*
X110795770Y-94150350D01*
X111420366Y-94409704D01*
X112096667Y-94410294D01*
X112721715Y-94152030D01*
X113200350Y-93674230D01*
X113459704Y-93049634D01*
X113460000Y-92710000D01*
X125266695Y-92710000D01*
X125396100Y-93360562D01*
X125764613Y-93912082D01*
X126316133Y-94280595D01*
X126966695Y-94410000D01*
X127033305Y-94410000D01*
X127683867Y-94280595D01*
X128235387Y-93912082D01*
X128603900Y-93360562D01*
X128733305Y-92710000D01*
X128603900Y-92059438D01*
X128235387Y-91507918D01*
X127683867Y-91139405D01*
X127033305Y-91010000D01*
X126966695Y-91010000D01*
X126316133Y-91139405D01*
X125764613Y-91507918D01*
X125396100Y-92059438D01*
X125266695Y-92710000D01*
X113460000Y-92710000D01*
X113460294Y-92373333D01*
X113202030Y-91748285D01*
X112724230Y-91269650D01*
X112099634Y-91010296D01*
X111423333Y-91009706D01*
X110798285Y-91267970D01*
X110319650Y-91745770D01*
X110060296Y-92370366D01*
X110059706Y-93046667D01*
X107222665Y-93046667D01*
X105172925Y-91677075D01*
X104929582Y-91312886D01*
X105098150Y-91481454D01*
X105386305Y-91193298D01*
X106228061Y-91193298D01*
X106547366Y-91373726D01*
X107425561Y-90999189D01*
X107867740Y-90611408D01*
X107869591Y-90411506D01*
X119925601Y-90411506D01*
X120034418Y-90708037D01*
X120779272Y-90836596D01*
X121425582Y-90708037D01*
X121534399Y-90411506D01*
X120730000Y-89607107D01*
X119925601Y-90411506D01*
X107869591Y-90411506D01*
X107871137Y-90244668D01*
X106575284Y-89897445D01*
X106228061Y-91193298D01*
X105386305Y-91193298D01*
X106030859Y-90548744D01*
X105097959Y-89615844D01*
X105126521Y-89509250D01*
X104941894Y-89459779D01*
X104475222Y-88993107D01*
X104205788Y-89262540D01*
X103830668Y-89162027D01*
X103675687Y-89436299D01*
X103350267Y-88949272D01*
X118793404Y-88949272D01*
X118921963Y-89595582D01*
X119218494Y-89704399D01*
X120022893Y-88900000D01*
X121437107Y-88900000D01*
X122241506Y-89704399D01*
X122538037Y-89595582D01*
X122593148Y-89276275D01*
X123829671Y-89276275D01*
X124118319Y-89974857D01*
X124652331Y-90509802D01*
X125350409Y-90799669D01*
X126106275Y-90800329D01*
X126804857Y-90511681D01*
X127339802Y-89977669D01*
X127629669Y-89279591D01*
X127630329Y-88523725D01*
X127341681Y-87825143D01*
X126807669Y-87290198D01*
X126109591Y-87000331D01*
X125353725Y-86999671D01*
X124655143Y-87288319D01*
X124120198Y-87822331D01*
X123830331Y-88520409D01*
X123829671Y-89276275D01*
X122593148Y-89276275D01*
X122666596Y-88850728D01*
X122538037Y-88204418D01*
X122241506Y-88095601D01*
X121437107Y-88900000D01*
X120022893Y-88900000D01*
X119218494Y-88095601D01*
X118921963Y-88204418D01*
X118793404Y-88949272D01*
X103350267Y-88949272D01*
X103015784Y-88448682D01*
X106963479Y-88448682D01*
X108259332Y-88795905D01*
X108439760Y-88476600D01*
X108065223Y-87598405D01*
X107677442Y-87156226D01*
X107310702Y-87152829D01*
X106963479Y-88448682D01*
X103015784Y-88448682D01*
X102524393Y-87713264D01*
X104218863Y-87713264D01*
X105514716Y-88060487D01*
X105861939Y-86764634D01*
X105573250Y-86601506D01*
X119845601Y-86601506D01*
X119954418Y-86898037D01*
X120519248Y-86995524D01*
X120034418Y-87091963D01*
X119925601Y-87388494D01*
X120730000Y-88192893D01*
X121534399Y-87388494D01*
X121425582Y-87091963D01*
X120860752Y-86994476D01*
X121345582Y-86898037D01*
X121454399Y-86601506D01*
X120650000Y-85797107D01*
X119845601Y-86601506D01*
X105573250Y-86601506D01*
X105542634Y-86584206D01*
X104664439Y-86958743D01*
X104222260Y-87346524D01*
X104218863Y-87713264D01*
X102524393Y-87713264D01*
X100607090Y-84843818D01*
X101655650Y-85279218D01*
X102809289Y-85280224D01*
X103150419Y-85139272D01*
X118713404Y-85139272D01*
X118841963Y-85785582D01*
X119138494Y-85894399D01*
X119942893Y-85090000D01*
X121357107Y-85090000D01*
X122161506Y-85894399D01*
X122458037Y-85785582D01*
X122586596Y-85040728D01*
X122458037Y-84394418D01*
X122161506Y-84285601D01*
X121357107Y-85090000D01*
X119942893Y-85090000D01*
X119138494Y-84285601D01*
X118841963Y-84394418D01*
X118713404Y-85139272D01*
X103150419Y-85139272D01*
X103875499Y-84839676D01*
X104691957Y-84024641D01*
X104877213Y-83578494D01*
X119845601Y-83578494D01*
X120650000Y-84382893D01*
X121454399Y-83578494D01*
X121345582Y-83281963D01*
X120600728Y-83153404D01*
X119954418Y-83281963D01*
X119845601Y-83578494D01*
X104877213Y-83578494D01*
X105134366Y-82959202D01*
X105135372Y-81805563D01*
X104694824Y-80739353D01*
X104361349Y-80405295D01*
X111899584Y-80405295D01*
X112264192Y-81287715D01*
X112938734Y-81963435D01*
X113820516Y-82329583D01*
X114775295Y-82330416D01*
X115657715Y-81965808D01*
X116097142Y-81527147D01*
X117721745Y-81527147D01*
X118086720Y-82073416D01*
X118637548Y-82442982D01*
X118891100Y-82300898D01*
X118891100Y-81273600D01*
X119691100Y-81273600D01*
X119691100Y-82300898D01*
X119944652Y-82442982D01*
X120495480Y-82073416D01*
X120860455Y-81527147D01*
X120710827Y-81273600D01*
X119691100Y-81273600D01*
X118891100Y-81273600D01*
X117871373Y-81273600D01*
X117721745Y-81527147D01*
X116097142Y-81527147D01*
X116333435Y-81291266D01*
X116699583Y-80409484D01*
X116700024Y-79904235D01*
X116976501Y-80088971D01*
X117703600Y-80233600D01*
X117729740Y-80233600D01*
X117871373Y-80473600D01*
X118891100Y-80473600D01*
X118891100Y-80233600D01*
X119291100Y-80233600D01*
X119691100Y-80154035D01*
X119691100Y-80473600D01*
X120710827Y-80473600D01*
X120860455Y-80220053D01*
X120539952Y-79740347D01*
X120634603Y-79677103D01*
X121046471Y-79060699D01*
X121191100Y-78333600D01*
X121046471Y-77606501D01*
X120634603Y-76990097D01*
X120539952Y-76926853D01*
X120860455Y-76447147D01*
X120714604Y-76200000D01*
X122560000Y-76200000D01*
X122560000Y-82550000D01*
X122704629Y-83277099D01*
X122906015Y-83578494D01*
X123116497Y-83893503D01*
X123750000Y-84527006D01*
X123750000Y-85089487D01*
X123749671Y-85466275D01*
X124038319Y-86164857D01*
X124572331Y-86699802D01*
X125270409Y-86989669D01*
X126026275Y-86990329D01*
X126414301Y-86830000D01*
X130362368Y-86830000D01*
X130362368Y-88430000D01*
X130425124Y-88763520D01*
X130622234Y-89069838D01*
X130922990Y-89275336D01*
X131280000Y-89347632D01*
X132880000Y-89347632D01*
X133213520Y-89284876D01*
X133519838Y-89087766D01*
X133695628Y-88830489D01*
X133713843Y-88874572D01*
X134332173Y-89493982D01*
X135140473Y-89829618D01*
X136015687Y-89830381D01*
X136824572Y-89496157D01*
X137443982Y-88877827D01*
X137779618Y-88069527D01*
X137780381Y-87194313D01*
X137446157Y-86385428D01*
X136827827Y-85766018D01*
X136019527Y-85430382D01*
X135144313Y-85429619D01*
X134335428Y-85763843D01*
X133716018Y-86382173D01*
X133694566Y-86433836D01*
X133537766Y-86190162D01*
X133237010Y-85984664D01*
X132880000Y-85912368D01*
X131280000Y-85912368D01*
X130946480Y-85975124D01*
X130640162Y-86172234D01*
X130434664Y-86472990D01*
X130362368Y-86830000D01*
X126414301Y-86830000D01*
X126724857Y-86701681D01*
X127259802Y-86167669D01*
X127549669Y-85469591D01*
X127550329Y-84713725D01*
X127550000Y-84712929D01*
X127550000Y-83740000D01*
X127405371Y-83012901D01*
X127092197Y-82544202D01*
X127594967Y-82444195D01*
X128146487Y-82075682D01*
X128515000Y-81524162D01*
X128617037Y-81011187D01*
X132604499Y-81011187D01*
X132682296Y-81299536D01*
X133345238Y-81433298D01*
X134008905Y-81303181D01*
X134017704Y-81299536D01*
X134095501Y-81011187D01*
X133350000Y-80265685D01*
X132604499Y-81011187D01*
X128617037Y-81011187D01*
X128644405Y-80873600D01*
X128515000Y-80223038D01*
X128162337Y-79695238D01*
X131616702Y-79695238D01*
X131746819Y-80358905D01*
X131750464Y-80367704D01*
X132038813Y-80445501D01*
X132784315Y-79700000D01*
X133915685Y-79700000D01*
X134661187Y-80445501D01*
X134949536Y-80367704D01*
X135083298Y-79704762D01*
X134953181Y-79041095D01*
X134949536Y-79032296D01*
X134661187Y-78954499D01*
X133915685Y-79700000D01*
X132784315Y-79700000D01*
X132038813Y-78954499D01*
X131750464Y-79032296D01*
X131616702Y-79695238D01*
X128162337Y-79695238D01*
X128146487Y-79671518D01*
X128044840Y-79603600D01*
X128146487Y-79535682D01*
X128515000Y-78984162D01*
X128633422Y-78388813D01*
X132604499Y-78388813D01*
X133350000Y-79134315D01*
X134095501Y-78388813D01*
X134017704Y-78100464D01*
X133354762Y-77966702D01*
X132691095Y-78096819D01*
X132682296Y-78100464D01*
X132604499Y-78388813D01*
X128633422Y-78388813D01*
X128644405Y-78333600D01*
X128515000Y-77683038D01*
X128182438Y-77185322D01*
X128254603Y-77137103D01*
X128666471Y-76520699D01*
X128811100Y-75793600D01*
X128732809Y-75400000D01*
X131632368Y-75400000D01*
X131632368Y-77000000D01*
X131695124Y-77333520D01*
X131892234Y-77639838D01*
X132192990Y-77845336D01*
X132550000Y-77917632D01*
X134150000Y-77917632D01*
X134483520Y-77854876D01*
X134789838Y-77657766D01*
X134995336Y-77357010D01*
X134998255Y-77342591D01*
X141004743Y-77342591D01*
X141206694Y-77717589D01*
X142321266Y-78015858D01*
X142834727Y-78004655D01*
X143152756Y-77721344D01*
X142268126Y-76457962D01*
X141004743Y-77342591D01*
X134998255Y-77342591D01*
X135067632Y-77000000D01*
X135067632Y-75400000D01*
X135004876Y-75066480D01*
X134880114Y-74872593D01*
X139562933Y-74872593D01*
X139574136Y-75386054D01*
X139857447Y-75704083D01*
X140419305Y-75310665D01*
X143906635Y-75310665D01*
X144791264Y-76574048D01*
X145166262Y-76372097D01*
X145464531Y-75257525D01*
X145453328Y-74744064D01*
X145170017Y-74426035D01*
X143906635Y-75310665D01*
X140419305Y-75310665D01*
X141120829Y-74819453D01*
X140236200Y-73556070D01*
X139861202Y-73758021D01*
X139562933Y-74872593D01*
X134880114Y-74872593D01*
X134807766Y-74760162D01*
X134507010Y-74554664D01*
X134150000Y-74482368D01*
X132550000Y-74482368D01*
X132216480Y-74545124D01*
X131910162Y-74742234D01*
X131704664Y-75042990D01*
X131632368Y-75400000D01*
X128732809Y-75400000D01*
X128666471Y-75066501D01*
X128254603Y-74450097D01*
X128182438Y-74401878D01*
X128515000Y-73904162D01*
X128644405Y-73253600D01*
X128515000Y-72603038D01*
X128146487Y-72051518D01*
X127594967Y-71683005D01*
X126944405Y-71553600D01*
X126877795Y-71553600D01*
X126227233Y-71683005D01*
X125675713Y-72051518D01*
X125307200Y-72603038D01*
X125177795Y-73253600D01*
X125305099Y-73893600D01*
X124866400Y-73893600D01*
X124139301Y-74038229D01*
X123558908Y-74426035D01*
X123522897Y-74450097D01*
X123116497Y-74856497D01*
X122704629Y-75472901D01*
X122560000Y-76200000D01*
X120714604Y-76200000D01*
X120710827Y-76193600D01*
X119691100Y-76193600D01*
X119691100Y-76513165D01*
X119291100Y-76433600D01*
X118891100Y-76433600D01*
X118891100Y-76193600D01*
X118740000Y-76193600D01*
X118740000Y-75393600D01*
X118891100Y-75393600D01*
X118891100Y-75074035D01*
X119291100Y-75153600D01*
X119340002Y-75153600D01*
X119691100Y-75083762D01*
X119691100Y-75393600D01*
X120710827Y-75393600D01*
X120860455Y-75140053D01*
X120621213Y-74781972D01*
X120730938Y-74711366D01*
X120936436Y-74410610D01*
X120992238Y-74135052D01*
X121095373Y-73980699D01*
X121240002Y-73253600D01*
X121240002Y-63057004D01*
X124281423Y-60015583D01*
X124030296Y-60620366D01*
X124029706Y-61296667D01*
X124287970Y-61921715D01*
X124765770Y-62400350D01*
X125390366Y-62659704D01*
X126066667Y-62660294D01*
X126691715Y-62402030D01*
X127170350Y-61924230D01*
X127429704Y-61299634D01*
X127430294Y-60623333D01*
X127304960Y-60320000D01*
X129540000Y-60320000D01*
X130267099Y-60175371D01*
X130547025Y-59988330D01*
X130370823Y-60252036D01*
X130230000Y-60960000D01*
X130230000Y-64770000D01*
X130362368Y-65435458D01*
X130362368Y-65570000D01*
X130425124Y-65903520D01*
X130622234Y-66209838D01*
X130689624Y-66255883D01*
X130639650Y-66305770D01*
X130380296Y-66930366D01*
X130379706Y-67606667D01*
X130459407Y-67799559D01*
X128484924Y-65825076D01*
X127803635Y-65369853D01*
X127000000Y-65210000D01*
X126196365Y-65369853D01*
X125876199Y-65583781D01*
X126079718Y-65093652D01*
X126080281Y-64449176D01*
X125834170Y-63853542D01*
X125378855Y-63397431D01*
X124783652Y-63150282D01*
X124139176Y-63149719D01*
X123543542Y-63395830D01*
X123087431Y-63851145D01*
X122840282Y-64446348D01*
X122839719Y-65090824D01*
X123085830Y-65686458D01*
X123541145Y-66142569D01*
X124136348Y-66389718D01*
X124780824Y-66390281D01*
X125273416Y-66186746D01*
X125059853Y-66506365D01*
X124900000Y-67310000D01*
X125059853Y-68113635D01*
X125273781Y-68433801D01*
X124783652Y-68230282D01*
X124139176Y-68229719D01*
X123543542Y-68475830D01*
X123087431Y-68931145D01*
X122840282Y-69526348D01*
X122839719Y-70170824D01*
X123085830Y-70766458D01*
X123541145Y-71222569D01*
X124136348Y-71469718D01*
X124780824Y-71470281D01*
X125376458Y-71224170D01*
X125832569Y-70768855D01*
X126079718Y-70173652D01*
X126080281Y-69529176D01*
X125961249Y-69241097D01*
X129325076Y-72604924D01*
X130006365Y-73060147D01*
X130810000Y-73220000D01*
X138430000Y-73220000D01*
X139233635Y-73060147D01*
X139914924Y-72604924D01*
X140045987Y-72408774D01*
X141874708Y-72408774D01*
X142759338Y-73672156D01*
X144022721Y-72787527D01*
X143820770Y-72412529D01*
X142706198Y-72114260D01*
X142192737Y-72125463D01*
X141874708Y-72408774D01*
X140045987Y-72408774D01*
X140370147Y-71923635D01*
X140530000Y-71120000D01*
X140370147Y-70316365D01*
X139914924Y-69635076D01*
X139233635Y-69179853D01*
X138430000Y-69020000D01*
X131679848Y-69020000D01*
X131550864Y-68891016D01*
X131740366Y-68969704D01*
X132416667Y-68970294D01*
X133041715Y-68712030D01*
X133520350Y-68234230D01*
X133779704Y-67609634D01*
X133780294Y-66933333D01*
X133599706Y-66496275D01*
X136529671Y-66496275D01*
X136818319Y-67194857D01*
X137352331Y-67729802D01*
X138050409Y-68019669D01*
X138806275Y-68020329D01*
X139504857Y-67731681D01*
X140039802Y-67197669D01*
X140329669Y-66499591D01*
X140330329Y-65743725D01*
X140041681Y-65045143D01*
X139507669Y-64510198D01*
X138809591Y-64220331D01*
X138053725Y-64219671D01*
X137355143Y-64508319D01*
X136820198Y-65042331D01*
X136530331Y-65740409D01*
X136529671Y-66496275D01*
X133599706Y-66496275D01*
X133522030Y-66308285D01*
X133472232Y-66258400D01*
X133519838Y-66227766D01*
X133725336Y-65927010D01*
X133797632Y-65570000D01*
X133797632Y-65435458D01*
X133930000Y-64770000D01*
X133930000Y-60960000D01*
X133789177Y-60252036D01*
X133388148Y-59651852D01*
X132787964Y-59250823D01*
X132080000Y-59110000D01*
X131372036Y-59250823D01*
X131108330Y-59427025D01*
X131295371Y-59147099D01*
X131376184Y-58740824D01*
X132999719Y-58740824D01*
X133245830Y-59336458D01*
X133701145Y-59792569D01*
X134296348Y-60039718D01*
X134940824Y-60040281D01*
X135536458Y-59794170D01*
X135992569Y-59338855D01*
X136239718Y-58743652D01*
X136240281Y-58099176D01*
X135994170Y-57503542D01*
X135538855Y-57047431D01*
X134943652Y-56800282D01*
X134299176Y-56799719D01*
X133703542Y-57045830D01*
X133247431Y-57501145D01*
X133000282Y-58096348D01*
X132999719Y-58740824D01*
X131376184Y-58740824D01*
X131440000Y-58420000D01*
X131295371Y-57692901D01*
X130883503Y-57076497D01*
X130267099Y-56664629D01*
X129540000Y-56520000D01*
X127787006Y-56520000D01*
X127073503Y-55806497D01*
X126902496Y-55692234D01*
X126457099Y-55394629D01*
X125730000Y-55250000D01*
X124873260Y-55250000D01*
X124989687Y-54969613D01*
X124990312Y-54253529D01*
X124716855Y-53591714D01*
X124210949Y-53084924D01*
X123549613Y-52810313D01*
X122833529Y-52809688D01*
X122188855Y-53076063D01*
X122059809Y-52947017D01*
X121729021Y-52810000D01*
X121325000Y-52810000D01*
X121100000Y-53035000D01*
X121100000Y-54160000D01*
X121427845Y-54160000D01*
X121390313Y-54250387D01*
X121389688Y-54966471D01*
X121428333Y-55060000D01*
X121100000Y-55060000D01*
X121100000Y-56185000D01*
X121325000Y-56410000D01*
X121729021Y-56410000D01*
X122059809Y-56272983D01*
X122189306Y-56143486D01*
X122606340Y-56316654D01*
X117996499Y-60926495D01*
X117584631Y-61542899D01*
X117440002Y-62269998D01*
X117440002Y-65529348D01*
X116840000Y-65410000D01*
X116112901Y-65554629D01*
X115496497Y-65966497D01*
X115084629Y-66582901D01*
X114940000Y-67310000D01*
X114940000Y-68361641D01*
X114623652Y-68230282D01*
X113979176Y-68229719D01*
X113383542Y-68475830D01*
X112927431Y-68931145D01*
X112680282Y-69526348D01*
X112679719Y-70170824D01*
X112925830Y-70766458D01*
X113381145Y-71222569D01*
X113976348Y-71469718D01*
X114620824Y-71470281D01*
X114940000Y-71338400D01*
X114940000Y-73138462D01*
X114679591Y-73030331D01*
X113923725Y-73029671D01*
X113225143Y-73318319D01*
X112690198Y-73852331D01*
X112400331Y-74550409D01*
X112399671Y-75306275D01*
X112688319Y-76004857D01*
X113222331Y-76539802D01*
X113920409Y-76829669D01*
X114676275Y-76830329D01*
X114940000Y-76721360D01*
X114940000Y-77470000D01*
X114967551Y-77608509D01*
X114779484Y-77530417D01*
X113824705Y-77529584D01*
X112942285Y-77894192D01*
X112266565Y-78568734D01*
X111900417Y-79450516D01*
X111899584Y-80405295D01*
X104361349Y-80405295D01*
X103879789Y-79922895D01*
X102814350Y-79480486D01*
X101660711Y-79479480D01*
X100594501Y-79920028D01*
X99778043Y-80735063D01*
X99516194Y-81365666D01*
X98732335Y-77424940D01*
X105650000Y-77424940D01*
X105650000Y-77515060D01*
X105825077Y-78395232D01*
X106323654Y-79141406D01*
X107069828Y-79639983D01*
X107950000Y-79815060D01*
X108830172Y-79639983D01*
X109576346Y-79141406D01*
X110074923Y-78395232D01*
X110250000Y-77515060D01*
X110250000Y-77424940D01*
X110074923Y-76544768D01*
X109576346Y-75798594D01*
X108830172Y-75300017D01*
X107950000Y-75124940D01*
X107069828Y-75300017D01*
X106323654Y-75798594D01*
X105825077Y-76544768D01*
X105650000Y-77424940D01*
X98732335Y-77424940D01*
X98236060Y-74930000D01*
X98304178Y-74587546D01*
X98715727Y-75583571D01*
X99671398Y-76540911D01*
X100920681Y-77059659D01*
X102273384Y-77060839D01*
X103523571Y-76544273D01*
X104480911Y-75588602D01*
X104999659Y-74339319D01*
X105000839Y-72986616D01*
X104484273Y-71736429D01*
X103528602Y-70779089D01*
X102279319Y-70260341D01*
X100926616Y-70259161D01*
X99676429Y-70775727D01*
X98910262Y-71540558D01*
X100015621Y-65983543D01*
X102527855Y-65983543D01*
X102696354Y-66374714D01*
X103780688Y-66768990D01*
X104293172Y-66802580D01*
X104634682Y-66548065D01*
X103981069Y-65415972D01*
X104243742Y-65415972D01*
X105537205Y-66709436D01*
X106228422Y-66018219D01*
X106204664Y-66052990D01*
X106132368Y-66410000D01*
X106132368Y-68210000D01*
X106195124Y-68543520D01*
X106392234Y-68849838D01*
X106692990Y-69055336D01*
X107050000Y-69127632D01*
X108850000Y-69127632D01*
X109183520Y-69064876D01*
X109489838Y-68867766D01*
X109695336Y-68567010D01*
X109767632Y-68210000D01*
X109767632Y-66410000D01*
X109704876Y-66076480D01*
X109656159Y-66000771D01*
X113578346Y-66000771D01*
X113643719Y-66285762D01*
X114273733Y-66421529D01*
X114907746Y-66305866D01*
X114956281Y-66285762D01*
X115021654Y-66000771D01*
X114300000Y-65279117D01*
X113578346Y-66000771D01*
X109656159Y-66000771D01*
X109507766Y-65770162D01*
X109207010Y-65564664D01*
X108850000Y-65492368D01*
X107050000Y-65492368D01*
X106716480Y-65555124D01*
X106646461Y-65600180D01*
X107092843Y-65153798D01*
X106907544Y-64968499D01*
X106989271Y-64743733D01*
X112648471Y-64743733D01*
X112764134Y-65377746D01*
X112784238Y-65426281D01*
X113069229Y-65491654D01*
X113790883Y-64770000D01*
X114809117Y-64770000D01*
X115530771Y-65491654D01*
X115815762Y-65426281D01*
X115951529Y-64796267D01*
X115835866Y-64162254D01*
X115815762Y-64113719D01*
X115530771Y-64048346D01*
X114809117Y-64770000D01*
X113790883Y-64770000D01*
X113069229Y-64048346D01*
X112784238Y-64113719D01*
X112648471Y-64743733D01*
X106989271Y-64743733D01*
X107152397Y-64295107D01*
X107185987Y-63782623D01*
X107004595Y-63539229D01*
X113578346Y-63539229D01*
X114300000Y-64260883D01*
X115021654Y-63539229D01*
X114956281Y-63254238D01*
X114326267Y-63118471D01*
X113692254Y-63234134D01*
X113643719Y-63254238D01*
X113578346Y-63539229D01*
X107004595Y-63539229D01*
X106931472Y-63441113D01*
X105947978Y-64008934D01*
X105799379Y-63860335D01*
X104243742Y-65415972D01*
X103981069Y-65415972D01*
X103863530Y-65212390D01*
X102527855Y-65983543D01*
X100015621Y-65983543D01*
X100038893Y-65866549D01*
X101311789Y-63961524D01*
X101527730Y-64251275D01*
X102511224Y-63683454D01*
X102659823Y-63832053D01*
X104215460Y-62276416D01*
X103149796Y-61210752D01*
X103194182Y-61144323D01*
X103824520Y-61144323D01*
X104595672Y-62479998D01*
X105931347Y-61708845D01*
X105762848Y-61317674D01*
X104779177Y-60960000D01*
X108756695Y-60960000D01*
X108886100Y-61610562D01*
X109254613Y-62162082D01*
X109806133Y-62530595D01*
X110456695Y-62660000D01*
X110523305Y-62660000D01*
X111173867Y-62530595D01*
X111725387Y-62162082D01*
X112093900Y-61610562D01*
X112223305Y-60960000D01*
X112093900Y-60309438D01*
X111725387Y-59757918D01*
X111173867Y-59389405D01*
X110523305Y-59260000D01*
X110456695Y-59260000D01*
X109806133Y-59389405D01*
X109254613Y-59757918D01*
X108886100Y-60309438D01*
X108756695Y-60960000D01*
X104779177Y-60960000D01*
X104678514Y-60923398D01*
X104166030Y-60889808D01*
X103824520Y-61144323D01*
X103194182Y-61144323D01*
X105172925Y-58182925D01*
X109798415Y-55092272D01*
X113572090Y-55092272D01*
X114155651Y-55675833D01*
X114130162Y-55692234D01*
X113924664Y-55992990D01*
X113852368Y-56350000D01*
X113852368Y-57950000D01*
X113915124Y-58283520D01*
X114112234Y-58589838D01*
X114412990Y-58795336D01*
X114770000Y-58867632D01*
X116370000Y-58867632D01*
X116703520Y-58804876D01*
X117009838Y-58607766D01*
X117215336Y-58307010D01*
X117287632Y-57950000D01*
X117287632Y-56350000D01*
X117224876Y-56016480D01*
X117027766Y-55710162D01*
X116981579Y-55678603D01*
X117375182Y-55285000D01*
X118850000Y-55285000D01*
X118850000Y-55689021D01*
X118987017Y-56019809D01*
X119240191Y-56272983D01*
X119570979Y-56410000D01*
X119975000Y-56410000D01*
X120200000Y-56185000D01*
X120200000Y-55060000D01*
X119075000Y-55060000D01*
X118850000Y-55285000D01*
X117375182Y-55285000D01*
X117567910Y-55092272D01*
X117274269Y-54798632D01*
X117303298Y-54654762D01*
X117173181Y-53991095D01*
X117169536Y-53982296D01*
X116881187Y-53904499D01*
X116135685Y-54650000D01*
X116418528Y-54932843D01*
X115919003Y-55432368D01*
X115786683Y-55432368D01*
X115570000Y-55215685D01*
X115353317Y-55432368D01*
X115220997Y-55432368D01*
X114721472Y-54932843D01*
X115004315Y-54650000D01*
X114258813Y-53904499D01*
X113970464Y-53982296D01*
X113836702Y-54645238D01*
X113866605Y-54797758D01*
X113572090Y-55092272D01*
X109798415Y-55092272D01*
X112422652Y-53338813D01*
X114824499Y-53338813D01*
X115570000Y-54084315D01*
X116123335Y-53530979D01*
X118850000Y-53530979D01*
X118850000Y-53935000D01*
X119075000Y-54160000D01*
X120200000Y-54160000D01*
X120200000Y-53035000D01*
X119975000Y-52810000D01*
X119570979Y-52810000D01*
X119240191Y-52947017D01*
X118987017Y-53200191D01*
X118850000Y-53530979D01*
X116123335Y-53530979D01*
X116315501Y-53338813D01*
X116237704Y-53050464D01*
X115574762Y-52916702D01*
X114911095Y-53046819D01*
X114902296Y-53050464D01*
X114824499Y-53338813D01*
X112422652Y-53338813D01*
X112856549Y-53048893D01*
X121920000Y-51246060D01*
X130983451Y-53048893D01*
X130983451Y-53048893D01*
G37*
X130983451Y-53048893D02*
X138667075Y-58182925D01*
X143801107Y-65866549D01*
X145603940Y-74930000D01*
X144339558Y-81286474D01*
X144074806Y-80645723D01*
X143119135Y-79688383D01*
X141869852Y-79169635D01*
X140517149Y-79168455D01*
X139266962Y-79685021D01*
X138309622Y-80640692D01*
X137790874Y-81889975D01*
X137789694Y-83242678D01*
X138306260Y-84492865D01*
X139261931Y-85450205D01*
X140511214Y-85968953D01*
X141863917Y-85970133D01*
X142715417Y-85618301D01*
X138667075Y-91677075D01*
X130983451Y-96811107D01*
X121920000Y-98613940D01*
X112856549Y-96811107D01*
X107222665Y-93046667D01*
X110059706Y-93046667D01*
X110317970Y-93671715D01*
X110795770Y-94150350D01*
X111420366Y-94409704D01*
X112096667Y-94410294D01*
X112721715Y-94152030D01*
X113200350Y-93674230D01*
X113459704Y-93049634D01*
X113460000Y-92710000D01*
X125266695Y-92710000D01*
X125396100Y-93360562D01*
X125764613Y-93912082D01*
X126316133Y-94280595D01*
X126966695Y-94410000D01*
X127033305Y-94410000D01*
X127683867Y-94280595D01*
X128235387Y-93912082D01*
X128603900Y-93360562D01*
X128733305Y-92710000D01*
X128603900Y-92059438D01*
X128235387Y-91507918D01*
X127683867Y-91139405D01*
X127033305Y-91010000D01*
X126966695Y-91010000D01*
X126316133Y-91139405D01*
X125764613Y-91507918D01*
X125396100Y-92059438D01*
X125266695Y-92710000D01*
X113460000Y-92710000D01*
X113460294Y-92373333D01*
X113202030Y-91748285D01*
X112724230Y-91269650D01*
X112099634Y-91010296D01*
X111423333Y-91009706D01*
X110798285Y-91267970D01*
X110319650Y-91745770D01*
X110060296Y-92370366D01*
X110059706Y-93046667D01*
X107222665Y-93046667D01*
X105172925Y-91677075D01*
X104929582Y-91312886D01*
X105098150Y-91481454D01*
X105386305Y-91193298D01*
X106228061Y-91193298D01*
X106547366Y-91373726D01*
X107425561Y-90999189D01*
X107867740Y-90611408D01*
X107869591Y-90411506D01*
X119925601Y-90411506D01*
X120034418Y-90708037D01*
X120779272Y-90836596D01*
X121425582Y-90708037D01*
X121534399Y-90411506D01*
X120730000Y-89607107D01*
X119925601Y-90411506D01*
X107869591Y-90411506D01*
X107871137Y-90244668D01*
X106575284Y-89897445D01*
X106228061Y-91193298D01*
X105386305Y-91193298D01*
X106030859Y-90548744D01*
X105097959Y-89615844D01*
X105126521Y-89509250D01*
X104941894Y-89459779D01*
X104475222Y-88993107D01*
X104205788Y-89262540D01*
X103830668Y-89162027D01*
X103675687Y-89436299D01*
X103350267Y-88949272D01*
X118793404Y-88949272D01*
X118921963Y-89595582D01*
X119218494Y-89704399D01*
X120022893Y-88900000D01*
X121437107Y-88900000D01*
X122241506Y-89704399D01*
X122538037Y-89595582D01*
X122593148Y-89276275D01*
X123829671Y-89276275D01*
X124118319Y-89974857D01*
X124652331Y-90509802D01*
X125350409Y-90799669D01*
X126106275Y-90800329D01*
X126804857Y-90511681D01*
X127339802Y-89977669D01*
X127629669Y-89279591D01*
X127630329Y-88523725D01*
X127341681Y-87825143D01*
X126807669Y-87290198D01*
X126109591Y-87000331D01*
X125353725Y-86999671D01*
X124655143Y-87288319D01*
X124120198Y-87822331D01*
X123830331Y-88520409D01*
X123829671Y-89276275D01*
X122593148Y-89276275D01*
X122666596Y-88850728D01*
X122538037Y-88204418D01*
X122241506Y-88095601D01*
X121437107Y-88900000D01*
X120022893Y-88900000D01*
X119218494Y-88095601D01*
X118921963Y-88204418D01*
X118793404Y-88949272D01*
X103350267Y-88949272D01*
X103015784Y-88448682D01*
X106963479Y-88448682D01*
X108259332Y-88795905D01*
X108439760Y-88476600D01*
X108065223Y-87598405D01*
X107677442Y-87156226D01*
X107310702Y-87152829D01*
X106963479Y-88448682D01*
X103015784Y-88448682D01*
X102524393Y-87713264D01*
X104218863Y-87713264D01*
X105514716Y-88060487D01*
X105861939Y-86764634D01*
X105573250Y-86601506D01*
X119845601Y-86601506D01*
X119954418Y-86898037D01*
X120519248Y-86995524D01*
X120034418Y-87091963D01*
X119925601Y-87388494D01*
X120730000Y-88192893D01*
X121534399Y-87388494D01*
X121425582Y-87091963D01*
X120860752Y-86994476D01*
X121345582Y-86898037D01*
X121454399Y-86601506D01*
X120650000Y-85797107D01*
X119845601Y-86601506D01*
X105573250Y-86601506D01*
X105542634Y-86584206D01*
X104664439Y-86958743D01*
X104222260Y-87346524D01*
X104218863Y-87713264D01*
X102524393Y-87713264D01*
X100607090Y-84843818D01*
X101655650Y-85279218D01*
X102809289Y-85280224D01*
X103150419Y-85139272D01*
X118713404Y-85139272D01*
X118841963Y-85785582D01*
X119138494Y-85894399D01*
X119942893Y-85090000D01*
X121357107Y-85090000D01*
X122161506Y-85894399D01*
X122458037Y-85785582D01*
X122586596Y-85040728D01*
X122458037Y-84394418D01*
X122161506Y-84285601D01*
X121357107Y-85090000D01*
X119942893Y-85090000D01*
X119138494Y-84285601D01*
X118841963Y-84394418D01*
X118713404Y-85139272D01*
X103150419Y-85139272D01*
X103875499Y-84839676D01*
X104691957Y-84024641D01*
X104877213Y-83578494D01*
X119845601Y-83578494D01*
X120650000Y-84382893D01*
X121454399Y-83578494D01*
X121345582Y-83281963D01*
X120600728Y-83153404D01*
X119954418Y-83281963D01*
X119845601Y-83578494D01*
X104877213Y-83578494D01*
X105134366Y-82959202D01*
X105135372Y-81805563D01*
X104694824Y-80739353D01*
X104361349Y-80405295D01*
X111899584Y-80405295D01*
X112264192Y-81287715D01*
X112938734Y-81963435D01*
X113820516Y-82329583D01*
X114775295Y-82330416D01*
X115657715Y-81965808D01*
X116097142Y-81527147D01*
X117721745Y-81527147D01*
X118086720Y-82073416D01*
X118637548Y-82442982D01*
X118891100Y-82300898D01*
X118891100Y-81273600D01*
X119691100Y-81273600D01*
X119691100Y-82300898D01*
X119944652Y-82442982D01*
X120495480Y-82073416D01*
X120860455Y-81527147D01*
X120710827Y-81273600D01*
X119691100Y-81273600D01*
X118891100Y-81273600D01*
X117871373Y-81273600D01*
X117721745Y-81527147D01*
X116097142Y-81527147D01*
X116333435Y-81291266D01*
X116699583Y-80409484D01*
X116700024Y-79904235D01*
X116976501Y-80088971D01*
X117703600Y-80233600D01*
X117729740Y-80233600D01*
X117871373Y-80473600D01*
X118891100Y-80473600D01*
X118891100Y-80233600D01*
X119291100Y-80233600D01*
X119691100Y-80154035D01*
X119691100Y-80473600D01*
X120710827Y-80473600D01*
X120860455Y-80220053D01*
X120539952Y-79740347D01*
X120634603Y-79677103D01*
X121046471Y-79060699D01*
X121191100Y-78333600D01*
X121046471Y-77606501D01*
X120634603Y-76990097D01*
X120539952Y-76926853D01*
X120860455Y-76447147D01*
X120714604Y-76200000D01*
X122560000Y-76200000D01*
X122560000Y-82550000D01*
X122704629Y-83277099D01*
X122906015Y-83578494D01*
X123116497Y-83893503D01*
X123750000Y-84527006D01*
X123750000Y-85089487D01*
X123749671Y-85466275D01*
X124038319Y-86164857D01*
X124572331Y-86699802D01*
X125270409Y-86989669D01*
X126026275Y-86990329D01*
X126414301Y-86830000D01*
X130362368Y-86830000D01*
X130362368Y-88430000D01*
X130425124Y-88763520D01*
X130622234Y-89069838D01*
X130922990Y-89275336D01*
X131280000Y-89347632D01*
X132880000Y-89347632D01*
X133213520Y-89284876D01*
X133519838Y-89087766D01*
X133695628Y-88830489D01*
X133713843Y-88874572D01*
X134332173Y-89493982D01*
X135140473Y-89829618D01*
X136015687Y-89830381D01*
X136824572Y-89496157D01*
X137443982Y-88877827D01*
X137779618Y-88069527D01*
X137780381Y-87194313D01*
X137446157Y-86385428D01*
X136827827Y-85766018D01*
X136019527Y-85430382D01*
X135144313Y-85429619D01*
X134335428Y-85763843D01*
X133716018Y-86382173D01*
X133694566Y-86433836D01*
X133537766Y-86190162D01*
X133237010Y-85984664D01*
X132880000Y-85912368D01*
X131280000Y-85912368D01*
X130946480Y-85975124D01*
X130640162Y-86172234D01*
X130434664Y-86472990D01*
X130362368Y-86830000D01*
X126414301Y-86830000D01*
X126724857Y-86701681D01*
X127259802Y-86167669D01*
X127549669Y-85469591D01*
X127550329Y-84713725D01*
X127550000Y-84712929D01*
X127550000Y-83740000D01*
X127405371Y-83012901D01*
X127092197Y-82544202D01*
X127594967Y-82444195D01*
X128146487Y-82075682D01*
X128515000Y-81524162D01*
X128617037Y-81011187D01*
X132604499Y-81011187D01*
X132682296Y-81299536D01*
X133345238Y-81433298D01*
X134008905Y-81303181D01*
X134017704Y-81299536D01*
X134095501Y-81011187D01*
X133350000Y-80265685D01*
X132604499Y-81011187D01*
X128617037Y-81011187D01*
X128644405Y-80873600D01*
X128515000Y-80223038D01*
X128162337Y-79695238D01*
X131616702Y-79695238D01*
X131746819Y-80358905D01*
X131750464Y-80367704D01*
X132038813Y-80445501D01*
X132784315Y-79700000D01*
X133915685Y-79700000D01*
X134661187Y-80445501D01*
X134949536Y-80367704D01*
X135083298Y-79704762D01*
X134953181Y-79041095D01*
X134949536Y-79032296D01*
X134661187Y-78954499D01*
X133915685Y-79700000D01*
X132784315Y-79700000D01*
X132038813Y-78954499D01*
X131750464Y-79032296D01*
X131616702Y-79695238D01*
X128162337Y-79695238D01*
X128146487Y-79671518D01*
X128044840Y-79603600D01*
X128146487Y-79535682D01*
X128515000Y-78984162D01*
X128633422Y-78388813D01*
X132604499Y-78388813D01*
X133350000Y-79134315D01*
X134095501Y-78388813D01*
X134017704Y-78100464D01*
X133354762Y-77966702D01*
X132691095Y-78096819D01*
X132682296Y-78100464D01*
X132604499Y-78388813D01*
X128633422Y-78388813D01*
X128644405Y-78333600D01*
X128515000Y-77683038D01*
X128182438Y-77185322D01*
X128254603Y-77137103D01*
X128666471Y-76520699D01*
X128811100Y-75793600D01*
X128732809Y-75400000D01*
X131632368Y-75400000D01*
X131632368Y-77000000D01*
X131695124Y-77333520D01*
X131892234Y-77639838D01*
X132192990Y-77845336D01*
X132550000Y-77917632D01*
X134150000Y-77917632D01*
X134483520Y-77854876D01*
X134789838Y-77657766D01*
X134995336Y-77357010D01*
X134998255Y-77342591D01*
X141004743Y-77342591D01*
X141206694Y-77717589D01*
X142321266Y-78015858D01*
X142834727Y-78004655D01*
X143152756Y-77721344D01*
X142268126Y-76457962D01*
X141004743Y-77342591D01*
X134998255Y-77342591D01*
X135067632Y-77000000D01*
X135067632Y-75400000D01*
X135004876Y-75066480D01*
X134880114Y-74872593D01*
X139562933Y-74872593D01*
X139574136Y-75386054D01*
X139857447Y-75704083D01*
X140419305Y-75310665D01*
X143906635Y-75310665D01*
X144791264Y-76574048D01*
X145166262Y-76372097D01*
X145464531Y-75257525D01*
X145453328Y-74744064D01*
X145170017Y-74426035D01*
X143906635Y-75310665D01*
X140419305Y-75310665D01*
X141120829Y-74819453D01*
X140236200Y-73556070D01*
X139861202Y-73758021D01*
X139562933Y-74872593D01*
X134880114Y-74872593D01*
X134807766Y-74760162D01*
X134507010Y-74554664D01*
X134150000Y-74482368D01*
X132550000Y-74482368D01*
X132216480Y-74545124D01*
X131910162Y-74742234D01*
X131704664Y-75042990D01*
X131632368Y-75400000D01*
X128732809Y-75400000D01*
X128666471Y-75066501D01*
X128254603Y-74450097D01*
X128182438Y-74401878D01*
X128515000Y-73904162D01*
X128644405Y-73253600D01*
X128515000Y-72603038D01*
X128146487Y-72051518D01*
X127594967Y-71683005D01*
X126944405Y-71553600D01*
X126877795Y-71553600D01*
X126227233Y-71683005D01*
X125675713Y-72051518D01*
X125307200Y-72603038D01*
X125177795Y-73253600D01*
X125305099Y-73893600D01*
X124866400Y-73893600D01*
X124139301Y-74038229D01*
X123558908Y-74426035D01*
X123522897Y-74450097D01*
X123116497Y-74856497D01*
X122704629Y-75472901D01*
X122560000Y-76200000D01*
X120714604Y-76200000D01*
X120710827Y-76193600D01*
X119691100Y-76193600D01*
X119691100Y-76513165D01*
X119291100Y-76433600D01*
X118891100Y-76433600D01*
X118891100Y-76193600D01*
X118740000Y-76193600D01*
X118740000Y-75393600D01*
X118891100Y-75393600D01*
X118891100Y-75074035D01*
X119291100Y-75153600D01*
X119340002Y-75153600D01*
X119691100Y-75083762D01*
X119691100Y-75393600D01*
X120710827Y-75393600D01*
X120860455Y-75140053D01*
X120621213Y-74781972D01*
X120730938Y-74711366D01*
X120936436Y-74410610D01*
X120992238Y-74135052D01*
X121095373Y-73980699D01*
X121240002Y-73253600D01*
X121240002Y-63057004D01*
X124281423Y-60015583D01*
X124030296Y-60620366D01*
X124029706Y-61296667D01*
X124287970Y-61921715D01*
X124765770Y-62400350D01*
X125390366Y-62659704D01*
X126066667Y-62660294D01*
X126691715Y-62402030D01*
X127170350Y-61924230D01*
X127429704Y-61299634D01*
X127430294Y-60623333D01*
X127304960Y-60320000D01*
X129540000Y-60320000D01*
X130267099Y-60175371D01*
X130547025Y-59988330D01*
X130370823Y-60252036D01*
X130230000Y-60960000D01*
X130230000Y-64770000D01*
X130362368Y-65435458D01*
X130362368Y-65570000D01*
X130425124Y-65903520D01*
X130622234Y-66209838D01*
X130689624Y-66255883D01*
X130639650Y-66305770D01*
X130380296Y-66930366D01*
X130379706Y-67606667D01*
X130459407Y-67799559D01*
X128484924Y-65825076D01*
X127803635Y-65369853D01*
X127000000Y-65210000D01*
X126196365Y-65369853D01*
X125876199Y-65583781D01*
X126079718Y-65093652D01*
X126080281Y-64449176D01*
X125834170Y-63853542D01*
X125378855Y-63397431D01*
X124783652Y-63150282D01*
X124139176Y-63149719D01*
X123543542Y-63395830D01*
X123087431Y-63851145D01*
X122840282Y-64446348D01*
X122839719Y-65090824D01*
X123085830Y-65686458D01*
X123541145Y-66142569D01*
X124136348Y-66389718D01*
X124780824Y-66390281D01*
X125273416Y-66186746D01*
X125059853Y-66506365D01*
X124900000Y-67310000D01*
X125059853Y-68113635D01*
X125273781Y-68433801D01*
X124783652Y-68230282D01*
X124139176Y-68229719D01*
X123543542Y-68475830D01*
X123087431Y-68931145D01*
X122840282Y-69526348D01*
X122839719Y-70170824D01*
X123085830Y-70766458D01*
X123541145Y-71222569D01*
X124136348Y-71469718D01*
X124780824Y-71470281D01*
X125376458Y-71224170D01*
X125832569Y-70768855D01*
X126079718Y-70173652D01*
X126080281Y-69529176D01*
X125961249Y-69241097D01*
X129325076Y-72604924D01*
X130006365Y-73060147D01*
X130810000Y-73220000D01*
X138430000Y-73220000D01*
X139233635Y-73060147D01*
X139914924Y-72604924D01*
X140045987Y-72408774D01*
X141874708Y-72408774D01*
X142759338Y-73672156D01*
X144022721Y-72787527D01*
X143820770Y-72412529D01*
X142706198Y-72114260D01*
X142192737Y-72125463D01*
X141874708Y-72408774D01*
X140045987Y-72408774D01*
X140370147Y-71923635D01*
X140530000Y-71120000D01*
X140370147Y-70316365D01*
X139914924Y-69635076D01*
X139233635Y-69179853D01*
X138430000Y-69020000D01*
X131679848Y-69020000D01*
X131550864Y-68891016D01*
X131740366Y-68969704D01*
X132416667Y-68970294D01*
X133041715Y-68712030D01*
X133520350Y-68234230D01*
X133779704Y-67609634D01*
X133780294Y-66933333D01*
X133599706Y-66496275D01*
X136529671Y-66496275D01*
X136818319Y-67194857D01*
X137352331Y-67729802D01*
X138050409Y-68019669D01*
X138806275Y-68020329D01*
X139504857Y-67731681D01*
X140039802Y-67197669D01*
X140329669Y-66499591D01*
X140330329Y-65743725D01*
X140041681Y-65045143D01*
X139507669Y-64510198D01*
X138809591Y-64220331D01*
X138053725Y-64219671D01*
X137355143Y-64508319D01*
X136820198Y-65042331D01*
X136530331Y-65740409D01*
X136529671Y-66496275D01*
X133599706Y-66496275D01*
X133522030Y-66308285D01*
X133472232Y-66258400D01*
X133519838Y-66227766D01*
X133725336Y-65927010D01*
X133797632Y-65570000D01*
X133797632Y-65435458D01*
X133930000Y-64770000D01*
X133930000Y-60960000D01*
X133789177Y-60252036D01*
X133388148Y-59651852D01*
X132787964Y-59250823D01*
X132080000Y-59110000D01*
X131372036Y-59250823D01*
X131108330Y-59427025D01*
X131295371Y-59147099D01*
X131376184Y-58740824D01*
X132999719Y-58740824D01*
X133245830Y-59336458D01*
X133701145Y-59792569D01*
X134296348Y-60039718D01*
X134940824Y-60040281D01*
X135536458Y-59794170D01*
X135992569Y-59338855D01*
X136239718Y-58743652D01*
X136240281Y-58099176D01*
X135994170Y-57503542D01*
X135538855Y-57047431D01*
X134943652Y-56800282D01*
X134299176Y-56799719D01*
X133703542Y-57045830D01*
X133247431Y-57501145D01*
X133000282Y-58096348D01*
X132999719Y-58740824D01*
X131376184Y-58740824D01*
X131440000Y-58420000D01*
X131295371Y-57692901D01*
X130883503Y-57076497D01*
X130267099Y-56664629D01*
X129540000Y-56520000D01*
X127787006Y-56520000D01*
X127073503Y-55806497D01*
X126902496Y-55692234D01*
X126457099Y-55394629D01*
X125730000Y-55250000D01*
X124873260Y-55250000D01*
X124989687Y-54969613D01*
X124990312Y-54253529D01*
X124716855Y-53591714D01*
X124210949Y-53084924D01*
X123549613Y-52810313D01*
X122833529Y-52809688D01*
X122188855Y-53076063D01*
X122059809Y-52947017D01*
X121729021Y-52810000D01*
X121325000Y-52810000D01*
X121100000Y-53035000D01*
X121100000Y-54160000D01*
X121427845Y-54160000D01*
X121390313Y-54250387D01*
X121389688Y-54966471D01*
X121428333Y-55060000D01*
X121100000Y-55060000D01*
X121100000Y-56185000D01*
X121325000Y-56410000D01*
X121729021Y-56410000D01*
X122059809Y-56272983D01*
X122189306Y-56143486D01*
X122606340Y-56316654D01*
X117996499Y-60926495D01*
X117584631Y-61542899D01*
X117440002Y-62269998D01*
X117440002Y-65529348D01*
X116840000Y-65410000D01*
X116112901Y-65554629D01*
X115496497Y-65966497D01*
X115084629Y-66582901D01*
X114940000Y-67310000D01*
X114940000Y-68361641D01*
X114623652Y-68230282D01*
X113979176Y-68229719D01*
X113383542Y-68475830D01*
X112927431Y-68931145D01*
X112680282Y-69526348D01*
X112679719Y-70170824D01*
X112925830Y-70766458D01*
X113381145Y-71222569D01*
X113976348Y-71469718D01*
X114620824Y-71470281D01*
X114940000Y-71338400D01*
X114940000Y-73138462D01*
X114679591Y-73030331D01*
X113923725Y-73029671D01*
X113225143Y-73318319D01*
X112690198Y-73852331D01*
X112400331Y-74550409D01*
X112399671Y-75306275D01*
X112688319Y-76004857D01*
X113222331Y-76539802D01*
X113920409Y-76829669D01*
X114676275Y-76830329D01*
X114940000Y-76721360D01*
X114940000Y-77470000D01*
X114967551Y-77608509D01*
X114779484Y-77530417D01*
X113824705Y-77529584D01*
X112942285Y-77894192D01*
X112266565Y-78568734D01*
X111900417Y-79450516D01*
X111899584Y-80405295D01*
X104361349Y-80405295D01*
X103879789Y-79922895D01*
X102814350Y-79480486D01*
X101660711Y-79479480D01*
X100594501Y-79920028D01*
X99778043Y-80735063D01*
X99516194Y-81365666D01*
X98732335Y-77424940D01*
X105650000Y-77424940D01*
X105650000Y-77515060D01*
X105825077Y-78395232D01*
X106323654Y-79141406D01*
X107069828Y-79639983D01*
X107950000Y-79815060D01*
X108830172Y-79639983D01*
X109576346Y-79141406D01*
X110074923Y-78395232D01*
X110250000Y-77515060D01*
X110250000Y-77424940D01*
X110074923Y-76544768D01*
X109576346Y-75798594D01*
X108830172Y-75300017D01*
X107950000Y-75124940D01*
X107069828Y-75300017D01*
X106323654Y-75798594D01*
X105825077Y-76544768D01*
X105650000Y-77424940D01*
X98732335Y-77424940D01*
X98236060Y-74930000D01*
X98304178Y-74587546D01*
X98715727Y-75583571D01*
X99671398Y-76540911D01*
X100920681Y-77059659D01*
X102273384Y-77060839D01*
X103523571Y-76544273D01*
X104480911Y-75588602D01*
X104999659Y-74339319D01*
X105000839Y-72986616D01*
X104484273Y-71736429D01*
X103528602Y-70779089D01*
X102279319Y-70260341D01*
X100926616Y-70259161D01*
X99676429Y-70775727D01*
X98910262Y-71540558D01*
X100015621Y-65983543D01*
X102527855Y-65983543D01*
X102696354Y-66374714D01*
X103780688Y-66768990D01*
X104293172Y-66802580D01*
X104634682Y-66548065D01*
X103981069Y-65415972D01*
X104243742Y-65415972D01*
X105537205Y-66709436D01*
X106228422Y-66018219D01*
X106204664Y-66052990D01*
X106132368Y-66410000D01*
X106132368Y-68210000D01*
X106195124Y-68543520D01*
X106392234Y-68849838D01*
X106692990Y-69055336D01*
X107050000Y-69127632D01*
X108850000Y-69127632D01*
X109183520Y-69064876D01*
X109489838Y-68867766D01*
X109695336Y-68567010D01*
X109767632Y-68210000D01*
X109767632Y-66410000D01*
X109704876Y-66076480D01*
X109656159Y-66000771D01*
X113578346Y-66000771D01*
X113643719Y-66285762D01*
X114273733Y-66421529D01*
X114907746Y-66305866D01*
X114956281Y-66285762D01*
X115021654Y-66000771D01*
X114300000Y-65279117D01*
X113578346Y-66000771D01*
X109656159Y-66000771D01*
X109507766Y-65770162D01*
X109207010Y-65564664D01*
X108850000Y-65492368D01*
X107050000Y-65492368D01*
X106716480Y-65555124D01*
X106646461Y-65600180D01*
X107092843Y-65153798D01*
X106907544Y-64968499D01*
X106989271Y-64743733D01*
X112648471Y-64743733D01*
X112764134Y-65377746D01*
X112784238Y-65426281D01*
X113069229Y-65491654D01*
X113790883Y-64770000D01*
X114809117Y-64770000D01*
X115530771Y-65491654D01*
X115815762Y-65426281D01*
X115951529Y-64796267D01*
X115835866Y-64162254D01*
X115815762Y-64113719D01*
X115530771Y-64048346D01*
X114809117Y-64770000D01*
X113790883Y-64770000D01*
X113069229Y-64048346D01*
X112784238Y-64113719D01*
X112648471Y-64743733D01*
X106989271Y-64743733D01*
X107152397Y-64295107D01*
X107185987Y-63782623D01*
X107004595Y-63539229D01*
X113578346Y-63539229D01*
X114300000Y-64260883D01*
X115021654Y-63539229D01*
X114956281Y-63254238D01*
X114326267Y-63118471D01*
X113692254Y-63234134D01*
X113643719Y-63254238D01*
X113578346Y-63539229D01*
X107004595Y-63539229D01*
X106931472Y-63441113D01*
X105947978Y-64008934D01*
X105799379Y-63860335D01*
X104243742Y-65415972D01*
X103981069Y-65415972D01*
X103863530Y-65212390D01*
X102527855Y-65983543D01*
X100015621Y-65983543D01*
X100038893Y-65866549D01*
X101311789Y-63961524D01*
X101527730Y-64251275D01*
X102511224Y-63683454D01*
X102659823Y-63832053D01*
X104215460Y-62276416D01*
X103149796Y-61210752D01*
X103194182Y-61144323D01*
X103824520Y-61144323D01*
X104595672Y-62479998D01*
X105931347Y-61708845D01*
X105762848Y-61317674D01*
X104779177Y-60960000D01*
X108756695Y-60960000D01*
X108886100Y-61610562D01*
X109254613Y-62162082D01*
X109806133Y-62530595D01*
X110456695Y-62660000D01*
X110523305Y-62660000D01*
X111173867Y-62530595D01*
X111725387Y-62162082D01*
X112093900Y-61610562D01*
X112223305Y-60960000D01*
X112093900Y-60309438D01*
X111725387Y-59757918D01*
X111173867Y-59389405D01*
X110523305Y-59260000D01*
X110456695Y-59260000D01*
X109806133Y-59389405D01*
X109254613Y-59757918D01*
X108886100Y-60309438D01*
X108756695Y-60960000D01*
X104779177Y-60960000D01*
X104678514Y-60923398D01*
X104166030Y-60889808D01*
X103824520Y-61144323D01*
X103194182Y-61144323D01*
X105172925Y-58182925D01*
X109798415Y-55092272D01*
X113572090Y-55092272D01*
X114155651Y-55675833D01*
X114130162Y-55692234D01*
X113924664Y-55992990D01*
X113852368Y-56350000D01*
X113852368Y-57950000D01*
X113915124Y-58283520D01*
X114112234Y-58589838D01*
X114412990Y-58795336D01*
X114770000Y-58867632D01*
X116370000Y-58867632D01*
X116703520Y-58804876D01*
X117009838Y-58607766D01*
X117215336Y-58307010D01*
X117287632Y-57950000D01*
X117287632Y-56350000D01*
X117224876Y-56016480D01*
X117027766Y-55710162D01*
X116981579Y-55678603D01*
X117375182Y-55285000D01*
X118850000Y-55285000D01*
X118850000Y-55689021D01*
X118987017Y-56019809D01*
X119240191Y-56272983D01*
X119570979Y-56410000D01*
X119975000Y-56410000D01*
X120200000Y-56185000D01*
X120200000Y-55060000D01*
X119075000Y-55060000D01*
X118850000Y-55285000D01*
X117375182Y-55285000D01*
X117567910Y-55092272D01*
X117274269Y-54798632D01*
X117303298Y-54654762D01*
X117173181Y-53991095D01*
X117169536Y-53982296D01*
X116881187Y-53904499D01*
X116135685Y-54650000D01*
X116418528Y-54932843D01*
X115919003Y-55432368D01*
X115786683Y-55432368D01*
X115570000Y-55215685D01*
X115353317Y-55432368D01*
X115220997Y-55432368D01*
X114721472Y-54932843D01*
X115004315Y-54650000D01*
X114258813Y-53904499D01*
X113970464Y-53982296D01*
X113836702Y-54645238D01*
X113866605Y-54797758D01*
X113572090Y-55092272D01*
X109798415Y-55092272D01*
X112422652Y-53338813D01*
X114824499Y-53338813D01*
X115570000Y-54084315D01*
X116123335Y-53530979D01*
X118850000Y-53530979D01*
X118850000Y-53935000D01*
X119075000Y-54160000D01*
X120200000Y-54160000D01*
X120200000Y-53035000D01*
X119975000Y-52810000D01*
X119570979Y-52810000D01*
X119240191Y-52947017D01*
X118987017Y-53200191D01*
X118850000Y-53530979D01*
X116123335Y-53530979D01*
X116315501Y-53338813D01*
X116237704Y-53050464D01*
X115574762Y-52916702D01*
X114911095Y-53046819D01*
X114902296Y-53050464D01*
X114824499Y-53338813D01*
X112422652Y-53338813D01*
X112856549Y-53048893D01*
X121920000Y-51246060D01*
X130983451Y-53048893D01*
M02*
