%TF.GenerationSoftware,KiCad,Pcbnew,4.0.7*%
%TF.CreationDate,2020-08-23T22:37:38+12:00*%
%TF.ProjectId,jar-of-dirt,6A61722D6F662D646972742E6B696361,rev?*%
%TF.FileFunction,Copper,L1,Top,Signal*%
%FSLAX46Y46*%
G04 Gerber Fmt 4.6, Leading zero omitted, Abs format (unit mm)*
G04 Created by KiCad (PCBNEW 4.0.7) date 2020 August 23, Sunday 22:37:38*
%MOMM*%
%LPD*%
G01*
G04 APERTURE LIST*
%ADD10C,0.150000*%
%ADD11C,1.440000*%
%ADD12C,2.999740*%
%ADD13C,4.000500*%
%ADD14R,1.600000X1.600000*%
%ADD15C,1.600000*%
%ADD16O,1.600000X1.600000*%
%ADD17R,1.800000X1.800000*%
%ADD18C,1.800000*%
%ADD19C,2.000000*%
%ADD20O,1.800000X1.800000*%
%ADD21C,2.000000*%
%ADD22C,3.000000*%
%ADD23C,2.400000*%
%ADD24C,1.900000*%
%ADD25C,0.800000*%
G04 APERTURE END LIST*
D10*
X146578940Y-74930000D02*
G75*
G03X146578940Y-74930000I-24658940J0D01*
G01*
D11*
X124460000Y-64770000D03*
X127000000Y-67310000D03*
X124460000Y-69850000D03*
D12*
X102235000Y-82379852D03*
X106045000Y-88978966D03*
D13*
X141190533Y-82569294D03*
X142513732Y-75065059D03*
D14*
X133350000Y-76200000D03*
D15*
X133350000Y-79700000D03*
D14*
X132080000Y-87630000D03*
D15*
X135580000Y-87630000D03*
X111760000Y-92710000D03*
D16*
X127000000Y-92710000D03*
D14*
X119291100Y-73253600D03*
D16*
X126911100Y-80873600D03*
X119291100Y-75793600D03*
X126911100Y-78333600D03*
X119291100Y-78333600D03*
X126911100Y-75793600D03*
X119291100Y-80873600D03*
X126911100Y-73253600D03*
D17*
X120650000Y-54610000D03*
D18*
X123190000Y-54610000D03*
D15*
X125730000Y-60960000D03*
D16*
X110490000Y-60960000D03*
D14*
X132080000Y-64770000D03*
D15*
X132080000Y-67270000D03*
D19*
X114300000Y-74930000D03*
X114300000Y-79930000D03*
X120650000Y-85090000D03*
X125650000Y-85090000D03*
X125730000Y-88900000D03*
X120730000Y-88900000D03*
X138430000Y-71120000D03*
X138430000Y-66120000D03*
D14*
X115570000Y-57150000D03*
D15*
X115570000Y-54650000D03*
D13*
X101600000Y-73660000D03*
X104229601Y-63846194D03*
D11*
X134620000Y-58420000D03*
X132080000Y-60960000D03*
X129540000Y-58420000D03*
X114300000Y-64770000D03*
X116840000Y-67310000D03*
X114300000Y-69850000D03*
D17*
X107950000Y-67310000D03*
D20*
X107950000Y-77470000D03*
D21*
X114300000Y-74930000D02*
X114300000Y-69850000D01*
D22*
X102235000Y-82379852D02*
X111930148Y-82379852D01*
X111930148Y-82379852D02*
X114365125Y-79944875D01*
X114365125Y-79944875D02*
X114300000Y-79930000D01*
D23*
X125730000Y-88900000D02*
X125730000Y-91440000D01*
X125730000Y-91440000D02*
X127000000Y-92710000D01*
D22*
X135580000Y-87630000D02*
X136129827Y-87630000D01*
X136129827Y-87630000D02*
X141190533Y-82569294D01*
D21*
X125730000Y-60960000D02*
X125730000Y-57150000D01*
X125730000Y-57150000D02*
X123190000Y-54610000D01*
X126911100Y-73253600D02*
X128676400Y-73253600D01*
X132080000Y-69850000D02*
X132080000Y-67270000D01*
X128676400Y-73253600D02*
X132080000Y-69850000D01*
D24*
X132080000Y-64770000D02*
X130810000Y-64770000D01*
X128270000Y-69850000D02*
X124460000Y-69850000D01*
X129540000Y-68580000D02*
X128270000Y-69850000D01*
X129540000Y-66040000D02*
X129540000Y-68580000D01*
X130810000Y-64770000D02*
X129540000Y-66040000D01*
D22*
X101600000Y-73660000D02*
X104140000Y-73660000D01*
X104140000Y-73660000D02*
X107950000Y-77470000D01*
D25*
G36*
X138667075Y-58182925D02*
X143801107Y-65866549D01*
X145603940Y-74930000D01*
X144339558Y-81286474D01*
X144074806Y-80645723D01*
X143119135Y-79688383D01*
X141869852Y-79169635D01*
X140517149Y-79168455D01*
X139266962Y-79685021D01*
X138309622Y-80640692D01*
X137806668Y-81851939D01*
X134766865Y-84891742D01*
X134470218Y-84950749D01*
X133529390Y-85579390D01*
X133243940Y-86006596D01*
X133059021Y-85930000D01*
X132705000Y-85930000D01*
X132480000Y-86155000D01*
X132480000Y-87230000D01*
X132759565Y-87230000D01*
X132680000Y-87630000D01*
X132759565Y-88030000D01*
X132480000Y-88030000D01*
X132480000Y-89105000D01*
X132705000Y-89330000D01*
X133059021Y-89330000D01*
X133243940Y-89253404D01*
X133529390Y-89680610D01*
X134470218Y-90309251D01*
X135580000Y-90530000D01*
X136129827Y-90530000D01*
X137239609Y-90309251D01*
X138180437Y-89680610D01*
X141909923Y-85951124D01*
X142715417Y-85618301D01*
X138667075Y-91677075D01*
X130983451Y-96811107D01*
X121920000Y-98613940D01*
X112856549Y-96811107D01*
X108681139Y-94021187D01*
X111014499Y-94021187D01*
X111092296Y-94309536D01*
X111755238Y-94443298D01*
X112418905Y-94313181D01*
X112427704Y-94309536D01*
X112505501Y-94021187D01*
X111760000Y-93275685D01*
X111014499Y-94021187D01*
X108681139Y-94021187D01*
X106711681Y-92705238D01*
X110026702Y-92705238D01*
X110156819Y-93368905D01*
X110160464Y-93377704D01*
X110448813Y-93455501D01*
X111194315Y-92710000D01*
X112325685Y-92710000D01*
X113071187Y-93455501D01*
X113359536Y-93377704D01*
X113493298Y-92714762D01*
X113363181Y-92051095D01*
X113359536Y-92042296D01*
X113071187Y-91964499D01*
X112325685Y-92710000D01*
X111194315Y-92710000D01*
X110448813Y-91964499D01*
X110160464Y-92042296D01*
X110026702Y-92705238D01*
X106711681Y-92705238D01*
X105172925Y-91677075D01*
X104986997Y-91398813D01*
X111014499Y-91398813D01*
X111760000Y-92144315D01*
X112505501Y-91398813D01*
X112427704Y-91110464D01*
X111764762Y-90976702D01*
X111101095Y-91106819D01*
X111092296Y-91110464D01*
X111014499Y-91398813D01*
X104986997Y-91398813D01*
X104745980Y-91038106D01*
X105565542Y-91378418D01*
X106520269Y-91379251D01*
X107402641Y-91014663D01*
X108078324Y-90340158D01*
X108444452Y-89458424D01*
X108444610Y-89276275D01*
X118829671Y-89276275D01*
X119118319Y-89974857D01*
X119652331Y-90509802D01*
X120350409Y-90799669D01*
X121106275Y-90800329D01*
X121804857Y-90511681D01*
X122339802Y-89977669D01*
X122629669Y-89279591D01*
X122630000Y-88900000D01*
X123630000Y-88900000D01*
X123630000Y-91440000D01*
X123789853Y-92243635D01*
X124245076Y-92924924D01*
X125515076Y-94194924D01*
X126196364Y-94650147D01*
X127000000Y-94810000D01*
X127803635Y-94650147D01*
X128484924Y-94194924D01*
X128940147Y-93513635D01*
X129100000Y-92710000D01*
X128940147Y-91906364D01*
X128484924Y-91225076D01*
X127830000Y-90570152D01*
X127830000Y-88900000D01*
X127701702Y-88255000D01*
X130380000Y-88255000D01*
X130380000Y-88609021D01*
X130517017Y-88939809D01*
X130770191Y-89192983D01*
X131100979Y-89330000D01*
X131455000Y-89330000D01*
X131680000Y-89105000D01*
X131680000Y-88030000D01*
X130605000Y-88030000D01*
X130380000Y-88255000D01*
X127701702Y-88255000D01*
X127670147Y-88096365D01*
X127214924Y-87415076D01*
X126533635Y-86959853D01*
X126240938Y-86901632D01*
X126724857Y-86701681D01*
X126775647Y-86650979D01*
X130380000Y-86650979D01*
X130380000Y-87005000D01*
X130605000Y-87230000D01*
X131680000Y-87230000D01*
X131680000Y-86155000D01*
X131455000Y-85930000D01*
X131100979Y-85930000D01*
X130770191Y-86067017D01*
X130517017Y-86320191D01*
X130380000Y-86650979D01*
X126775647Y-86650979D01*
X127259802Y-86167669D01*
X127549669Y-85469591D01*
X127550329Y-84713725D01*
X127261681Y-84015143D01*
X126727669Y-83480198D01*
X126029591Y-83190331D01*
X125273725Y-83189671D01*
X124575143Y-83478319D01*
X124040198Y-84012331D01*
X123750331Y-84710409D01*
X123749671Y-85466275D01*
X124038319Y-86164857D01*
X124572331Y-86699802D01*
X125110430Y-86923240D01*
X124926365Y-86959853D01*
X124245076Y-87415076D01*
X123789853Y-88096365D01*
X123630000Y-88900000D01*
X122630000Y-88900000D01*
X122630329Y-88523725D01*
X122341681Y-87825143D01*
X121807669Y-87290198D01*
X121109591Y-87000331D01*
X120353725Y-86999671D01*
X119655143Y-87288319D01*
X119120198Y-87822331D01*
X118830331Y-88520409D01*
X118829671Y-89276275D01*
X108444610Y-89276275D01*
X108445285Y-88503697D01*
X108080697Y-87621325D01*
X107406192Y-86945642D01*
X106524458Y-86579514D01*
X105569731Y-86578681D01*
X104687359Y-86943269D01*
X104011676Y-87617774D01*
X103645548Y-88499508D01*
X103644771Y-89390030D01*
X101023003Y-85466275D01*
X118749671Y-85466275D01*
X119038319Y-86164857D01*
X119572331Y-86699802D01*
X120270409Y-86989669D01*
X121026275Y-86990329D01*
X121724857Y-86701681D01*
X122259802Y-86167669D01*
X122549669Y-85469591D01*
X122550329Y-84713725D01*
X122261681Y-84015143D01*
X121727669Y-83480198D01*
X121029591Y-83190331D01*
X120273725Y-83189671D01*
X119575143Y-83478319D01*
X119040198Y-84012331D01*
X118750331Y-84710409D01*
X118749671Y-85466275D01*
X101023003Y-85466275D01*
X100607090Y-84843818D01*
X101124666Y-85058734D01*
X101125218Y-85059103D01*
X101125864Y-85059231D01*
X101655650Y-85279218D01*
X102234350Y-85279723D01*
X102235000Y-85279852D01*
X102382695Y-85279852D01*
X102809289Y-85280224D01*
X102810189Y-85279852D01*
X111930148Y-85279852D01*
X113039930Y-85059103D01*
X113980758Y-84430462D01*
X116415734Y-81995485D01*
X116551885Y-81791721D01*
X116729991Y-81623389D01*
X116863218Y-81325780D01*
X117044376Y-81054658D01*
X117092187Y-80814297D01*
X117192315Y-80590625D01*
X117197411Y-80410000D01*
X117650011Y-80410000D01*
X117557795Y-80873600D01*
X117687200Y-81524162D01*
X118055713Y-82075682D01*
X118607233Y-82444195D01*
X119257795Y-82573600D01*
X119324405Y-82573600D01*
X119974967Y-82444195D01*
X120526487Y-82075682D01*
X120893005Y-81527147D01*
X125341745Y-81527147D01*
X125706720Y-82073416D01*
X126257548Y-82442982D01*
X126511100Y-82300898D01*
X126511100Y-81273600D01*
X127311100Y-81273600D01*
X127311100Y-82300898D01*
X127564652Y-82442982D01*
X128115480Y-82073416D01*
X128480455Y-81527147D01*
X128330827Y-81273600D01*
X127311100Y-81273600D01*
X126511100Y-81273600D01*
X125491373Y-81273600D01*
X125341745Y-81527147D01*
X120893005Y-81527147D01*
X120895000Y-81524162D01*
X121024405Y-80873600D01*
X120932189Y-80410000D01*
X125453840Y-80410000D01*
X125491373Y-80473600D01*
X126511100Y-80473600D01*
X126511100Y-80410000D01*
X127311100Y-80410000D01*
X127311100Y-80473600D01*
X128330827Y-80473600D01*
X128368360Y-80410000D01*
X131803964Y-80410000D01*
X131907970Y-80661715D01*
X132385770Y-81140350D01*
X133010366Y-81399704D01*
X133686667Y-81400294D01*
X134311715Y-81142030D01*
X134790350Y-80664230D01*
X134895915Y-80410000D01*
X137160000Y-80410000D01*
X137315622Y-80378486D01*
X137446723Y-80288908D01*
X137532644Y-80155383D01*
X137560000Y-80010000D01*
X137560000Y-75639423D01*
X139612980Y-75639423D01*
X140053586Y-76705772D01*
X140868727Y-77522337D01*
X141934306Y-77964804D01*
X143088096Y-77965811D01*
X144154445Y-77525205D01*
X144971010Y-76710064D01*
X145413477Y-75644485D01*
X145414484Y-74490695D01*
X144973878Y-73424346D01*
X144158737Y-72607781D01*
X143093158Y-72165314D01*
X141939368Y-72164307D01*
X140873019Y-72604913D01*
X140056454Y-73420054D01*
X139613987Y-74485633D01*
X139612980Y-75639423D01*
X137560000Y-75639423D01*
X137560000Y-72816034D01*
X138050409Y-73019669D01*
X138806275Y-73020329D01*
X139504857Y-72731681D01*
X140039802Y-72197669D01*
X140329669Y-71499591D01*
X140330329Y-70743725D01*
X140041681Y-70045143D01*
X139507669Y-69510198D01*
X138809591Y-69220331D01*
X138053725Y-69219671D01*
X137560000Y-69423674D01*
X137560000Y-67978566D01*
X137843536Y-68262102D01*
X138112368Y-67993270D01*
X138479272Y-68056596D01*
X139125582Y-67928037D01*
X139234399Y-67631506D01*
X138430000Y-66827107D01*
X138076447Y-67180661D01*
X137560000Y-66664214D01*
X137560000Y-66282893D01*
X137722893Y-66120000D01*
X139137107Y-66120000D01*
X139941506Y-66924399D01*
X140238037Y-66815582D01*
X140366596Y-66070728D01*
X140238037Y-65424418D01*
X139941506Y-65315601D01*
X139137107Y-66120000D01*
X137722893Y-66120000D01*
X137560000Y-65957107D01*
X137560000Y-65575786D01*
X138076447Y-65059340D01*
X138430000Y-65412893D01*
X139234399Y-64608494D01*
X139125582Y-64311963D01*
X138380728Y-64183404D01*
X138104072Y-64238434D01*
X137843536Y-63977898D01*
X137560000Y-64261434D01*
X137560000Y-57443201D01*
X138667075Y-58182925D01*
X138667075Y-58182925D01*
G37*
X138667075Y-58182925D02*
X143801107Y-65866549D01*
X145603940Y-74930000D01*
X144339558Y-81286474D01*
X144074806Y-80645723D01*
X143119135Y-79688383D01*
X141869852Y-79169635D01*
X140517149Y-79168455D01*
X139266962Y-79685021D01*
X138309622Y-80640692D01*
X137806668Y-81851939D01*
X134766865Y-84891742D01*
X134470218Y-84950749D01*
X133529390Y-85579390D01*
X133243940Y-86006596D01*
X133059021Y-85930000D01*
X132705000Y-85930000D01*
X132480000Y-86155000D01*
X132480000Y-87230000D01*
X132759565Y-87230000D01*
X132680000Y-87630000D01*
X132759565Y-88030000D01*
X132480000Y-88030000D01*
X132480000Y-89105000D01*
X132705000Y-89330000D01*
X133059021Y-89330000D01*
X133243940Y-89253404D01*
X133529390Y-89680610D01*
X134470218Y-90309251D01*
X135580000Y-90530000D01*
X136129827Y-90530000D01*
X137239609Y-90309251D01*
X138180437Y-89680610D01*
X141909923Y-85951124D01*
X142715417Y-85618301D01*
X138667075Y-91677075D01*
X130983451Y-96811107D01*
X121920000Y-98613940D01*
X112856549Y-96811107D01*
X108681139Y-94021187D01*
X111014499Y-94021187D01*
X111092296Y-94309536D01*
X111755238Y-94443298D01*
X112418905Y-94313181D01*
X112427704Y-94309536D01*
X112505501Y-94021187D01*
X111760000Y-93275685D01*
X111014499Y-94021187D01*
X108681139Y-94021187D01*
X106711681Y-92705238D01*
X110026702Y-92705238D01*
X110156819Y-93368905D01*
X110160464Y-93377704D01*
X110448813Y-93455501D01*
X111194315Y-92710000D01*
X112325685Y-92710000D01*
X113071187Y-93455501D01*
X113359536Y-93377704D01*
X113493298Y-92714762D01*
X113363181Y-92051095D01*
X113359536Y-92042296D01*
X113071187Y-91964499D01*
X112325685Y-92710000D01*
X111194315Y-92710000D01*
X110448813Y-91964499D01*
X110160464Y-92042296D01*
X110026702Y-92705238D01*
X106711681Y-92705238D01*
X105172925Y-91677075D01*
X104986997Y-91398813D01*
X111014499Y-91398813D01*
X111760000Y-92144315D01*
X112505501Y-91398813D01*
X112427704Y-91110464D01*
X111764762Y-90976702D01*
X111101095Y-91106819D01*
X111092296Y-91110464D01*
X111014499Y-91398813D01*
X104986997Y-91398813D01*
X104745980Y-91038106D01*
X105565542Y-91378418D01*
X106520269Y-91379251D01*
X107402641Y-91014663D01*
X108078324Y-90340158D01*
X108444452Y-89458424D01*
X108444610Y-89276275D01*
X118829671Y-89276275D01*
X119118319Y-89974857D01*
X119652331Y-90509802D01*
X120350409Y-90799669D01*
X121106275Y-90800329D01*
X121804857Y-90511681D01*
X122339802Y-89977669D01*
X122629669Y-89279591D01*
X122630000Y-88900000D01*
X123630000Y-88900000D01*
X123630000Y-91440000D01*
X123789853Y-92243635D01*
X124245076Y-92924924D01*
X125515076Y-94194924D01*
X126196364Y-94650147D01*
X127000000Y-94810000D01*
X127803635Y-94650147D01*
X128484924Y-94194924D01*
X128940147Y-93513635D01*
X129100000Y-92710000D01*
X128940147Y-91906364D01*
X128484924Y-91225076D01*
X127830000Y-90570152D01*
X127830000Y-88900000D01*
X127701702Y-88255000D01*
X130380000Y-88255000D01*
X130380000Y-88609021D01*
X130517017Y-88939809D01*
X130770191Y-89192983D01*
X131100979Y-89330000D01*
X131455000Y-89330000D01*
X131680000Y-89105000D01*
X131680000Y-88030000D01*
X130605000Y-88030000D01*
X130380000Y-88255000D01*
X127701702Y-88255000D01*
X127670147Y-88096365D01*
X127214924Y-87415076D01*
X126533635Y-86959853D01*
X126240938Y-86901632D01*
X126724857Y-86701681D01*
X126775647Y-86650979D01*
X130380000Y-86650979D01*
X130380000Y-87005000D01*
X130605000Y-87230000D01*
X131680000Y-87230000D01*
X131680000Y-86155000D01*
X131455000Y-85930000D01*
X131100979Y-85930000D01*
X130770191Y-86067017D01*
X130517017Y-86320191D01*
X130380000Y-86650979D01*
X126775647Y-86650979D01*
X127259802Y-86167669D01*
X127549669Y-85469591D01*
X127550329Y-84713725D01*
X127261681Y-84015143D01*
X126727669Y-83480198D01*
X126029591Y-83190331D01*
X125273725Y-83189671D01*
X124575143Y-83478319D01*
X124040198Y-84012331D01*
X123750331Y-84710409D01*
X123749671Y-85466275D01*
X124038319Y-86164857D01*
X124572331Y-86699802D01*
X125110430Y-86923240D01*
X124926365Y-86959853D01*
X124245076Y-87415076D01*
X123789853Y-88096365D01*
X123630000Y-88900000D01*
X122630000Y-88900000D01*
X122630329Y-88523725D01*
X122341681Y-87825143D01*
X121807669Y-87290198D01*
X121109591Y-87000331D01*
X120353725Y-86999671D01*
X119655143Y-87288319D01*
X119120198Y-87822331D01*
X118830331Y-88520409D01*
X118829671Y-89276275D01*
X108444610Y-89276275D01*
X108445285Y-88503697D01*
X108080697Y-87621325D01*
X107406192Y-86945642D01*
X106524458Y-86579514D01*
X105569731Y-86578681D01*
X104687359Y-86943269D01*
X104011676Y-87617774D01*
X103645548Y-88499508D01*
X103644771Y-89390030D01*
X101023003Y-85466275D01*
X118749671Y-85466275D01*
X119038319Y-86164857D01*
X119572331Y-86699802D01*
X120270409Y-86989669D01*
X121026275Y-86990329D01*
X121724857Y-86701681D01*
X122259802Y-86167669D01*
X122549669Y-85469591D01*
X122550329Y-84713725D01*
X122261681Y-84015143D01*
X121727669Y-83480198D01*
X121029591Y-83190331D01*
X120273725Y-83189671D01*
X119575143Y-83478319D01*
X119040198Y-84012331D01*
X118750331Y-84710409D01*
X118749671Y-85466275D01*
X101023003Y-85466275D01*
X100607090Y-84843818D01*
X101124666Y-85058734D01*
X101125218Y-85059103D01*
X101125864Y-85059231D01*
X101655650Y-85279218D01*
X102234350Y-85279723D01*
X102235000Y-85279852D01*
X102382695Y-85279852D01*
X102809289Y-85280224D01*
X102810189Y-85279852D01*
X111930148Y-85279852D01*
X113039930Y-85059103D01*
X113980758Y-84430462D01*
X116415734Y-81995485D01*
X116551885Y-81791721D01*
X116729991Y-81623389D01*
X116863218Y-81325780D01*
X117044376Y-81054658D01*
X117092187Y-80814297D01*
X117192315Y-80590625D01*
X117197411Y-80410000D01*
X117650011Y-80410000D01*
X117557795Y-80873600D01*
X117687200Y-81524162D01*
X118055713Y-82075682D01*
X118607233Y-82444195D01*
X119257795Y-82573600D01*
X119324405Y-82573600D01*
X119974967Y-82444195D01*
X120526487Y-82075682D01*
X120893005Y-81527147D01*
X125341745Y-81527147D01*
X125706720Y-82073416D01*
X126257548Y-82442982D01*
X126511100Y-82300898D01*
X126511100Y-81273600D01*
X127311100Y-81273600D01*
X127311100Y-82300898D01*
X127564652Y-82442982D01*
X128115480Y-82073416D01*
X128480455Y-81527147D01*
X128330827Y-81273600D01*
X127311100Y-81273600D01*
X126511100Y-81273600D01*
X125491373Y-81273600D01*
X125341745Y-81527147D01*
X120893005Y-81527147D01*
X120895000Y-81524162D01*
X121024405Y-80873600D01*
X120932189Y-80410000D01*
X125453840Y-80410000D01*
X125491373Y-80473600D01*
X126511100Y-80473600D01*
X126511100Y-80410000D01*
X127311100Y-80410000D01*
X127311100Y-80473600D01*
X128330827Y-80473600D01*
X128368360Y-80410000D01*
X131803964Y-80410000D01*
X131907970Y-80661715D01*
X132385770Y-81140350D01*
X133010366Y-81399704D01*
X133686667Y-81400294D01*
X134311715Y-81142030D01*
X134790350Y-80664230D01*
X134895915Y-80410000D01*
X137160000Y-80410000D01*
X137315622Y-80378486D01*
X137446723Y-80288908D01*
X137532644Y-80155383D01*
X137560000Y-80010000D01*
X137560000Y-75639423D01*
X139612980Y-75639423D01*
X140053586Y-76705772D01*
X140868727Y-77522337D01*
X141934306Y-77964804D01*
X143088096Y-77965811D01*
X144154445Y-77525205D01*
X144971010Y-76710064D01*
X145413477Y-75644485D01*
X145414484Y-74490695D01*
X144973878Y-73424346D01*
X144158737Y-72607781D01*
X143093158Y-72165314D01*
X141939368Y-72164307D01*
X140873019Y-72604913D01*
X140056454Y-73420054D01*
X139613987Y-74485633D01*
X139612980Y-75639423D01*
X137560000Y-75639423D01*
X137560000Y-72816034D01*
X138050409Y-73019669D01*
X138806275Y-73020329D01*
X139504857Y-72731681D01*
X140039802Y-72197669D01*
X140329669Y-71499591D01*
X140330329Y-70743725D01*
X140041681Y-70045143D01*
X139507669Y-69510198D01*
X138809591Y-69220331D01*
X138053725Y-69219671D01*
X137560000Y-69423674D01*
X137560000Y-67978566D01*
X137843536Y-68262102D01*
X138112368Y-67993270D01*
X138479272Y-68056596D01*
X139125582Y-67928037D01*
X139234399Y-67631506D01*
X138430000Y-66827107D01*
X138076447Y-67180661D01*
X137560000Y-66664214D01*
X137560000Y-66282893D01*
X137722893Y-66120000D01*
X139137107Y-66120000D01*
X139941506Y-66924399D01*
X140238037Y-66815582D01*
X140366596Y-66070728D01*
X140238037Y-65424418D01*
X139941506Y-65315601D01*
X139137107Y-66120000D01*
X137722893Y-66120000D01*
X137560000Y-65957107D01*
X137560000Y-65575786D01*
X138076447Y-65059340D01*
X138430000Y-65412893D01*
X139234399Y-64608494D01*
X139125582Y-64311963D01*
X138380728Y-64183404D01*
X138104072Y-64238434D01*
X137843536Y-63977898D01*
X137560000Y-64261434D01*
X137560000Y-57443201D01*
X138667075Y-58182925D01*
G36*
X130983451Y-53048893D02*
X135490000Y-56060072D01*
X135490000Y-57027145D01*
X134943652Y-56800282D01*
X134299176Y-56799719D01*
X133703542Y-57045830D01*
X133247431Y-57501145D01*
X133000282Y-58096348D01*
X132999719Y-58740824D01*
X133245830Y-59336458D01*
X133701145Y-59792569D01*
X134296348Y-60039718D01*
X134940824Y-60040281D01*
X135490000Y-59813366D01*
X135490000Y-78340000D01*
X134394440Y-78340000D01*
X134314230Y-78259650D01*
X133689634Y-78000296D01*
X133013333Y-77999706D01*
X132388285Y-78257970D01*
X132306112Y-78340000D01*
X121023132Y-78340000D01*
X121024405Y-78333600D01*
X120895000Y-77683038D01*
X120526487Y-77131518D01*
X120424840Y-77063600D01*
X120526487Y-76995682D01*
X120895000Y-76444162D01*
X121024405Y-75793600D01*
X120895000Y-75143038D01*
X120643963Y-74767333D01*
X120730938Y-74711366D01*
X120936436Y-74410610D01*
X121008732Y-74053600D01*
X121008732Y-72453600D01*
X120945976Y-72120080D01*
X120748866Y-71813762D01*
X120448110Y-71608264D01*
X120091100Y-71535968D01*
X118491100Y-71535968D01*
X118157580Y-71598724D01*
X117851262Y-71795834D01*
X117645764Y-72096590D01*
X117573468Y-72453600D01*
X117573468Y-74053600D01*
X117636224Y-74387120D01*
X117833334Y-74693438D01*
X117939255Y-74765811D01*
X117687200Y-75143038D01*
X117557795Y-75793600D01*
X117687200Y-76444162D01*
X118055713Y-76995682D01*
X118157360Y-77063600D01*
X118055713Y-77131518D01*
X117687200Y-77683038D01*
X117557795Y-78333600D01*
X117559068Y-78340000D01*
X116761924Y-78340000D01*
X116596887Y-78165381D01*
X116415734Y-77894266D01*
X116211973Y-77758117D01*
X116043639Y-77580009D01*
X115746025Y-77446780D01*
X115474907Y-77265624D01*
X115234551Y-77217814D01*
X115010875Y-77117684D01*
X114945750Y-77102809D01*
X114608552Y-77093296D01*
X114365125Y-77044875D01*
X114182174Y-77081266D01*
X113814676Y-77070898D01*
X113357645Y-77245275D01*
X113255342Y-77265624D01*
X113190160Y-77309177D01*
X112757488Y-77474260D01*
X111935134Y-78251486D01*
X111917173Y-78291608D01*
X111868781Y-78340000D01*
X110676947Y-78340000D01*
X110850001Y-77470000D01*
X110629251Y-76360218D01*
X110000610Y-75419391D01*
X109887495Y-75306275D01*
X112399671Y-75306275D01*
X112688319Y-76004857D01*
X113222331Y-76539802D01*
X113920409Y-76829669D01*
X114676275Y-76830329D01*
X115374857Y-76541681D01*
X115909802Y-76007669D01*
X116199669Y-75309591D01*
X116200329Y-74553725D01*
X116200000Y-74552929D01*
X116200000Y-69850000D01*
X122610000Y-69850000D01*
X122750823Y-70557964D01*
X123151852Y-71158148D01*
X123752036Y-71559177D01*
X124460000Y-71700000D01*
X125882029Y-71700000D01*
X125567597Y-71910097D01*
X125155729Y-72526501D01*
X125011100Y-73253600D01*
X125155729Y-73980699D01*
X125567597Y-74597103D01*
X125639762Y-74645322D01*
X125307200Y-75143038D01*
X125177795Y-75793600D01*
X125307200Y-76444162D01*
X125675713Y-76995682D01*
X125794378Y-77074972D01*
X125706720Y-77133784D01*
X125341745Y-77680053D01*
X125491373Y-77933600D01*
X126511100Y-77933600D01*
X126511100Y-77533600D01*
X127311100Y-77533600D01*
X127311100Y-77933600D01*
X128330827Y-77933600D01*
X128480455Y-77680053D01*
X128115480Y-77133784D01*
X128027822Y-77074972D01*
X128146487Y-76995682D01*
X128260532Y-76825000D01*
X131650000Y-76825000D01*
X131650000Y-77179021D01*
X131787017Y-77509809D01*
X132040191Y-77762983D01*
X132370979Y-77900000D01*
X132725000Y-77900000D01*
X132950000Y-77675000D01*
X132950000Y-76600000D01*
X133750000Y-76600000D01*
X133750000Y-77675000D01*
X133975000Y-77900000D01*
X134329021Y-77900000D01*
X134659809Y-77762983D01*
X134912983Y-77509809D01*
X135050000Y-77179021D01*
X135050000Y-76825000D01*
X134825000Y-76600000D01*
X133750000Y-76600000D01*
X132950000Y-76600000D01*
X131875000Y-76600000D01*
X131650000Y-76825000D01*
X128260532Y-76825000D01*
X128515000Y-76444162D01*
X128644405Y-75793600D01*
X128530504Y-75220979D01*
X131650000Y-75220979D01*
X131650000Y-75575000D01*
X131875000Y-75800000D01*
X132950000Y-75800000D01*
X132950000Y-74725000D01*
X133750000Y-74725000D01*
X133750000Y-75800000D01*
X134825000Y-75800000D01*
X135050000Y-75575000D01*
X135050000Y-75220979D01*
X134912983Y-74890191D01*
X134659809Y-74637017D01*
X134329021Y-74500000D01*
X133975000Y-74500000D01*
X133750000Y-74725000D01*
X132950000Y-74725000D01*
X132725000Y-74500000D01*
X132370979Y-74500000D01*
X132040191Y-74637017D01*
X131787017Y-74890191D01*
X131650000Y-75220979D01*
X128530504Y-75220979D01*
X128517101Y-75153600D01*
X128676400Y-75153600D01*
X129403499Y-75008971D01*
X130019903Y-74597103D01*
X133423503Y-71193503D01*
X133447126Y-71158148D01*
X133835371Y-70577099D01*
X133980000Y-69850000D01*
X133980000Y-67270000D01*
X133835371Y-66542901D01*
X133572907Y-66150096D01*
X133725336Y-65927010D01*
X133797632Y-65570000D01*
X133797632Y-65435458D01*
X133930000Y-64770000D01*
X133797632Y-64104542D01*
X133797632Y-63970000D01*
X133734876Y-63636480D01*
X133537766Y-63330162D01*
X133237010Y-63124664D01*
X132880000Y-63052368D01*
X132745458Y-63052368D01*
X132080000Y-62920000D01*
X130810000Y-62920000D01*
X130102035Y-63060823D01*
X129861636Y-63221453D01*
X129501852Y-63461852D01*
X129501850Y-63461855D01*
X128231852Y-64731852D01*
X127830823Y-65332035D01*
X127726305Y-65857478D01*
X127323652Y-65690282D01*
X126679176Y-65689719D01*
X126083542Y-65935830D01*
X125627431Y-66391145D01*
X125380282Y-66986348D01*
X125379719Y-67630824D01*
X125532259Y-68000000D01*
X124460000Y-68000000D01*
X123752036Y-68140823D01*
X123151852Y-68541852D01*
X122750823Y-69142036D01*
X122610000Y-69850000D01*
X116200000Y-69850000D01*
X116055371Y-69122901D01*
X115643503Y-68506497D01*
X115027099Y-68094629D01*
X114300000Y-67950000D01*
X113572901Y-68094629D01*
X112956497Y-68506497D01*
X112544629Y-69122901D01*
X112400000Y-69850000D01*
X112400000Y-74929487D01*
X112399671Y-75306275D01*
X109887495Y-75306275D01*
X106190610Y-71609390D01*
X105249782Y-70980749D01*
X104140000Y-70760000D01*
X103482631Y-70760000D01*
X102279319Y-70260341D01*
X100926616Y-70259161D01*
X99676429Y-70775727D01*
X98910262Y-71540558D01*
X99617506Y-67985000D01*
X106150000Y-67985000D01*
X106150000Y-68389021D01*
X106287017Y-68719809D01*
X106540191Y-68972983D01*
X106870979Y-69110000D01*
X107275000Y-69110000D01*
X107500000Y-68885000D01*
X107500000Y-67760000D01*
X108400000Y-67760000D01*
X108400000Y-68885000D01*
X108625000Y-69110000D01*
X109029021Y-69110000D01*
X109359809Y-68972983D01*
X109612983Y-68719809D01*
X109750000Y-68389021D01*
X109750000Y-67985000D01*
X109525000Y-67760000D01*
X108400000Y-67760000D01*
X107500000Y-67760000D01*
X106375000Y-67760000D01*
X106150000Y-67985000D01*
X99617506Y-67985000D01*
X99687956Y-67630824D01*
X115219719Y-67630824D01*
X115465830Y-68226458D01*
X115921145Y-68682569D01*
X116516348Y-68929718D01*
X117160824Y-68930281D01*
X117756458Y-68684170D01*
X118212569Y-68228855D01*
X118459718Y-67633652D01*
X118460281Y-66989176D01*
X118214170Y-66393542D01*
X117758855Y-65937431D01*
X117163652Y-65690282D01*
X116519176Y-65689719D01*
X115923542Y-65935830D01*
X115467431Y-66391145D01*
X115220282Y-66986348D01*
X115219719Y-67630824D01*
X99687956Y-67630824D01*
X100038893Y-65866549D01*
X101329272Y-63935359D01*
X101328849Y-64420558D01*
X101769455Y-65486907D01*
X102584596Y-66303472D01*
X103650175Y-66745939D01*
X104803965Y-66746946D01*
X105870314Y-66306340D01*
X105945806Y-66230979D01*
X106150000Y-66230979D01*
X106150000Y-66635000D01*
X106375000Y-66860000D01*
X107500000Y-66860000D01*
X107500000Y-65735000D01*
X108400000Y-65735000D01*
X108400000Y-66860000D01*
X109525000Y-66860000D01*
X109750000Y-66635000D01*
X109750000Y-66230979D01*
X109612983Y-65900191D01*
X109359809Y-65647017D01*
X109029021Y-65510000D01*
X108625000Y-65510000D01*
X108400000Y-65735000D01*
X107500000Y-65735000D01*
X107275000Y-65510000D01*
X106870979Y-65510000D01*
X106540191Y-65647017D01*
X106287017Y-65900191D01*
X106150000Y-66230979D01*
X105945806Y-66230979D01*
X106686879Y-65491199D01*
X106853129Y-65090824D01*
X112679719Y-65090824D01*
X112925830Y-65686458D01*
X113381145Y-66142569D01*
X113976348Y-66389718D01*
X114620824Y-66390281D01*
X115216458Y-66144170D01*
X115672569Y-65688855D01*
X115919718Y-65093652D01*
X115919720Y-65090824D01*
X122839719Y-65090824D01*
X123085830Y-65686458D01*
X123541145Y-66142569D01*
X124136348Y-66389718D01*
X124780824Y-66390281D01*
X125376458Y-66144170D01*
X125832569Y-65688855D01*
X126079718Y-65093652D01*
X126080281Y-64449176D01*
X125834170Y-63853542D01*
X125378855Y-63397431D01*
X124783652Y-63150282D01*
X124139176Y-63149719D01*
X123543542Y-63395830D01*
X123087431Y-63851145D01*
X122840282Y-64446348D01*
X122839719Y-65090824D01*
X115919720Y-65090824D01*
X115920281Y-64449176D01*
X115674170Y-63853542D01*
X115218855Y-63397431D01*
X114623652Y-63150282D01*
X113979176Y-63149719D01*
X113383542Y-63395830D01*
X112927431Y-63851145D01*
X112680282Y-64446348D01*
X112679719Y-65090824D01*
X106853129Y-65090824D01*
X107129346Y-64425620D01*
X107130353Y-63271830D01*
X106689747Y-62205481D01*
X106098846Y-61613547D01*
X108920645Y-61613547D01*
X109285620Y-62159816D01*
X109836448Y-62529382D01*
X110090000Y-62387298D01*
X110090000Y-61360000D01*
X110890000Y-61360000D01*
X110890000Y-62387298D01*
X111143552Y-62529382D01*
X111694380Y-62159816D01*
X112059355Y-61613547D01*
X111909727Y-61360000D01*
X110890000Y-61360000D01*
X110090000Y-61360000D01*
X109070273Y-61360000D01*
X108920645Y-61613547D01*
X106098846Y-61613547D01*
X105874606Y-61388916D01*
X104809027Y-60946449D01*
X103655237Y-60945442D01*
X103201915Y-61132751D01*
X103754029Y-60306453D01*
X108920645Y-60306453D01*
X109070273Y-60560000D01*
X110090000Y-60560000D01*
X110090000Y-59532702D01*
X110890000Y-59532702D01*
X110890000Y-60560000D01*
X111909727Y-60560000D01*
X112059355Y-60306453D01*
X111694380Y-59760184D01*
X111143552Y-59390618D01*
X110890000Y-59532702D01*
X110090000Y-59532702D01*
X109836448Y-59390618D01*
X109285620Y-59760184D01*
X108920645Y-60306453D01*
X103754029Y-60306453D01*
X105172925Y-58182925D01*
X105783428Y-57775000D01*
X113870000Y-57775000D01*
X113870000Y-58129021D01*
X114007017Y-58459809D01*
X114260191Y-58712983D01*
X114590979Y-58850000D01*
X114945000Y-58850000D01*
X115170000Y-58625000D01*
X115170000Y-57550000D01*
X115970000Y-57550000D01*
X115970000Y-58625000D01*
X116195000Y-58850000D01*
X116549021Y-58850000D01*
X116879809Y-58712983D01*
X117132983Y-58459809D01*
X117270000Y-58129021D01*
X117270000Y-57775000D01*
X117045000Y-57550000D01*
X115970000Y-57550000D01*
X115170000Y-57550000D01*
X114095000Y-57550000D01*
X113870000Y-57775000D01*
X105783428Y-57775000D01*
X109956464Y-54986667D01*
X113869706Y-54986667D01*
X114127970Y-55611715D01*
X114181685Y-55665523D01*
X114007017Y-55840191D01*
X113870000Y-56170979D01*
X113870000Y-56525000D01*
X114095000Y-56750000D01*
X115170000Y-56750000D01*
X115170000Y-56350000D01*
X115569663Y-56350000D01*
X115906667Y-56350294D01*
X115907379Y-56350000D01*
X115970000Y-56350000D01*
X115970000Y-56750000D01*
X117045000Y-56750000D01*
X117270000Y-56525000D01*
X117270000Y-56170979D01*
X117132983Y-55840191D01*
X116958641Y-55665849D01*
X117010350Y-55614230D01*
X117269704Y-54989634D01*
X117270294Y-54313333D01*
X117021003Y-53710000D01*
X118832368Y-53710000D01*
X118832368Y-55510000D01*
X118895124Y-55843520D01*
X119092234Y-56149838D01*
X119392990Y-56355336D01*
X119750000Y-56427632D01*
X121550000Y-56427632D01*
X121883520Y-56364876D01*
X122111299Y-56218305D01*
X123830000Y-57937006D01*
X123830000Y-60960000D01*
X123974629Y-61687099D01*
X124386497Y-62303503D01*
X125002901Y-62715371D01*
X125730000Y-62860000D01*
X126457099Y-62715371D01*
X127073503Y-62303503D01*
X127485371Y-61687099D01*
X127566184Y-61280824D01*
X130459719Y-61280824D01*
X130705830Y-61876458D01*
X131161145Y-62332569D01*
X131756348Y-62579718D01*
X132400824Y-62580281D01*
X132996458Y-62334170D01*
X133452569Y-61878855D01*
X133699718Y-61283652D01*
X133700281Y-60639176D01*
X133454170Y-60043542D01*
X132998855Y-59587431D01*
X132403652Y-59340282D01*
X131759176Y-59339719D01*
X131163542Y-59585830D01*
X130707431Y-60041145D01*
X130460282Y-60636348D01*
X130459719Y-61280824D01*
X127566184Y-61280824D01*
X127630000Y-60960000D01*
X127630000Y-58740824D01*
X127919719Y-58740824D01*
X128165830Y-59336458D01*
X128621145Y-59792569D01*
X129216348Y-60039718D01*
X129860824Y-60040281D01*
X130456458Y-59794170D01*
X130912569Y-59338855D01*
X131159718Y-58743652D01*
X131160281Y-58099176D01*
X130914170Y-57503542D01*
X130458855Y-57047431D01*
X129863652Y-56800282D01*
X129219176Y-56799719D01*
X128623542Y-57045830D01*
X128167431Y-57501145D01*
X127920282Y-58096348D01*
X127919719Y-58740824D01*
X127630000Y-58740824D01*
X127630000Y-57150000D01*
X127485371Y-56422901D01*
X127073503Y-55806497D01*
X124533503Y-53266497D01*
X123917098Y-52854629D01*
X123190000Y-52710000D01*
X122462902Y-52854629D01*
X122174426Y-53047382D01*
X121907010Y-52864664D01*
X121550000Y-52792368D01*
X119750000Y-52792368D01*
X119416480Y-52855124D01*
X119110162Y-53052234D01*
X118904664Y-53352990D01*
X118832368Y-53710000D01*
X117021003Y-53710000D01*
X117012030Y-53688285D01*
X116534230Y-53209650D01*
X115909634Y-52950296D01*
X115233333Y-52949706D01*
X114608285Y-53207970D01*
X114129650Y-53685770D01*
X113870296Y-54310366D01*
X113869706Y-54986667D01*
X109956464Y-54986667D01*
X112856549Y-53048893D01*
X121920000Y-51246060D01*
X130983451Y-53048893D01*
X130983451Y-53048893D01*
G37*
X130983451Y-53048893D02*
X135490000Y-56060072D01*
X135490000Y-57027145D01*
X134943652Y-56800282D01*
X134299176Y-56799719D01*
X133703542Y-57045830D01*
X133247431Y-57501145D01*
X133000282Y-58096348D01*
X132999719Y-58740824D01*
X133245830Y-59336458D01*
X133701145Y-59792569D01*
X134296348Y-60039718D01*
X134940824Y-60040281D01*
X135490000Y-59813366D01*
X135490000Y-78340000D01*
X134394440Y-78340000D01*
X134314230Y-78259650D01*
X133689634Y-78000296D01*
X133013333Y-77999706D01*
X132388285Y-78257970D01*
X132306112Y-78340000D01*
X121023132Y-78340000D01*
X121024405Y-78333600D01*
X120895000Y-77683038D01*
X120526487Y-77131518D01*
X120424840Y-77063600D01*
X120526487Y-76995682D01*
X120895000Y-76444162D01*
X121024405Y-75793600D01*
X120895000Y-75143038D01*
X120643963Y-74767333D01*
X120730938Y-74711366D01*
X120936436Y-74410610D01*
X121008732Y-74053600D01*
X121008732Y-72453600D01*
X120945976Y-72120080D01*
X120748866Y-71813762D01*
X120448110Y-71608264D01*
X120091100Y-71535968D01*
X118491100Y-71535968D01*
X118157580Y-71598724D01*
X117851262Y-71795834D01*
X117645764Y-72096590D01*
X117573468Y-72453600D01*
X117573468Y-74053600D01*
X117636224Y-74387120D01*
X117833334Y-74693438D01*
X117939255Y-74765811D01*
X117687200Y-75143038D01*
X117557795Y-75793600D01*
X117687200Y-76444162D01*
X118055713Y-76995682D01*
X118157360Y-77063600D01*
X118055713Y-77131518D01*
X117687200Y-77683038D01*
X117557795Y-78333600D01*
X117559068Y-78340000D01*
X116761924Y-78340000D01*
X116596887Y-78165381D01*
X116415734Y-77894266D01*
X116211973Y-77758117D01*
X116043639Y-77580009D01*
X115746025Y-77446780D01*
X115474907Y-77265624D01*
X115234551Y-77217814D01*
X115010875Y-77117684D01*
X114945750Y-77102809D01*
X114608552Y-77093296D01*
X114365125Y-77044875D01*
X114182174Y-77081266D01*
X113814676Y-77070898D01*
X113357645Y-77245275D01*
X113255342Y-77265624D01*
X113190160Y-77309177D01*
X112757488Y-77474260D01*
X111935134Y-78251486D01*
X111917173Y-78291608D01*
X111868781Y-78340000D01*
X110676947Y-78340000D01*
X110850001Y-77470000D01*
X110629251Y-76360218D01*
X110000610Y-75419391D01*
X109887495Y-75306275D01*
X112399671Y-75306275D01*
X112688319Y-76004857D01*
X113222331Y-76539802D01*
X113920409Y-76829669D01*
X114676275Y-76830329D01*
X115374857Y-76541681D01*
X115909802Y-76007669D01*
X116199669Y-75309591D01*
X116200329Y-74553725D01*
X116200000Y-74552929D01*
X116200000Y-69850000D01*
X122610000Y-69850000D01*
X122750823Y-70557964D01*
X123151852Y-71158148D01*
X123752036Y-71559177D01*
X124460000Y-71700000D01*
X125882029Y-71700000D01*
X125567597Y-71910097D01*
X125155729Y-72526501D01*
X125011100Y-73253600D01*
X125155729Y-73980699D01*
X125567597Y-74597103D01*
X125639762Y-74645322D01*
X125307200Y-75143038D01*
X125177795Y-75793600D01*
X125307200Y-76444162D01*
X125675713Y-76995682D01*
X125794378Y-77074972D01*
X125706720Y-77133784D01*
X125341745Y-77680053D01*
X125491373Y-77933600D01*
X126511100Y-77933600D01*
X126511100Y-77533600D01*
X127311100Y-77533600D01*
X127311100Y-77933600D01*
X128330827Y-77933600D01*
X128480455Y-77680053D01*
X128115480Y-77133784D01*
X128027822Y-77074972D01*
X128146487Y-76995682D01*
X128260532Y-76825000D01*
X131650000Y-76825000D01*
X131650000Y-77179021D01*
X131787017Y-77509809D01*
X132040191Y-77762983D01*
X132370979Y-77900000D01*
X132725000Y-77900000D01*
X132950000Y-77675000D01*
X132950000Y-76600000D01*
X133750000Y-76600000D01*
X133750000Y-77675000D01*
X133975000Y-77900000D01*
X134329021Y-77900000D01*
X134659809Y-77762983D01*
X134912983Y-77509809D01*
X135050000Y-77179021D01*
X135050000Y-76825000D01*
X134825000Y-76600000D01*
X133750000Y-76600000D01*
X132950000Y-76600000D01*
X131875000Y-76600000D01*
X131650000Y-76825000D01*
X128260532Y-76825000D01*
X128515000Y-76444162D01*
X128644405Y-75793600D01*
X128530504Y-75220979D01*
X131650000Y-75220979D01*
X131650000Y-75575000D01*
X131875000Y-75800000D01*
X132950000Y-75800000D01*
X132950000Y-74725000D01*
X133750000Y-74725000D01*
X133750000Y-75800000D01*
X134825000Y-75800000D01*
X135050000Y-75575000D01*
X135050000Y-75220979D01*
X134912983Y-74890191D01*
X134659809Y-74637017D01*
X134329021Y-74500000D01*
X133975000Y-74500000D01*
X133750000Y-74725000D01*
X132950000Y-74725000D01*
X132725000Y-74500000D01*
X132370979Y-74500000D01*
X132040191Y-74637017D01*
X131787017Y-74890191D01*
X131650000Y-75220979D01*
X128530504Y-75220979D01*
X128517101Y-75153600D01*
X128676400Y-75153600D01*
X129403499Y-75008971D01*
X130019903Y-74597103D01*
X133423503Y-71193503D01*
X133447126Y-71158148D01*
X133835371Y-70577099D01*
X133980000Y-69850000D01*
X133980000Y-67270000D01*
X133835371Y-66542901D01*
X133572907Y-66150096D01*
X133725336Y-65927010D01*
X133797632Y-65570000D01*
X133797632Y-65435458D01*
X133930000Y-64770000D01*
X133797632Y-64104542D01*
X133797632Y-63970000D01*
X133734876Y-63636480D01*
X133537766Y-63330162D01*
X133237010Y-63124664D01*
X132880000Y-63052368D01*
X132745458Y-63052368D01*
X132080000Y-62920000D01*
X130810000Y-62920000D01*
X130102035Y-63060823D01*
X129861636Y-63221453D01*
X129501852Y-63461852D01*
X129501850Y-63461855D01*
X128231852Y-64731852D01*
X127830823Y-65332035D01*
X127726305Y-65857478D01*
X127323652Y-65690282D01*
X126679176Y-65689719D01*
X126083542Y-65935830D01*
X125627431Y-66391145D01*
X125380282Y-66986348D01*
X125379719Y-67630824D01*
X125532259Y-68000000D01*
X124460000Y-68000000D01*
X123752036Y-68140823D01*
X123151852Y-68541852D01*
X122750823Y-69142036D01*
X122610000Y-69850000D01*
X116200000Y-69850000D01*
X116055371Y-69122901D01*
X115643503Y-68506497D01*
X115027099Y-68094629D01*
X114300000Y-67950000D01*
X113572901Y-68094629D01*
X112956497Y-68506497D01*
X112544629Y-69122901D01*
X112400000Y-69850000D01*
X112400000Y-74929487D01*
X112399671Y-75306275D01*
X109887495Y-75306275D01*
X106190610Y-71609390D01*
X105249782Y-70980749D01*
X104140000Y-70760000D01*
X103482631Y-70760000D01*
X102279319Y-70260341D01*
X100926616Y-70259161D01*
X99676429Y-70775727D01*
X98910262Y-71540558D01*
X99617506Y-67985000D01*
X106150000Y-67985000D01*
X106150000Y-68389021D01*
X106287017Y-68719809D01*
X106540191Y-68972983D01*
X106870979Y-69110000D01*
X107275000Y-69110000D01*
X107500000Y-68885000D01*
X107500000Y-67760000D01*
X108400000Y-67760000D01*
X108400000Y-68885000D01*
X108625000Y-69110000D01*
X109029021Y-69110000D01*
X109359809Y-68972983D01*
X109612983Y-68719809D01*
X109750000Y-68389021D01*
X109750000Y-67985000D01*
X109525000Y-67760000D01*
X108400000Y-67760000D01*
X107500000Y-67760000D01*
X106375000Y-67760000D01*
X106150000Y-67985000D01*
X99617506Y-67985000D01*
X99687956Y-67630824D01*
X115219719Y-67630824D01*
X115465830Y-68226458D01*
X115921145Y-68682569D01*
X116516348Y-68929718D01*
X117160824Y-68930281D01*
X117756458Y-68684170D01*
X118212569Y-68228855D01*
X118459718Y-67633652D01*
X118460281Y-66989176D01*
X118214170Y-66393542D01*
X117758855Y-65937431D01*
X117163652Y-65690282D01*
X116519176Y-65689719D01*
X115923542Y-65935830D01*
X115467431Y-66391145D01*
X115220282Y-66986348D01*
X115219719Y-67630824D01*
X99687956Y-67630824D01*
X100038893Y-65866549D01*
X101329272Y-63935359D01*
X101328849Y-64420558D01*
X101769455Y-65486907D01*
X102584596Y-66303472D01*
X103650175Y-66745939D01*
X104803965Y-66746946D01*
X105870314Y-66306340D01*
X105945806Y-66230979D01*
X106150000Y-66230979D01*
X106150000Y-66635000D01*
X106375000Y-66860000D01*
X107500000Y-66860000D01*
X107500000Y-65735000D01*
X108400000Y-65735000D01*
X108400000Y-66860000D01*
X109525000Y-66860000D01*
X109750000Y-66635000D01*
X109750000Y-66230979D01*
X109612983Y-65900191D01*
X109359809Y-65647017D01*
X109029021Y-65510000D01*
X108625000Y-65510000D01*
X108400000Y-65735000D01*
X107500000Y-65735000D01*
X107275000Y-65510000D01*
X106870979Y-65510000D01*
X106540191Y-65647017D01*
X106287017Y-65900191D01*
X106150000Y-66230979D01*
X105945806Y-66230979D01*
X106686879Y-65491199D01*
X106853129Y-65090824D01*
X112679719Y-65090824D01*
X112925830Y-65686458D01*
X113381145Y-66142569D01*
X113976348Y-66389718D01*
X114620824Y-66390281D01*
X115216458Y-66144170D01*
X115672569Y-65688855D01*
X115919718Y-65093652D01*
X115919720Y-65090824D01*
X122839719Y-65090824D01*
X123085830Y-65686458D01*
X123541145Y-66142569D01*
X124136348Y-66389718D01*
X124780824Y-66390281D01*
X125376458Y-66144170D01*
X125832569Y-65688855D01*
X126079718Y-65093652D01*
X126080281Y-64449176D01*
X125834170Y-63853542D01*
X125378855Y-63397431D01*
X124783652Y-63150282D01*
X124139176Y-63149719D01*
X123543542Y-63395830D01*
X123087431Y-63851145D01*
X122840282Y-64446348D01*
X122839719Y-65090824D01*
X115919720Y-65090824D01*
X115920281Y-64449176D01*
X115674170Y-63853542D01*
X115218855Y-63397431D01*
X114623652Y-63150282D01*
X113979176Y-63149719D01*
X113383542Y-63395830D01*
X112927431Y-63851145D01*
X112680282Y-64446348D01*
X112679719Y-65090824D01*
X106853129Y-65090824D01*
X107129346Y-64425620D01*
X107130353Y-63271830D01*
X106689747Y-62205481D01*
X106098846Y-61613547D01*
X108920645Y-61613547D01*
X109285620Y-62159816D01*
X109836448Y-62529382D01*
X110090000Y-62387298D01*
X110090000Y-61360000D01*
X110890000Y-61360000D01*
X110890000Y-62387298D01*
X111143552Y-62529382D01*
X111694380Y-62159816D01*
X112059355Y-61613547D01*
X111909727Y-61360000D01*
X110890000Y-61360000D01*
X110090000Y-61360000D01*
X109070273Y-61360000D01*
X108920645Y-61613547D01*
X106098846Y-61613547D01*
X105874606Y-61388916D01*
X104809027Y-60946449D01*
X103655237Y-60945442D01*
X103201915Y-61132751D01*
X103754029Y-60306453D01*
X108920645Y-60306453D01*
X109070273Y-60560000D01*
X110090000Y-60560000D01*
X110090000Y-59532702D01*
X110890000Y-59532702D01*
X110890000Y-60560000D01*
X111909727Y-60560000D01*
X112059355Y-60306453D01*
X111694380Y-59760184D01*
X111143552Y-59390618D01*
X110890000Y-59532702D01*
X110090000Y-59532702D01*
X109836448Y-59390618D01*
X109285620Y-59760184D01*
X108920645Y-60306453D01*
X103754029Y-60306453D01*
X105172925Y-58182925D01*
X105783428Y-57775000D01*
X113870000Y-57775000D01*
X113870000Y-58129021D01*
X114007017Y-58459809D01*
X114260191Y-58712983D01*
X114590979Y-58850000D01*
X114945000Y-58850000D01*
X115170000Y-58625000D01*
X115170000Y-57550000D01*
X115970000Y-57550000D01*
X115970000Y-58625000D01*
X116195000Y-58850000D01*
X116549021Y-58850000D01*
X116879809Y-58712983D01*
X117132983Y-58459809D01*
X117270000Y-58129021D01*
X117270000Y-57775000D01*
X117045000Y-57550000D01*
X115970000Y-57550000D01*
X115170000Y-57550000D01*
X114095000Y-57550000D01*
X113870000Y-57775000D01*
X105783428Y-57775000D01*
X109956464Y-54986667D01*
X113869706Y-54986667D01*
X114127970Y-55611715D01*
X114181685Y-55665523D01*
X114007017Y-55840191D01*
X113870000Y-56170979D01*
X113870000Y-56525000D01*
X114095000Y-56750000D01*
X115170000Y-56750000D01*
X115170000Y-56350000D01*
X115569663Y-56350000D01*
X115906667Y-56350294D01*
X115907379Y-56350000D01*
X115970000Y-56350000D01*
X115970000Y-56750000D01*
X117045000Y-56750000D01*
X117270000Y-56525000D01*
X117270000Y-56170979D01*
X117132983Y-55840191D01*
X116958641Y-55665849D01*
X117010350Y-55614230D01*
X117269704Y-54989634D01*
X117270294Y-54313333D01*
X117021003Y-53710000D01*
X118832368Y-53710000D01*
X118832368Y-55510000D01*
X118895124Y-55843520D01*
X119092234Y-56149838D01*
X119392990Y-56355336D01*
X119750000Y-56427632D01*
X121550000Y-56427632D01*
X121883520Y-56364876D01*
X122111299Y-56218305D01*
X123830000Y-57937006D01*
X123830000Y-60960000D01*
X123974629Y-61687099D01*
X124386497Y-62303503D01*
X125002901Y-62715371D01*
X125730000Y-62860000D01*
X126457099Y-62715371D01*
X127073503Y-62303503D01*
X127485371Y-61687099D01*
X127566184Y-61280824D01*
X130459719Y-61280824D01*
X130705830Y-61876458D01*
X131161145Y-62332569D01*
X131756348Y-62579718D01*
X132400824Y-62580281D01*
X132996458Y-62334170D01*
X133452569Y-61878855D01*
X133699718Y-61283652D01*
X133700281Y-60639176D01*
X133454170Y-60043542D01*
X132998855Y-59587431D01*
X132403652Y-59340282D01*
X131759176Y-59339719D01*
X131163542Y-59585830D01*
X130707431Y-60041145D01*
X130460282Y-60636348D01*
X130459719Y-61280824D01*
X127566184Y-61280824D01*
X127630000Y-60960000D01*
X127630000Y-58740824D01*
X127919719Y-58740824D01*
X128165830Y-59336458D01*
X128621145Y-59792569D01*
X129216348Y-60039718D01*
X129860824Y-60040281D01*
X130456458Y-59794170D01*
X130912569Y-59338855D01*
X131159718Y-58743652D01*
X131160281Y-58099176D01*
X130914170Y-57503542D01*
X130458855Y-57047431D01*
X129863652Y-56800282D01*
X129219176Y-56799719D01*
X128623542Y-57045830D01*
X128167431Y-57501145D01*
X127920282Y-58096348D01*
X127919719Y-58740824D01*
X127630000Y-58740824D01*
X127630000Y-57150000D01*
X127485371Y-56422901D01*
X127073503Y-55806497D01*
X124533503Y-53266497D01*
X123917098Y-52854629D01*
X123190000Y-52710000D01*
X122462902Y-52854629D01*
X122174426Y-53047382D01*
X121907010Y-52864664D01*
X121550000Y-52792368D01*
X119750000Y-52792368D01*
X119416480Y-52855124D01*
X119110162Y-53052234D01*
X118904664Y-53352990D01*
X118832368Y-53710000D01*
X117021003Y-53710000D01*
X117012030Y-53688285D01*
X116534230Y-53209650D01*
X115909634Y-52950296D01*
X115233333Y-52949706D01*
X114608285Y-53207970D01*
X114129650Y-53685770D01*
X113870296Y-54310366D01*
X113869706Y-54986667D01*
X109956464Y-54986667D01*
X112856549Y-53048893D01*
X121920000Y-51246060D01*
X130983451Y-53048893D01*
M02*
