M48
;DRILL file {KiCad 4.0.7} date 2020 August 23, Sunday 22:37:44
;FORMAT={-:-/ absolute / inch / decimal}
FMAT,2
INCH,TZ
T1C0.031
T2C0.035
T3C0.039
T4C0.059
T5C0.079
%
G90
G05
M72
T1
X4.35Y-2.4
X4.4Y-3.65
X4.5Y-2.55
X4.5Y-2.75
X4.55Y-2.1516
X4.55Y-2.25
X4.6Y-2.65
X4.6965Y-2.884
X4.6965Y-2.984
X4.6965Y-3.084
X4.6965Y-3.184
X4.9Y-2.55
X4.9Y-2.75
X4.95Y-2.4
X4.9965Y-2.884
X4.9965Y-2.984
X4.9965Y-3.084
X4.9965Y-3.184
X5.Y-2.65
X5.Y-3.65
X5.1Y-2.3
X5.2Y-2.4
X5.2Y-2.55
X5.2Y-2.6484
X5.2Y-3.45
X5.25Y-3.
X5.25Y-3.1378
X5.3Y-2.3
X5.3378Y-3.45
T2
X4.25Y-2.65
X4.25Y-3.05
X4.75Y-2.15
X4.85Y-2.15
T3
X4.5Y-2.95
X4.5Y-3.1469
X4.75Y-3.35
X4.7531Y-3.5
X4.9469Y-3.35
X4.95Y-3.5
X5.45Y-2.6031
X5.45Y-2.8
T4
X4.025Y-3.2433
X4.175Y-3.5031
T5
X4.Y-2.9
X4.1035Y-2.5136
X5.5587Y-3.2508
X5.6108Y-2.9553
T0
M30
